<svg width="36" height="36" viewBox="0 0 36 36" fill="none" xmlns="http://www.w3.org/2000/svg">
<rect width="36" height="36" rx="5" fill="#59C871"/>
<g clip-path="url(#clip0_6208_7470)">
<path fill-rule="evenodd" clip-rule="evenodd" d="M25.3284 15.3322C25.3284 15.067 25.223 14.8125 25.0354 14.625C24.8478 14.4374 24.5935 14.332 24.3283 14.332C22.9339 14.332 19.7226 14.332 18.3282 14.332C18.063 14.332 17.8086 14.4374 17.6211 14.625C17.4335 14.8125 17.3281 15.067 17.3281 15.3322C17.3281 16.7833 17.3281 20.2143 17.3281 21.6654C17.3281 21.9306 17.4335 22.1851 17.6211 22.3726C17.8086 22.5602 18.063 22.6656 18.3282 22.6656C19.7226 22.6656 22.9339 22.6656 24.3283 22.6656C24.5935 22.6656 24.8478 22.5602 25.0354 22.3726C25.223 22.1851 25.3284 21.9306 25.3284 21.6654V15.3322ZM24.6614 15.3322V21.6654C24.6614 21.7538 24.6263 21.8388 24.5638 21.9012C24.5013 21.9639 24.4167 21.9989 24.3283 21.9989H18.3282C18.2398 21.9989 18.1552 21.9639 18.0927 21.9012C18.0302 21.8388 17.9951 21.7538 17.9951 21.6654V15.3322C17.9951 15.2438 18.0302 15.1588 18.0927 15.0964C18.1552 15.034 18.2398 14.999 18.3282 14.999H24.3283C24.4167 14.999 24.5013 15.034 24.5638 15.0964C24.6263 15.1588 24.6614 15.2438 24.6614 15.3322Z" fill="white"/>
<path fill-rule="evenodd" clip-rule="evenodd" d="M23.3281 14C23.3281 13.7349 23.223 13.4804 23.0353 13.2929C22.8476 13.1053 22.5933 13 22.3281 13C21.7471 13 20.9091 13 20.3281 13C20.063 13 19.8086 13.1053 19.6209 13.2929C19.4333 13.4804 19.3281 13.7349 19.3281 14C19.3281 14.3333 19.3281 14.6667 19.3281 14.6667C19.3281 14.8507 19.4774 15 19.6615 15H22.9948C23.1789 15 23.3281 14.8507 23.3281 14.6667V14ZM22.6615 14V14.3333H19.9948V14C19.9948 13.9116 20.0297 13.8269 20.0922 13.7642C20.1548 13.7018 20.2399 13.6667 20.3281 13.6667H22.3281C22.4163 13.6667 22.5015 13.7018 22.564 13.7642C22.6266 13.8269 22.6615 13.9116 22.6615 14Z" fill="white"/>
<path fill-rule="evenodd" clip-rule="evenodd" d="M20.6641 22.3333C20.6641 22.1493 20.5147 22 20.3307 22H18.9974C18.8134 22 18.6641 22.1493 18.6641 22.3333V23C18.6641 23.2653 18.7694 23.5195 18.9571 23.7072C19.1444 23.8947 19.3987 24 19.6641 24H19.6647C20.2167 24 20.6641 23.5525 20.6641 23.0008V22.3333ZM19.9974 22.6667V23.0008C19.9974 23.1843 19.8484 23.3333 19.6647 23.3333H19.6641C19.5757 23.3333 19.4907 23.2981 19.4284 23.2357C19.3657 23.1731 19.3307 23.0885 19.3307 23V22.6667H19.9974Z" fill="white"/>
<path fill-rule="evenodd" clip-rule="evenodd" d="M24 22.3333C24 22.1493 23.8507 22 23.6667 22H22.3333C22.1493 22 22 22.1493 22 22.3333V23C22 23.2653 22.1053 23.5195 22.293 23.7072C22.4803 23.8947 22.7347 24 23 24H23.0007C23.5527 24 24 23.5525 24 23.0008V22.3333ZM23.3333 22.6667V23.0008C23.3333 23.1843 23.1843 23.3333 23.0007 23.3333H23C22.9117 23.3333 22.8267 23.2981 22.7643 23.2357C22.7017 23.1731 22.6667 23.0885 22.6667 23V22.6667H23.3333Z" fill="white"/>
<path fill-rule="evenodd" clip-rule="evenodd" d="M18.6643 15.9992V21.1658C18.6643 21.3499 18.8136 21.4991 18.9976 21.4991C19.1816 21.4991 19.331 21.3499 19.331 21.1658V15.9992C19.331 15.8151 19.1816 15.6659 18.9976 15.6659C18.8136 15.6659 18.6643 15.8151 18.6643 15.9992Z" fill="white"/>
<path fill-rule="evenodd" clip-rule="evenodd" d="M23.3281 15.9993V21.1659C23.3281 21.35 23.4775 21.4992 23.6615 21.4992C23.8455 21.4992 23.9948 21.35 23.9948 21.1659V15.9993C23.9948 15.8152 23.8455 15.666 23.6615 15.666C23.4775 15.666 23.3281 15.8152 23.3281 15.9993Z" fill="white"/>
<path fill-rule="evenodd" clip-rule="evenodd" d="M19.3307 23.666C19.3307 24.2183 18.883 24.666 18.331 24.666C16.7013 24.666 13.9604 24.666 12.3307 24.666C12.0658 24.666 11.8115 24.5607 11.6238 24.373C11.4361 24.1857 11.331 23.9313 11.331 23.666V12.3327C11.331 12.0673 11.4361 11.813 11.6238 11.6257C11.8115 11.438 12.0658 11.3327 12.3307 11.3327C13.9604 11.3327 16.7013 11.3327 18.331 11.3327C18.5959 11.3327 18.8503 11.438 19.0379 11.6257C19.2256 11.813 19.3307 12.0673 19.3307 12.3327V14.666C19.3307 14.85 19.4803 14.9993 19.6642 14.9993C19.8481 14.9993 19.9976 14.85 19.9976 14.666V12.3327C19.9976 11.8907 19.8221 11.4667 19.5093 11.154C19.1969 10.8417 18.773 10.666 18.331 10.666C16.7013 10.666 13.9604 10.666 12.3307 10.666C11.8887 10.666 11.4648 10.8417 11.1524 11.154C10.8397 11.4667 10.6641 11.8907 10.6641 12.3327C10.6641 15.006 10.6641 20.9927 10.6641 23.666C10.6641 24.108 10.8397 24.532 11.1524 24.8447C11.4648 25.157 11.8887 25.3327 12.3307 25.3327C13.9604 25.3327 16.7013 25.3327 18.331 25.3327C19.2512 25.3327 19.9976 24.5863 19.9976 23.666C19.9976 23.9803 19.6642 23.9993 19.6642 23.9993C19.4803 23.3327 19.3307 23.482 19.3307 23.666ZM19.3314 23.6864C19.3367 23.7944 19.3827 23.8653 19.4392 23.9117C19.3774 23.855 19.3367 23.7754 19.3314 23.6864Z" fill="white"/>
<path fill-rule="evenodd" clip-rule="evenodd" d="M10.9974 12.6667H19.4974C19.6814 12.6667 19.8307 12.5173 19.8307 12.3333C19.8307 12.1493 19.6814 12 19.4974 12H10.9974C10.8134 12 10.6641 12.1493 10.6641 12.3333C10.6641 12.5173 10.8134 12.6667 10.9974 12.6667Z" fill="white"/>
<path fill-rule="evenodd" clip-rule="evenodd" d="M10.9973 23.9987H19.6639C19.8481 23.9987 19.9974 23.8494 19.9974 23.6654C19.9974 23.4814 19.8481 23.332 19.6639 23.332H10.9973C10.8134 23.332 10.6641 23.4814 10.6641 23.6654C10.6641 23.8494 10.8134 23.9987 10.9973 23.9987Z" fill="white"/>
</g>
<defs>
<clipPath id="clip0_6208_7470">
<rect width="16" height="16" fill="white" transform="translate(10 10)"/>
</clipPath>
</defs>
</svg>
