<svg width="36" height="36" viewBox="0 0 36 36" fill="none" xmlns="http://www.w3.org/2000/svg">
<rect width="36" height="36" rx="5" fill="#59C871"/>
<g clip-path="url(#clip0_6208_7533)">
<path d="M16.3677 25.1465L16.2444 25.1317L16.3566 24.1825C16.3901 23.9007 16.3614 23.615 16.2727 23.3455C16.184 23.0759 16.0374 22.8291 15.8432 22.6222L12.5295 19.0857L12.9777 16.8292C13.0024 16.705 13.0018 16.5771 12.976 16.4531C12.9502 16.3291 12.8998 16.2116 12.8276 16.1075C12.7555 16.0034 12.6631 15.9149 12.556 15.8473C12.449 15.7796 12.3294 15.7342 12.2044 15.7137C12.1536 15.7055 12.1023 15.7013 12.0509 15.7012C11.8498 15.7007 11.6538 15.7646 11.4917 15.8837C11.3296 16.0028 11.21 16.1707 11.1504 16.3627L10.2472 19.2426C10.0836 19.7662 10.0958 20.3289 10.2818 20.845L10.9431 22.672C11.1018 23.1102 11.3795 23.4955 11.7451 23.7845L12.1573 24.1103C12.2445 24.1797 12.3171 24.2657 12.3707 24.3634C12.4243 24.4611 12.4579 24.5685 12.4696 24.6794C12.2597 24.6601 12.0505 24.7233 11.8865 24.8557C11.7225 24.9881 11.6165 25.1791 11.591 25.3884L11.5327 25.8741L11.5327 25.8743V25.8745L11.386 27.0968C11.3776 27.1699 11.3985 27.2433 11.4441 27.3011C11.4897 27.3588 11.5563 27.3962 11.6294 27.4049C11.7024 27.4137 11.776 27.3932 11.8339 27.3479C11.8919 27.3025 11.9296 27.2361 11.9387 27.1631L12.0517 26.2209L16.4275 26.7774L16.3182 27.6885C16.3134 27.725 16.3158 27.7621 16.3255 27.7977C16.3351 27.8332 16.3517 27.8665 16.3742 27.8956C16.3968 27.9247 16.4249 27.949 16.457 27.9672C16.489 27.9853 16.5244 27.9969 16.5609 28.0013C16.5975 28.0057 16.6346 28.0028 16.67 27.9927C16.7054 27.9827 16.7385 27.9657 16.7673 27.9428C16.7962 27.9199 16.8201 27.8915 16.8379 27.8592C16.8557 27.8269 16.8669 27.7915 16.8708 27.7549L17.0127 26.5721L17.0129 26.5712L17.0129 26.5701L17.0758 26.0465C17.0884 25.9409 17.0801 25.8339 17.0513 25.7315C17.0226 25.6291 16.9739 25.5334 16.9082 25.4498C16.8424 25.3663 16.7608 25.2964 16.6681 25.2444C16.5754 25.1924 16.4733 25.1591 16.3677 25.1465H16.3677ZM12.0904 23.3479C11.806 23.1231 11.5899 22.8234 11.4664 22.4825L10.8051 20.6555C10.6605 20.2542 10.651 19.8165 10.7782 19.4093L11.6815 16.5294C11.7059 16.4506 11.755 16.3817 11.8215 16.3328C11.888 16.2839 11.9684 16.2577 12.0509 16.2579C12.0722 16.2579 12.0936 16.2596 12.1147 16.2631C12.166 16.2715 12.215 16.2902 12.2589 16.3179C12.3028 16.3457 12.3407 16.3821 12.3703 16.4248C12.3999 16.4675 12.4206 16.5157 12.4311 16.5666C12.4417 16.6175 12.4419 16.67 12.4318 16.7209L11.9792 18.999C11.7315 19.1697 11.5554 19.4256 11.4845 19.7179C11.4136 20.0103 11.453 20.3185 11.595 20.5836L12.3836 22.0587C12.4184 22.1238 12.4776 22.1724 12.5483 22.1938C12.5833 22.2044 12.62 22.208 12.6564 22.2045C12.6927 22.2009 12.7281 22.1901 12.7603 22.1729C12.7925 22.1557 12.821 22.1323 12.8442 22.104C12.8674 22.0757 12.8848 22.0432 12.8954 22.0082C12.906 21.9732 12.9096 21.9365 12.906 21.9001C12.9025 21.8638 12.8917 21.8285 12.8745 21.7962L12.0859 20.321C12.0338 20.2245 12.0065 20.1166 12.0067 20.007C12.0065 19.8336 12.0738 19.6668 12.1943 19.542L15.437 23.0028C15.5757 23.1506 15.6804 23.3269 15.7438 23.5194C15.8072 23.7119 15.8277 23.916 15.8038 24.1173L15.6918 25.0654L13.0304 24.7461C13.0272 24.5394 12.9782 24.336 12.8869 24.1506C12.7956 23.9651 12.6643 23.8023 12.5025 23.6737L12.0904 23.3479ZM16.5231 25.9802L16.4938 26.2246L12.118 25.6681L12.1436 25.4547C12.1519 25.3881 12.1862 25.3275 12.2391 25.2862C12.2919 25.2448 12.359 25.2261 12.4256 25.2341L12.7092 25.2682H12.7094L16.3013 25.6992C16.368 25.707 16.4288 25.741 16.4704 25.7937C16.512 25.8464 16.531 25.9135 16.5231 25.9802ZM20.3507 17.2804C21.1221 16.1868 21.5297 14.9379 21.5297 13.6685V10.7419C21.5297 10.6754 21.5059 10.6112 21.4626 10.5607C21.4193 10.5102 21.3594 10.4769 21.2937 10.4668C20.5845 10.3584 19.8911 10.1647 19.2283 9.88993C18.6872 9.66583 18.1717 9.38428 17.6907 9.05011C17.6426 9.01652 17.5852 8.999 17.5265 9.00004C17.4678 9.00109 17.411 9.02065 17.3641 9.05594C17.0114 9.32051 16.6349 9.55176 16.2394 9.74669C15.4469 10.134 14.5954 10.3867 13.7199 10.4945C13.6528 10.5031 13.5911 10.5359 13.5464 10.5867C13.5016 10.6376 13.477 10.7029 13.477 10.7706V13.6686C13.477 14.9379 13.8846 16.1868 14.6559 17.2804C15.3242 18.2278 16.2622 19.0523 17.3685 19.6649C17.4098 19.6878 17.4562 19.6998 17.5033 19.6998C17.5505 19.6998 17.5969 19.6878 17.6382 19.6649C18.7445 19.0523 19.6825 18.2278 20.3507 17.2804ZM17.5033 19.1017C16.5288 18.5384 15.7038 17.8002 15.1108 16.9595C14.4061 15.9604 14.0336 14.8224 14.0336 13.6686V11.0123C14.8854 10.8833 15.7124 10.6248 16.486 10.2457C16.8525 10.0649 17.204 9.85529 17.5373 9.61885C18.0036 9.92689 18.4983 10.1898 19.0146 10.4039C19.6447 10.6653 20.3014 10.8577 20.9731 10.9776V13.6686C20.9731 14.8224 20.6006 15.9604 19.8959 16.9595C19.3029 17.8002 18.4779 18.5384 17.5033 19.1017ZM20.4164 11.6521C20.4164 11.59 20.3957 11.5297 20.3575 11.4808C20.3193 11.4318 20.2658 11.3971 20.2056 11.382C19.7264 11.2624 19.2568 11.1072 18.8007 10.9178C18.4193 10.7592 18.0487 10.5759 17.6912 10.3691C17.6478 10.3439 17.5983 10.3309 17.5481 10.3315C17.4979 10.3322 17.4487 10.3464 17.4059 10.3727C17.1873 10.5069 16.9626 10.6311 16.7326 10.7448C16.1189 11.0466 15.4723 11.2764 14.8058 11.4297C14.7445 11.4439 14.6899 11.4785 14.6507 11.5277C14.6116 11.5769 14.5903 11.638 14.5903 11.7009V13.6686C14.5903 14.7069 14.9275 15.7339 15.5657 16.6386C16.025 17.2898 16.6248 17.8656 17.3485 18.3499C17.3943 18.3806 17.4482 18.397 17.5033 18.397C17.5585 18.397 17.6124 18.3806 17.6582 18.3499C18.3819 17.8656 18.9817 17.2898 19.441 16.6386C20.0791 15.7339 20.4164 14.7069 20.4164 13.6686V11.6521ZM19.8598 13.6686C19.8598 14.5914 19.5577 15.5074 18.9861 16.3178C18.5774 16.8852 18.0762 17.3797 17.5033 17.7806C16.9305 17.3797 16.4292 16.8851 16.0206 16.3177C15.449 15.5074 15.1469 14.5914 15.1469 13.6685V11.9196C15.7795 11.7586 16.3936 11.5321 16.9792 11.2438C17.1751 11.147 17.3674 11.0431 17.5556 10.9322C17.8896 11.1181 18.2339 11.2849 18.5868 11.4317C19.0014 11.6039 19.4266 11.7494 19.8598 11.8671V13.6686ZM24.7596 19.2428L23.8563 16.3626C23.784 16.132 23.626 15.938 23.4149 15.8204C23.2038 15.7027 22.9557 15.6705 22.7215 15.7303C22.4874 15.7901 22.2851 15.9374 22.1562 16.1419C22.0274 16.3463 21.9818 16.5924 22.0289 16.8294L22.4772 19.0857L19.1635 22.6222C18.9693 22.8291 18.8227 23.076 18.734 23.3455C18.6453 23.6151 18.6166 23.9008 18.6501 24.1826L18.7622 25.1317L18.639 25.1465C18.5335 25.1591 18.4314 25.1924 18.3386 25.2444C18.2459 25.2964 18.1643 25.3662 18.0986 25.4498C18.0328 25.5334 17.9842 25.6291 17.9554 25.7315C17.9266 25.8338 17.9183 25.9409 17.9309 26.0465L17.9937 26.5702L17.9938 26.5712L17.994 26.5721L18.1359 27.7549C18.1401 27.7912 18.1515 27.8264 18.1694 27.8583C18.1873 27.8903 18.2113 27.9184 18.2401 27.9411C18.2688 27.9637 18.3018 27.9805 18.337 27.9904C18.3723 28.0003 18.4091 28.0031 18.4455 27.9988C18.4818 27.9944 18.517 27.9829 18.5489 27.9649C18.5808 27.947 18.6088 27.9229 18.6314 27.8941C18.654 27.8653 18.6706 27.8323 18.6804 27.797C18.6903 27.7617 18.693 27.7249 18.6885 27.6885L18.5792 26.7774L22.955 26.2208L23.068 27.1631C23.0771 27.2361 23.1148 27.3025 23.1728 27.3479C23.2307 27.3932 23.3043 27.4137 23.3773 27.4049C23.4504 27.3962 23.517 27.3588 23.5626 27.3011C23.6082 27.2433 23.6291 27.1699 23.6207 27.0968L23.474 25.8745V25.8743L23.474 25.8741L23.4157 25.3884C23.3901 25.1792 23.2841 24.9882 23.1201 24.8558C22.9561 24.7234 22.747 24.6602 22.5371 24.6794C22.5488 24.5685 22.5824 24.4611 22.636 24.3635C22.6896 24.2658 22.7621 24.1797 22.8493 24.1104L23.2617 23.7844C23.6273 23.4954 23.905 23.1101 24.0637 22.672L24.7249 20.8451C24.9109 20.3291 24.9231 19.7664 24.7596 19.2428ZM22.5811 25.2341C22.6477 25.2261 22.7147 25.2449 22.7676 25.2862C22.8204 25.3275 22.8548 25.3881 22.8631 25.4547L22.8887 25.6681L18.5129 26.2246L18.4836 25.9802C18.4757 25.9135 18.4947 25.8464 18.5363 25.7937C18.5779 25.741 18.6387 25.707 18.7054 25.6992L22.2973 25.2682H22.2975L22.5811 25.2341ZM24.2015 20.6556L23.5402 22.4824C23.4168 22.8233 23.2008 23.1229 22.9165 23.3478L22.5042 23.6737C22.3424 23.8023 22.2111 23.9652 22.1198 24.1506C22.0285 24.336 21.9795 24.5394 21.9763 24.7461L19.3149 25.0654L19.2028 24.1174C19.179 23.9161 19.1995 23.712 19.2629 23.5195C19.3262 23.3269 19.431 23.1506 19.5697 23.0028L22.8124 19.542C22.933 19.6668 23.0002 19.8335 23 20.007C23.0001 20.1167 22.9729 20.2246 22.9208 20.3211L22.1322 21.7962C22.115 21.8285 22.1042 21.8638 22.1007 21.9001C22.0971 21.9365 22.1007 21.9732 22.1113 22.0082C22.1219 22.0432 22.1393 22.0757 22.1625 22.104C22.1857 22.1322 22.2142 22.1557 22.2464 22.1729C22.2787 22.1901 22.314 22.2008 22.3503 22.2044C22.3867 22.208 22.4234 22.2044 22.4584 22.1938C22.4934 22.1832 22.5259 22.1658 22.5542 22.1426C22.5825 22.1194 22.6059 22.0909 22.6231 22.0587L23.4116 20.5837C23.5537 20.3186 23.5931 20.0104 23.5222 19.718C23.4514 19.4257 23.2752 19.1697 23.0275 18.999L22.575 16.7211C22.5648 16.6702 22.565 16.6178 22.5755 16.5669C22.586 16.5161 22.6067 16.4679 22.6361 16.4252C22.6656 16.3825 22.7034 16.3462 22.7472 16.3184C22.791 16.2905 22.84 16.2718 22.8911 16.2632C22.9125 16.2597 22.9342 16.2579 22.9558 16.2579C23.0383 16.2577 23.1187 16.2839 23.1852 16.3328C23.2517 16.3816 23.3008 16.4505 23.3252 16.5293L24.2285 19.4096C24.3557 19.8167 24.3462 20.2543 24.2015 20.6556Z" fill="white"/>
</g>
<defs>
<clipPath id="clip0_6208_7533">
<rect width="19" height="19" fill="white" transform="translate(8 9)"/>
</clipPath>
</defs>
</svg>
