<svg width="36" height="36" viewBox="0 0 36 36" fill="none" xmlns="http://www.w3.org/2000/svg">
<rect width="36" height="36" rx="5" fill="#59C871"/>
<path fill-rule="evenodd" clip-rule="evenodd" d="M9.9 13.6C9.9 12.6452 10.2793 11.7295 10.9544 11.0544C11.6295 10.3793 12.5452 10 13.5 10H22.5C23.4548 10 24.3705 10.3793 25.0456 11.0544C25.7207 11.7295 26.1 12.6452 26.1 13.6C26.3387 13.6 26.5676 13.6948 26.7364 13.8636C26.9052 14.0324 27 14.2613 27 14.5V17.2C27 17.4387 26.9052 17.6676 26.7364 17.8364C26.5676 18.0052 26.3387 18.1 26.1 18.1V23.5C26.1 23.9774 25.9104 24.4352 25.5728 24.7728C25.2352 25.1104 24.7774 25.3 24.3 25.3V27.1C24.3 27.3387 24.2052 27.5676 24.0364 27.7364C23.8676 27.9052 23.6387 28 23.4 28C23.1613 28 22.9324 27.9052 22.7636 27.7364C22.5948 27.5676 22.5 27.3387 22.5 27.1V25.3H13.5V27.1C13.5 27.3387 13.4052 27.5676 13.2364 27.7364C13.0676 27.9052 12.8387 28 12.6 28C12.3613 28 12.1324 27.9052 11.9636 27.7364C11.7948 27.5676 11.7 27.3387 11.7 27.1V25.3C11.2226 25.3 10.7648 25.1104 10.4272 24.7728C10.0896 24.4352 9.9 23.9774 9.9 23.5V18.1C9.66131 18.1 9.43239 18.0052 9.2636 17.8364C9.09482 17.6676 9 17.4387 9 17.2V14.5C9 14.2613 9.09482 14.0324 9.2636 13.8636C9.43239 13.6948 9.66131 13.6 9.9 13.6ZM11.7 13.6C11.7 13.1226 11.8896 12.6648 12.2272 12.3272C12.5648 11.9896 13.0226 11.8 13.5 11.8H22.5C22.9774 11.8 23.4352 11.9896 23.7728 12.3272C24.1104 12.6648 24.3 13.1226 24.3 13.6V22.6C24.3 22.8387 24.2052 23.0676 24.0364 23.2364C23.8676 23.4052 23.6387 23.5 23.4 23.5H12.6C12.3613 23.5 12.1324 23.4052 11.9636 23.2364C11.7948 23.0676 11.7 22.8387 11.7 22.6V13.6ZM14.4 13.6C14.1613 13.6 13.9324 13.6948 13.7636 13.8636C13.5948 14.0324 13.5 14.2613 13.5 14.5V17.2C13.5 17.4387 13.5948 17.6676 13.7636 17.8364C13.9324 18.0052 14.1613 18.1 14.4 18.1H21.6C21.8387 18.1 22.0676 18.0052 22.2364 17.8364C22.4052 17.6676 22.5 17.4387 22.5 17.2V14.5C22.5 14.2613 22.4052 14.0324 22.2364 13.8636C22.0676 13.6948 21.8387 13.6 21.6 13.6H14.4ZM14.4 21.7C14.6387 21.7 14.8676 21.6052 15.0364 21.4364C15.2052 21.2676 15.3 21.0387 15.3 20.8C15.3 20.5613 15.2052 20.3324 15.0364 20.1636C14.8676 19.9948 14.6387 19.9 14.4 19.9C14.1613 19.9 13.9324 19.9948 13.7636 20.1636C13.5948 20.3324 13.5 20.5613 13.5 20.8C13.5 21.0387 13.5948 21.2676 13.7636 21.4364C13.9324 21.6052 14.1613 21.7 14.4 21.7ZM22.5 20.8C22.5 21.0387 22.4052 21.2676 22.2364 21.4364C22.0676 21.6052 21.8387 21.7 21.6 21.7C21.3613 21.7 21.1324 21.6052 20.9636 21.4364C20.7948 21.2676 20.7 21.0387 20.7 20.8C20.7 20.5613 20.7948 20.3324 20.9636 20.1636C21.1324 19.9948 21.3613 19.9 21.6 19.9C21.8387 19.9 22.0676 19.9948 22.2364 20.1636C22.4052 20.3324 22.5 20.5613 22.5 20.8Z" fill="white"/>
</svg>
