<svg width="29" height="30" viewBox="0 0 29 30" fill="none" xmlns="http://www.w3.org/2000/svg">
<path fill-rule="evenodd" clip-rule="evenodd" d="M7.44036 6.65884H21.7575V12.6243H19.3713V10.8347C19.3713 10.36 19.1828 9.90483 18.8472 9.56921C18.5115 9.23358 18.0563 9.04503 17.5817 9.04503C17.107 9.04503 16.6518 9.23358 16.3162 9.56921C15.9806 9.90483 15.792 10.36 15.792 10.8347V12.6243H13.4058V10.8347C13.4058 10.36 13.2173 9.90483 12.8817 9.56921C12.546 9.23358 12.0908 9.04503 11.6162 9.04503C11.1416 9.04503 10.6863 9.23358 10.3507 9.56921C10.0151 9.90483 9.82655 10.36 9.82655 10.8347V12.6243H7.44036V6.65884ZM5.05416 12.6243V6.65884C5.05416 6.02598 5.30556 5.41904 5.75306 4.97154C6.20056 4.52405 6.8075 4.27264 7.44036 4.27264H21.7575C22.3904 4.27264 22.9973 4.52405 23.4448 4.97154C23.8923 5.41904 24.1437 6.02598 24.1437 6.65884V12.6243C24.7766 12.6243 25.3835 12.8757 25.831 13.3232C26.2785 13.7707 26.5299 14.3777 26.5299 15.0105V23.3622H24.1437V25.7484H21.7575V23.3622H7.44036V25.7484H5.05416V23.3622H2.66797V15.0105C2.66797 14.3777 2.91937 13.7707 3.36687 13.3232C3.81437 12.8757 4.4213 12.6243 5.05416 12.6243ZM24.1437 15.0105H5.05416V20.976H24.1437V15.0105Z" fill="#4A4A4A"/>
</svg>
