<svg width="23" height="23" viewBox="0 0 23 23" fill="none" xmlns="http://www.w3.org/2000/svg">
<path fill-rule="evenodd" clip-rule="evenodd" d="M18.2109 1.4375C18.7399 1.4375 19.1693 1.86683 19.1693 2.39583V4.3125H19.6484C20.4419 4.3125 21.0859 4.9565 21.0859 5.75V20.125C21.0859 20.9185 20.4419 21.5625 19.6484 21.5625H3.35677C2.56327 21.5625 1.91927 20.9185 1.91927 20.125V5.75C1.91927 4.9565 2.56327 4.3125 3.35677 4.3125H4.3151V2.39583C4.3151 1.86683 4.74444 1.4375 5.27344 1.4375H6.23177C6.76077 1.4375 7.1901 1.86683 7.1901 2.39583V4.3125H10.0651V2.39583C10.0651 1.86683 10.4944 1.4375 11.0234 1.4375H11.9818C12.5108 1.4375 12.9401 1.86683 12.9401 2.39583V4.3125H16.2943V2.39583C16.2943 1.86683 16.7236 1.4375 17.2526 1.4375H18.2109ZM19.6484 5.27083H3.35677C3.09227 5.27083 2.8776 5.4855 2.8776 5.75V7.1875H20.1276V5.75C20.1276 5.4855 19.9129 5.27083 19.6484 5.27083ZM20.1276 8.14583H2.8776V20.125C2.8776 20.3895 3.09227 20.6042 3.35677 20.6042H19.6484C19.9129 20.6042 20.1276 20.3895 20.1276 20.125V8.14583ZM16.783 10.0625C16.9086 10.0649 17.0307 10.1176 17.1199 10.2115C17.2392 10.3361 17.2814 10.5144 17.232 10.6792L15.8132 15.41C15.7734 16.1671 15.1457 16.7708 14.3776 16.7708H11.6487L12.0771 18.0569C12.1255 18.2031 12.1011 18.3641 12.011 18.4891C11.9209 18.6137 11.7762 18.6875 11.6224 18.6875H9.70573C9.49969 18.6875 9.31617 18.5557 9.251 18.3598L8.72104 16.7708H7.1901C6.3966 16.7708 5.7526 16.1268 5.7526 15.3333C5.7526 14.5398 6.3966 13.8958 7.1901 13.8958H8.76129L9.37079 12.0673C9.43596 11.8714 9.61948 11.7396 9.82552 11.7396H11.7422C11.896 11.7396 12.0407 11.8134 12.1308 11.938C12.2209 12.063 12.2453 12.224 12.1969 12.3702L11.689 13.8958H13.104L14.4159 10.8316C14.4749 10.694 14.5956 10.592 14.7408 10.5556L16.6575 10.0764C16.6992 10.0663 16.7409 10.0615 16.783 10.0625Z" fill="#4A4A4A"/>
</svg>
