<svg width="23" height="23" viewBox="0 0 23 23" fill="none" xmlns="http://www.w3.org/2000/svg">
<path fill-rule="evenodd" clip-rule="evenodd" d="M4.78906 1.4375C4.26006 1.4375 3.83073 1.86683 3.83073 2.39583V4.3125H3.35156C2.55806 4.3125 1.91406 4.9565 1.91406 5.75V20.125C1.91406 20.9185 2.55806 21.5625 3.35156 21.5625H19.6432C20.4367 21.5625 21.0807 20.9185 21.0807 20.125V5.75C21.0807 4.9565 20.4367 4.3125 19.6432 4.3125H18.6849V2.39583C18.6849 1.86683 18.2556 1.4375 17.7266 1.4375H16.7682C16.2392 1.4375 15.8099 1.86683 15.8099 2.39583V4.3125H12.9349V2.39583C12.9349 1.86683 12.5056 1.4375 11.9766 1.4375H11.0182C10.4892 1.4375 10.0599 1.86683 10.0599 2.39583V4.3125H6.70573V2.39583C6.70573 1.86683 6.2764 1.4375 5.7474 1.4375H4.78906ZM3.35156 5.27083H19.6432C19.9077 5.27083 20.1224 5.4855 20.1224 5.75V7.1875H2.8724V5.75C2.8724 5.4855 3.08706 5.27083 3.35156 5.27083ZM2.8724 8.14583H20.1224V20.125C20.1224 20.3895 19.9077 20.6042 19.6432 20.6042H3.35156C3.08706 20.6042 2.8724 20.3895 2.8724 20.125V8.14583ZM6.21698 10.0625C6.09144 10.0649 5.96925 10.1176 5.88013 10.2115C5.76081 10.3361 5.71865 10.5144 5.768 10.6792L7.18681 15.41C7.22658 16.1671 7.85429 16.7708 8.6224 16.7708H11.3513L10.9229 18.0569C10.8745 18.2031 10.8989 18.3641 10.989 18.4891C11.0791 18.6137 11.2238 18.6875 11.3776 18.6875H13.2943C13.5003 18.6875 13.6838 18.5557 13.749 18.3598L14.279 16.7708H15.8099C16.6034 16.7708 17.2474 16.1268 17.2474 15.3333C17.2474 14.5398 16.6034 13.8958 15.8099 13.8958H14.2387L13.6292 12.0673C13.564 11.8714 13.3805 11.7396 13.1745 11.7396H11.2578C11.104 11.7396 10.9593 11.8134 10.8692 11.938C10.7791 12.063 10.7547 12.224 10.8031 12.3702L11.311 13.8958H9.89602L8.58406 10.8316C8.52513 10.694 8.40438 10.592 8.25919 10.5556L6.34252 10.0764C6.30083 10.0663 6.25915 10.0615 6.21698 10.0625Z" fill="#4A4A4A"/>
</svg>
