<svg width="14" height="15" viewBox="0 0 14 15" fill="none" xmlns="http://www.w3.org/2000/svg">
<path fill-rule="evenodd" clip-rule="evenodd" d="M5.78125 1.25C5.78125 0.645938 6.27094 0.15625 6.875 0.15625H12.5C13.1041 0.15625 13.5938 0.645938 13.5938 1.25V13.75C13.5938 14.3541 13.1041 14.8438 12.5 14.8438H6.875C6.27094 14.8438 5.78125 14.3541 5.78125 13.75V13.4375C5.78125 13.1786 5.99112 12.9688 6.25 12.9688C6.50888 12.9688 6.71875 13.1786 6.71875 13.4375V13.75C6.71875 13.8363 6.78869 13.9062 6.875 13.9062H12.5C12.5863 13.9062 12.6562 13.8363 12.6562 13.75V1.25C12.6562 1.16371 12.5863 1.09375 12.5 1.09375H6.875C6.78869 1.09375 6.71875 1.16371 6.71875 1.25V2.34375C6.71875 2.60263 6.50888 2.8125 6.25 2.8125C5.99112 2.8125 5.78125 2.60263 5.78125 2.34375V1.25Z" fill="#A8A8A8"/>
<path fill-rule="evenodd" clip-rule="evenodd" d="M2.8125 2.03125C2.20844 2.03125 1.71875 2.52094 1.71875 3.125C1.71875 3.72906 2.20844 4.21875 2.8125 4.21875C3.41656 4.21875 3.90625 3.72906 3.90625 3.125C3.90625 2.52094 3.41656 2.03125 2.8125 2.03125ZM0.78125 3.125C0.78125 2.00317 1.69067 1.09375 2.8125 1.09375C3.93433 1.09375 4.84375 2.00317 4.84375 3.125C4.84375 4.24683 3.93433 5.15625 2.8125 5.15625C1.69067 5.15625 0.78125 4.24683 0.78125 3.125Z" fill="#A8A8A8"/>
<path fill-rule="evenodd" clip-rule="evenodd" d="M0.15625 6.5625C0.15625 5.95844 0.645938 5.46875 1.25 5.46875H4.375C4.97906 5.46875 5.46875 5.95844 5.46875 6.5625V9.60381C5.46875 10.0815 5.15869 10.504 4.70294 10.6473L4.38497 10.7471C4.31986 10.7676 4.27557 10.8279 4.27557 10.8962V14.375C4.27557 14.6339 4.0657 14.8438 3.80682 14.8438H1.81818C1.5593 14.8438 1.34943 14.6339 1.34943 14.375V10.8962C1.34943 10.8279 1.30514 10.7676 1.24003 10.7471L0.922062 10.6473C0.466311 10.504 0.15625 10.0815 0.15625 9.60381V6.5625ZM1.25 6.40625C1.16371 6.40625 1.09375 6.47619 1.09375 6.5625V9.60381C1.09375 9.67206 1.13804 9.73238 1.20315 9.75287L1.52112 9.85281C1.97687 9.996 2.28693 10.4185 2.28693 10.8962V13.9062H3.33807V10.8962C3.33807 10.4185 3.64813 9.996 4.10388 9.85281L4.42185 9.75287C4.48696 9.73238 4.53125 9.67206 4.53125 9.60381V6.5625C4.53125 6.47619 4.46129 6.40625 4.375 6.40625H1.25Z" fill="#A8A8A8"/>
<path fill-rule="evenodd" clip-rule="evenodd" d="M9.255 5.94318C9.42444 5.74746 9.7205 5.72617 9.91619 5.89562L11.5568 7.31606C11.6603 7.40563 11.7194 7.53594 11.7188 7.67281C11.7181 7.80963 11.6576 7.93938 11.5533 8.02788L9.91262 9.41994C9.71525 9.58744 9.41944 9.56319 9.25194 9.36575C9.08444 9.16838 9.10869 8.87256 9.30613 8.70506L9.973 8.13919H6.875C6.61612 8.13919 6.40625 7.92938 6.40625 7.67044C6.40625 7.41156 6.61612 7.20169 6.875 7.20169H9.99244L9.30256 6.60438C9.10681 6.43494 9.08556 6.13891 9.255 5.94318Z" fill="#A8A8A8"/>
</svg>
