<svg width="20" height="25" viewBox="0 0 20 25" fill="none" xmlns="http://www.w3.org/2000/svg">
<path fill-rule="evenodd" clip-rule="evenodd" d="M16.7034 9.93149C16.7034 13.2042 14.8099 16.2167 12.58 18.5862C11.6521 19.5664 10.6488 20.4723 9.57938 21.2957L9.54478 21.3232L9.51018 21.2957C8.44079 20.4727 7.4375 19.5671 6.50954 18.5874C4.27964 16.2155 2.38619 13.203 2.38619 9.93149C2.38619 8.03292 3.1404 6.21211 4.48289 4.86961C5.82539 3.52712 7.6462 2.77291 9.54478 2.77291C11.4433 2.77291 13.2642 3.52712 14.6067 4.86961C15.9492 6.21211 16.7034 8.03292 16.7034 9.93149ZM19.0896 9.93149C19.0896 18.2832 9.54478 24.2487 9.54478 24.2487C9.54478 24.2487 0 18.2832 0 9.93149C0 7.40006 1.00561 4.97231 2.7956 3.18232C4.58559 1.39233 7.01334 0.386719 9.54478 0.386719C12.0762 0.386719 14.504 1.39233 16.294 3.18232C18.0839 4.97231 19.0896 7.40006 19.0896 9.93149ZM9.54478 13.5108C10.4941 13.5108 11.4045 13.1337 12.0757 12.4624C12.747 11.7912 13.1241 10.8808 13.1241 9.93149C13.1241 8.98221 12.747 8.0718 12.0757 7.40055C11.4045 6.72931 10.4941 6.3522 9.54478 6.3522C8.59549 6.3522 7.68508 6.72931 7.01383 7.40055C6.34259 8.0718 5.96549 8.98221 5.96549 9.93149C5.96549 10.8808 6.34259 11.7912 7.01383 12.4624C7.68508 13.1337 8.59549 13.5108 9.54478 13.5108Z" fill="#4A4A4A"/>
</svg>
