<svg width="24" height="24" viewBox="0 0 24 24" fill="none" xmlns="http://www.w3.org/2000/svg">
<path fill-rule="evenodd" clip-rule="evenodd" d="M6.08599 4.78126C5.8818 4.80196 5.67573 4.76964 5.48769 4.68742C5.29965 4.6052 5.13599 4.47586 5.01254 4.31191C4.88909 4.14796 4.81002 3.95494 4.78297 3.75149C4.75593 3.54805 4.78181 3.34107 4.85813 3.15056C4.93445 2.96005 5.05863 2.79245 5.21865 2.66395C5.37868 2.53545 5.56915 2.45041 5.77165 2.41703C5.97415 2.38366 6.18183 2.40308 6.37463 2.47343C6.56743 2.54378 6.73882 2.66267 6.87224 2.81862C7.29929 2.13655 7.85923 1.5474 8.51871 1.08624C8.18771 0.745249 7.79211 0.473586 7.35501 0.287101C6.9179 0.100615 6.44803 0.00304096 5.97282 6.99549e-05C5.4976 -0.00290106 5.02655 0.0887908 4.58715 0.269796C4.14774 0.450802 3.74878 0.717497 3.41354 1.05432C3.0783 1.39115 2.81349 1.79136 2.63455 2.23162C2.45562 2.67187 2.36615 3.14335 2.37136 3.61854C2.37658 4.09374 2.47636 4.56314 2.66491 4.99936C2.85345 5.43559 3.12698 5.8299 3.46953 6.15929C2.47025 6.44327 1.59085 7.04541 0.964715 7.87436C0.338584 8.70332 -0.000112305 9.71386 2.79334e-08 10.7527V16.7182H2.38619V10.7527C2.38619 10.1199 2.6376 9.51292 3.08509 9.06542C3.53259 8.61792 4.13953 8.36652 4.77239 8.36652H6.46181C5.97148 7.23835 5.84026 5.98659 6.08599 4.78126ZM17.8965 5.98032C17.8965 6.82862 17.7199 7.63634 17.4001 8.36652H19.0896C19.7224 8.36652 20.3293 8.61792 20.7768 9.06542C21.2243 9.51292 21.4757 10.1199 21.4757 10.7527V16.7182H23.8619V10.7527C23.8619 8.56934 22.3944 6.7272 20.3912 6.15929C20.7286 5.8287 20.9973 5.4346 21.1817 4.99969C21.3661 4.56479 21.4625 4.09769 21.4655 3.62532C21.4685 3.15296 21.378 2.68467 21.1992 2.24746C21.0203 1.81024 20.7567 1.41276 20.4235 1.07791C20.0903 0.743066 19.6941 0.477485 19.2578 0.296481C18.8215 0.115477 18.3537 0.0226299 17.8813 0.0232933C17.4089 0.0239566 16.9413 0.118117 16.5055 0.300346C16.0697 0.482574 15.6743 0.749267 15.342 1.08505C16.0018 1.54678 16.5626 2.13497 16.9909 2.81862C17.1243 2.66267 17.2957 2.54378 17.4885 2.47343C17.6813 2.40308 17.889 2.38366 18.0915 2.41703C18.294 2.45041 18.4845 2.53545 18.6445 2.66395C18.8045 2.79245 18.9287 2.96005 19.005 3.15056C19.0813 3.34107 19.1072 3.54805 19.0802 3.75149C19.0531 3.95494 18.974 4.14796 18.8506 4.31191C18.7271 4.47586 18.5635 4.6052 18.3754 4.68742C18.1874 4.76964 17.9813 4.80196 17.7771 4.78126C17.8547 5.16902 17.8965 5.56871 17.8965 5.98032ZM13.1241 5.98032C13.1241 6.29675 12.9984 6.60022 12.7746 6.82397C12.5509 7.04772 12.2474 7.17342 11.931 7.17342C11.6145 7.17342 11.3111 7.04772 11.0873 6.82397C10.8636 6.60022 10.7379 6.29675 10.7379 5.98032C10.7379 5.6639 10.8636 5.36043 11.0873 5.13668C11.3111 4.91293 11.6145 4.78723 11.931 4.78723C12.2474 4.78723 12.5509 4.91293 12.7746 5.13668C12.9984 5.36043 13.1241 5.6639 13.1241 5.98032ZM14.4257 8.54548C14.9363 8.04898 15.2871 7.41145 15.4334 6.71446C15.5796 6.01746 15.5146 5.29269 15.2467 4.63284C14.9787 3.97299 14.5201 3.40807 13.9293 3.01034C13.3385 2.61262 12.6425 2.40017 11.9304 2.40017C11.2182 2.40017 10.5222 2.61262 9.93145 3.01034C9.34069 3.40807 8.882 3.97299 8.61406 4.63284C8.34612 5.29269 8.28112 6.01746 8.42736 6.71446C8.57361 7.41145 8.92445 8.04898 9.43501 8.54548C8.43573 8.82947 7.55633 9.4316 6.9302 10.2606C6.30407 11.0895 5.96537 12.1001 5.96549 13.1389V19.1044H8.35168V23.8768H15.5103V19.1044H17.8965V13.1389C17.8965 10.9555 16.4289 9.1134 14.4257 8.54548ZM15.5103 13.1389V16.7182H13.1241V21.4906H10.7379V16.7182H8.35168V13.1389C8.35168 12.506 8.60308 11.8991 9.05058 11.4516C9.49808 11.0041 10.105 10.7527 10.7379 10.7527H13.1241C13.7569 10.7527 14.3639 11.0041 14.8114 11.4516C15.2589 11.8991 15.5103 12.506 15.5103 13.1389Z" fill="#4A4A4A"/>
</svg>
