<svg width="17" height="16" viewBox="0 0 17 16" fill="none" xmlns="http://www.w3.org/2000/svg">
<g clip-path="url(#clip0_7412_141)">
<path d="M16.0556 0H6.2778C6.03214 0 5.83334 0.198792 5.83334 0.444458C5.83334 0.690125 6.03214 0.888917 6.2778 0.888917H14.9827L0.630219 15.2413C0.456594 15.415 0.456594 15.6962 0.630219 15.8698C0.71701 15.9566 0.83076 16 0.944469 16C1.05818 16 1.17189 15.9566 1.25872 15.8698L15.6111 1.51737V10.2222C15.6111 10.4679 15.8099 10.6667 16.0556 10.6667C16.3013 10.6667 16.5001 10.4679 16.5001 10.2222V0.444458C16.5 0.198792 16.3012 0 16.0556 0Z" fill="white"/>
</g>
<defs>
<clipPath id="clip0_7412_141">
<rect width="16" height="16" fill="white" transform="translate(0.5)"/>
</clipPath>
</defs>
</svg>
