<svg width="89" height="16" viewBox="0 0 89 16" fill="none" xmlns="http://www.w3.org/2000/svg">
<g clip-path="url(#clip0_2_4908)">
<g clip-path="url(#clip1_2_4908)">
<g clip-path="url(#clip2_2_4908)">
<path d="M8.1875 0L10.6596 5.26687L16.1875 6.11146L12.1875 10.2111L13.1318 16L8.1875 13.2669L3.24323 16L4.1875 10.2111L0.1875 6.11146L5.71536 5.26687L8.1875 0Z" fill="#FFBF2B"/>
</g>
</g>
</g>
<g clip-path="url(#clip3_2_4908)">
<g clip-path="url(#clip4_2_4908)">
<g clip-path="url(#clip5_2_4908)">
<path d="M26.1875 0L28.6596 5.26687L34.1875 6.11146L30.1875 10.2111L31.1318 16L26.1875 13.2669L21.2432 16L22.1875 10.2111L18.1875 6.11146L23.7154 5.26687L26.1875 0Z" fill="#FFBF2B"/>
</g>
</g>
</g>
<g clip-path="url(#clip6_2_4908)">
<g clip-path="url(#clip7_2_4908)">
<g clip-path="url(#clip8_2_4908)">
<path d="M44.1875 0L46.6596 5.26687L52.1875 6.11146L48.1875 10.2111L49.1318 16L44.1875 13.2669L39.2432 16L40.1875 10.2111L36.1875 6.11146L41.7154 5.26687L44.1875 0Z" fill="#FFBF2B"/>
</g>
</g>
</g>
<g clip-path="url(#clip9_2_4908)">
<g clip-path="url(#clip10_2_4908)">
<g clip-path="url(#clip11_2_4908)">
<path d="M62.1875 0L64.6596 5.26687L70.1875 6.11146L66.1875 10.2111L67.1318 16L62.1875 13.2669L57.2432 16L58.1875 10.2111L54.1875 6.11146L59.7154 5.26687L62.1875 0Z" fill="#FFBF2B"/>
</g>
</g>
</g>
<g clip-path="url(#clip12_2_4908)">
<g clip-path="url(#clip13_2_4908)">
<g clip-path="url(#clip14_2_4908)">
<path d="M80.1875 0L82.6596 5.26687L88.1875 6.11146L84.1875 10.2111L85.1318 16L80.1875 13.2669L75.2432 16L76.1875 10.2111L72.1875 6.11146L77.7154 5.26687L80.1875 0Z" fill="#FFBF2B"/>
</g>
</g>
</g>
<defs>
<clipPath id="clip0_2_4908">
<rect width="16" height="16" fill="white" transform="translate(0.1875)"/>
</clipPath>
<clipPath id="clip1_2_4908">
<rect width="16" height="16" fill="white" transform="translate(0.1875)"/>
</clipPath>
<clipPath id="clip2_2_4908">
<rect width="16" height="16" fill="white" transform="translate(0.1875)"/>
</clipPath>
<clipPath id="clip3_2_4908">
<rect width="16" height="16" fill="white" transform="translate(18.1875)"/>
</clipPath>
<clipPath id="clip4_2_4908">
<rect width="16" height="16" fill="white" transform="translate(18.1875)"/>
</clipPath>
<clipPath id="clip5_2_4908">
<rect width="16" height="16" fill="white" transform="translate(18.1875)"/>
</clipPath>
<clipPath id="clip6_2_4908">
<rect width="16" height="16" fill="white" transform="translate(36.1875)"/>
</clipPath>
<clipPath id="clip7_2_4908">
<rect width="16" height="16" fill="white" transform="translate(36.1875)"/>
</clipPath>
<clipPath id="clip8_2_4908">
<rect width="16" height="16" fill="white" transform="translate(36.1875)"/>
</clipPath>
<clipPath id="clip9_2_4908">
<rect width="16" height="16" fill="white" transform="translate(54.1875)"/>
</clipPath>
<clipPath id="clip10_2_4908">
<rect width="16" height="16" fill="white" transform="translate(54.1875)"/>
</clipPath>
<clipPath id="clip11_2_4908">
<rect width="16" height="16" fill="white" transform="translate(54.1875)"/>
</clipPath>
<clipPath id="clip12_2_4908">
<rect width="16" height="16" fill="white" transform="translate(72.1875)"/>
</clipPath>
<clipPath id="clip13_2_4908">
<rect width="16" height="16" fill="white" transform="translate(72.1875)"/>
</clipPath>
<clipPath id="clip14_2_4908">
<rect width="16" height="16" fill="white" transform="translate(72.1875)"/>
</clipPath>
</defs>
</svg>
