<svg width="15" height="15" viewBox="0 0 15 15" fill="none" xmlns="http://www.w3.org/2000/svg">
<path fill-rule="evenodd" clip-rule="evenodd" d="M3 0.75C3 0.551088 3.07902 0.360322 3.21967 0.21967C3.36032 0.0790176 3.55109 0 3.75 0C3.94891 0 4.13968 0.0790176 4.28033 0.21967C4.42098 0.360322 4.5 0.551088 4.5 0.75V2.25H10.5V0.75C10.5 0.551088 10.579 0.360322 10.7197 0.21967C10.8603 0.0790176 11.0511 0 11.25 0C11.4489 0 11.6397 0.0790176 11.7803 0.21967C11.921 0.360322 12 0.551088 12 0.75V2.25H13.5C13.8978 2.25 14.2794 2.40804 14.5607 2.68934C14.842 2.97064 15 3.35218 15 3.75V13.5C15 13.8978 14.842 14.2794 14.5607 14.5607C14.2794 14.842 13.8978 15 13.5 15H1.5C1.10218 15 0.720644 14.842 0.43934 14.5607C0.158035 14.2794 0 13.8978 0 13.5V3.75C0 3.35218 0.158035 2.97064 0.43934 2.68934C0.720644 2.40804 1.10218 2.25 1.5 2.25H3V0.75ZM13.5 3.75H1.5V5.25H13.5V3.75ZM13.5 6.75H1.5V13.5H13.5V6.75ZM12 9V12H9V9H12Z" fill="#A8A8A8"/>
</svg>
