<svg width="21" height="23" viewBox="0 0 21 23" fill="none" xmlns="http://www.w3.org/2000/svg">
<path fill-rule="evenodd" clip-rule="evenodd" d="M9.3959 8.89618L3.0109 13.4561V15.3025L9.3959 12.11V18.5056L7.26756 19.2165V20.1423L10.4601 19.1845L13.6526 20.1423V19.2165L11.5242 18.5067V12.11L17.9092 15.3025V13.4561L11.5242 8.89618V3.84777C11.5242 3.56554 11.4121 3.29486 11.2125 3.09529C11.013 2.89572 10.7423 2.78361 10.4601 2.78361C10.1778 2.78361 9.90715 2.89572 9.70758 3.09529C9.50801 3.29486 9.3959 3.56554 9.3959 3.84777V8.89618ZM18.4977 17.9756C18.6599 18.0567 18.8401 18.095 19.0213 18.0868C19.2024 18.0786 19.3785 18.0243 19.5327 17.929C19.687 17.8337 19.8143 17.7006 19.9027 17.5422C19.991 17.3839 20.0375 17.2056 20.0376 17.0243V12.9091C20.0376 12.7397 19.9971 12.5727 19.9196 12.422C19.842 12.2713 19.7296 12.1414 19.5917 12.0429L13.6526 7.80008V3.84777C13.6526 3.00107 13.3162 2.18904 12.7175 1.59033C12.1188 0.991625 11.3068 0.655273 10.4601 0.655273C9.61336 0.655273 8.80133 0.991625 8.20262 1.59033C7.60392 2.18904 7.26756 3.00107 7.26756 3.84777V7.80008L1.32845 12.0429C1.19053 12.1414 1.07812 12.2713 1.00056 12.422C0.923005 12.5727 0.882552 12.7397 0.882568 12.9091V17.0243C0.882665 17.2056 0.929092 17.3839 1.01745 17.5422C1.1058 17.7006 1.23314 17.8337 1.3874 17.929C1.54166 18.0243 1.71771 18.0786 1.89885 18.0868C2.07999 18.095 2.26022 18.0567 2.42242 17.9756L7.26756 15.5536V16.9721L5.86712 17.4404C5.65548 17.5109 5.47134 17.6461 5.34072 17.8269C5.21011 18.0077 5.13962 18.2251 5.13923 18.4481V21.5715C5.13922 21.7373 5.17798 21.9009 5.25242 22.0491C5.32687 22.1974 5.43493 22.3261 5.56798 22.4252C5.70103 22.5242 5.8554 22.5908 6.01875 22.6196C6.1821 22.6483 6.34992 22.6385 6.50881 22.5909L10.4601 21.4065L14.4113 22.592C14.5702 22.6396 14.738 22.6494 14.9014 22.6206C15.0647 22.5918 15.2191 22.5253 15.3521 22.4262C15.4852 22.3272 15.5933 22.1984 15.6677 22.0502C15.7421 21.902 15.7809 21.7384 15.7809 21.5725V18.4492C15.7809 18.2258 15.7107 18.008 15.58 17.8267C15.4494 17.6454 15.265 17.5099 15.053 17.4393L13.6526 16.9721V15.5536L18.4977 17.9756Z" fill="#4A4A4A"/>
</svg>
