<svg width="32" height="32" viewBox="0 0 32 32" fill="none" xmlns="http://www.w3.org/2000/svg">
<g filter="url(#filter0_d_871_8871)">
<rect x="28" y="4" width="24" height="24" rx="4" transform="rotate(90 28 4)" fill="white"/>
<path fill-rule="evenodd" clip-rule="evenodd" d="M11.9396 17.0599C11.6587 16.7786 11.5009 16.3974 11.5009 15.9999C11.5009 15.6024 11.6587 15.2212 11.9396 14.9399L17.5956 9.2819C17.877 9.00064 18.2586 8.84268 18.6565 8.84277C19.0543 8.84287 19.4359 9.00101 19.7171 9.2824C19.9984 9.56379 20.1563 9.9454 20.1562 10.3433C20.1562 10.7411 19.998 11.1226 19.7166 11.4039L15.1206 15.9999L19.7166 20.5959C19.99 20.8787 20.1414 21.2575 20.1381 21.6508C20.1349 22.0441 19.9773 22.4204 19.6993 22.6986C19.4214 22.9769 19.0452 23.1348 18.6519 23.1384C18.2586 23.142 17.8797 22.991 17.5966 22.7179L11.9396 17.0599Z" fill="black"/>
</g>
<defs>
<filter id="filter0_d_871_8871" x="0" y="0" width="32" height="32" filterUnits="userSpaceOnUse" color-interpolation-filters="sRGB">
<feFlood flood-opacity="0" result="BackgroundImageFix"/>
<feColorMatrix in="SourceAlpha" type="matrix" values="0 0 0 0 0 0 0 0 0 0 0 0 0 0 0 0 0 0 127 0" result="hardAlpha"/>
<feOffset/>
<feGaussianBlur stdDeviation="2"/>
<feComposite in2="hardAlpha" operator="out"/>
<feColorMatrix type="matrix" values="0 0 0 0 0 0 0 0 0 0 0 0 0 0 0 0 0 0 0.25 0"/>
<feBlend mode="normal" in2="BackgroundImageFix" result="effect1_dropShadow_871_8871"/>
<feBlend mode="normal" in="SourceGraphic" in2="effect1_dropShadow_871_8871" result="shape"/>
</filter>
</defs>
</svg>
