<svg width="32" height="32" viewBox="0 0 32 32" fill="none" xmlns="http://www.w3.org/2000/svg">
<g filter="url(#filter0_d_871_8961)">
<rect x="4" y="28" width="24" height="24" rx="4" transform="rotate(-90 4 28)" fill="white"/>
<path fill-rule="evenodd" clip-rule="evenodd" d="M20.0604 14.9401C20.3413 15.2213 20.4991 15.6026 20.4991 16.0001C20.4991 16.3976 20.3413 16.7788 20.0604 17.0601L14.4044 22.7181C14.123 22.9994 13.7414 23.1573 13.3435 23.1572C12.9457 23.1571 12.5641 22.999 12.2829 22.7176C12.0016 22.4362 11.8437 22.0546 11.8438 21.6567C11.8438 21.2589 12.002 20.8774 12.2834 20.5961L16.8794 16.0001L12.2834 11.4041C12.01 11.1213 11.8586 10.7425 11.8619 10.3492C11.8651 9.9559 12.0227 9.5796 12.3007 9.30136C12.5786 9.02311 12.9548 8.86518 13.3481 8.86158C13.7414 8.85798 14.1203 9.00899 14.4034 9.2821L20.0604 14.9401Z" fill="black"/>
</g>
<defs>
<filter id="filter0_d_871_8961" x="0" y="0" width="32" height="32" filterUnits="userSpaceOnUse" color-interpolation-filters="sRGB">
<feFlood flood-opacity="0" result="BackgroundImageFix"/>
<feColorMatrix in="SourceAlpha" type="matrix" values="0 0 0 0 0 0 0 0 0 0 0 0 0 0 0 0 0 0 127 0" result="hardAlpha"/>
<feOffset/>
<feGaussianBlur stdDeviation="2"/>
<feComposite in2="hardAlpha" operator="out"/>
<feColorMatrix type="matrix" values="0 0 0 0 0 0 0 0 0 0 0 0 0 0 0 0 0 0 0.25 0"/>
<feBlend mode="normal" in2="BackgroundImageFix" result="effect1_dropShadow_871_8961"/>
<feBlend mode="normal" in="SourceGraphic" in2="effect1_dropShadow_871_8961" result="shape"/>
</filter>
</defs>
</svg>
