<svg width="21" height="21" viewBox="0 0 21 21" fill="none" xmlns="http://www.w3.org/2000/svg">
<path fill-rule="evenodd" clip-rule="evenodd" d="M7.86415 17.353C8.32395 16.8958 8.74349 16.4672 9.12406 16.0697C9.50333 15.6723 9.83195 15.2995 10.106 14.9501C10.3801 14.6007 10.5957 14.276 10.7503 13.9733C10.9035 13.672 10.9802 13.3849 10.9802 13.1122C10.9802 12.7355 10.8918 12.4484 10.7087 12.2523C10.5294 12.0549 10.2801 11.9575 9.96443 11.9575C9.71125 11.9534 9.46427 12.0359 9.26434 12.1913C9.06041 12.3471 8.86818 12.5303 8.68893 12.7381L7.78491 11.7873C8.13821 11.386 8.5006 11.0833 8.86818 10.8794C9.23836 10.6729 9.67738 10.5716 10.1904 10.5716C10.5437 10.5716 10.8672 10.6287 11.1555 10.7469C11.4452 10.8625 11.6958 11.0275 11.9076 11.2392C12.118 11.4522 12.279 11.7081 12.392 12.0055C12.628 12.6456 12.6206 13.35 12.3713 13.985C12.2348 14.3359 12.062 14.6715 11.8556 14.9864C11.6313 15.3339 11.3863 15.6674 11.1217 15.9853C10.8477 16.3191 10.5632 16.6451 10.2697 16.9672C10.4502 16.9439 10.6515 16.9205 10.8723 16.901C11.0697 16.8826 11.2677 16.8726 11.4659 16.8711H12.9129V18.3648H7.86415V17.353ZM19.4839 7.98938H1.29961V4.08366H5.21443V4.6162C5.21443 4.96559 5.50538 5.24875 5.86387 5.24875C6.22236 5.24875 6.51331 4.96559 6.51331 4.6162V4.08366H14.2884V4.6162C14.2884 4.96559 14.5794 5.24875 14.9378 5.24875C15.2976 5.24875 15.5873 4.96559 15.5873 4.6162V4.08366H19.4839V7.98938ZM19.4839 19.6793H1.29961V9.28826H19.4839V19.6793ZM15.5873 2.78478V0.827366C15.5861 0.743271 15.5684 0.660235 15.5351 0.582997C15.5018 0.50576 15.4536 0.435835 15.3933 0.377215C15.333 0.318596 15.2617 0.272431 15.1836 0.241357C15.1054 0.210283 15.0219 0.194908 14.9378 0.19611C14.5794 0.19611 14.2884 0.479266 14.2884 0.827366V2.78478H6.51331V0.827366C6.51331 0.479266 6.22236 0.19611 5.86387 0.19611C5.50538 0.19611 5.21443 0.479266 5.21443 0.827366V2.78478H0.650172C0.47793 2.78478 0.312742 2.8532 0.190949 2.97499C0.0691553 3.09679 0.000732422 3.26197 0.000732422 3.43422L0.000732422 20.3287C0.000732422 20.501 0.0691553 20.6662 0.190949 20.788C0.312742 20.9098 0.47793 20.9782 0.650172 20.9782H20.1334C20.3056 20.9782 20.4708 20.9098 20.5926 20.788C20.7144 20.6662 20.7828 20.501 20.7828 20.3287V3.43422C20.7828 3.26197 20.7144 3.09679 20.5926 2.97499C20.4708 2.8532 20.3056 2.78478 20.1334 2.78478H15.5873Z" fill="#4A4A4A"/>
</svg>
