<svg width="26" height="27" viewBox="0 0 26 27" fill="none" xmlns="http://www.w3.org/2000/svg">
<path fill-rule="evenodd" clip-rule="evenodd" d="M6.47541 3.71944C6.47541 3.43721 6.58753 3.16653 6.7871 2.96696C6.98667 2.76739 7.25735 2.65527 7.53958 2.65527C7.82181 2.65527 8.09249 2.76739 8.29206 2.96696C8.49163 3.16653 8.60375 3.43721 8.60375 3.71944V5.84777H17.1171V3.71944C17.1171 3.43721 17.2292 3.16653 17.4288 2.96696C17.6283 2.76739 17.899 2.65527 18.1812 2.65527C18.4635 2.65527 18.7341 2.76739 18.9337 2.96696C19.1333 3.16653 19.2454 3.43721 19.2454 3.71944V5.84777H21.3737C21.9382 5.84777 22.4796 6.07201 22.8787 6.47115C23.2778 6.87029 23.5021 7.41163 23.5021 7.9761V21.8103C23.5021 22.3747 23.2778 22.9161 22.8787 23.3152C22.4796 23.7144 21.9382 23.9386 21.3737 23.9386H4.34708C3.78261 23.9386 3.24126 23.7144 2.84212 23.3152C2.44298 22.9161 2.21875 22.3747 2.21875 21.8103V7.9761C2.21875 7.41163 2.44298 6.87029 2.84212 6.47115C3.24126 6.07201 3.78261 5.84777 4.34708 5.84777H6.47541V3.71944ZM21.3737 7.9761H4.34708V10.1044H21.3737V7.9761ZM21.3737 12.2328H4.34708V21.8103H21.3737V12.2328ZM19.2454 15.4253V19.6819H14.9887V15.4253H19.2454Z" fill="#4A4A4A"/>
</svg>
