<svg width="140" height="139" viewBox="0 0 140 139" fill="none" xmlns="http://www.w3.org/2000/svg">
<path d="M98.8327 94.5H42.166V88.8333H44.9993V46.3333C44.9993 45.5819 45.2979 44.8612 45.8292 44.3299C46.3606 43.7985 47.0812 43.5 47.8327 43.5H87.4994C88.2508 43.5 88.9715 43.7985 89.5028 44.3299C90.0342 44.8612 90.3327 45.5819 90.3327 46.3333V60.5H95.9994V88.8333H98.8327V94.5ZM84.666 88.8333H90.3327V66.1667H73.3327V88.8333H78.9994V71.8333H84.666V88.8333ZM84.666 60.5V49.1667H50.666V88.8333H67.666V60.5H84.666ZM56.3327 66.1667H61.9993V71.8333H56.3327V66.1667ZM56.3327 77.5H61.9993V83.1667H56.3327V77.5ZM56.3327 54.8333H61.9993V60.5H56.3327V54.8333Z" fill="#F15A24"/>
<rect x="0.5" width="139" height="139" rx="25" fill="#F15A24" fill-opacity="0.16"/>
</svg>
