<svg width="140" height="139" viewBox="0 0 140 139" fill="none" xmlns="http://www.w3.org/2000/svg">
<path d="M84.6 87.75C87.6238 87.75 90.075 85.2988 90.075 82.275C90.075 79.2513 87.6238 76.8 84.6 76.8C81.5762 76.8 79.125 79.2513 79.125 82.275C79.125 85.2988 81.5762 87.75 84.6 87.75Z" fill="#F15A24"/>
<path d="M92.2658 65.85H86.4258C84.2358 55.995 74.7458 49.425 64.8908 51.615C57.5908 53.075 51.7508 58.55 50.2908 65.85H47.7358C44.0858 65.85 40.8008 69.135 40.8008 72.785V77.53C40.8008 80.085 42.9908 82.275 45.5458 82.275H46.6408C46.6408 77.53 50.6558 73.515 55.4008 73.515C60.1458 73.515 64.1608 77.53 64.1608 82.275H75.8408C75.8408 77.53 79.8558 73.515 84.6008 73.515C89.3458 73.515 93.3608 77.53 93.3608 82.275H94.4558C97.0108 82.275 99.2008 80.085 99.2008 77.53V73.15C99.2008 69.135 95.9158 65.85 92.2658 65.85ZM56.1308 65.85C57.9558 58.915 65.2558 55.265 71.8258 57.09C75.8408 58.185 79.1258 61.47 80.5858 65.85H56.1308ZM55.4008 76.8C52.4808 76.8 49.9258 79.355 49.9258 82.275C49.9258 85.195 52.4808 87.75 55.4008 87.75C58.3208 87.75 60.8758 85.195 60.8758 82.275C60.8758 79.355 58.3208 76.8 55.4008 76.8Z" fill="#F15A24"/>
<rect x="0.5" width="139" height="139" rx="25" fill="#F15A24" fill-opacity="0.16"/>
</svg>
