<svg width="27" height="27" viewBox="0 0 27 27" fill="none" xmlns="http://www.w3.org/2000/svg">
<path fill-rule="evenodd" clip-rule="evenodd" d="M13.6573 21.8093C15.9152 21.8093 18.0806 20.9123 19.6771 19.3158C21.2737 17.7192 22.1706 15.5538 22.1706 13.296C22.1706 11.0381 21.2737 8.87268 19.6771 7.27612C18.0806 5.67957 15.9152 4.78263 13.6573 4.78263C11.3994 4.78263 9.23401 5.67957 7.63745 7.27612C6.04089 8.87268 5.14396 11.0381 5.14396 13.296C5.14396 15.5538 6.04089 17.7192 7.63745 19.3158C9.23401 20.9123 11.3994 21.8093 13.6573 21.8093ZM13.6573 23.9376C19.5347 23.9376 24.2989 19.1733 24.2989 13.296C24.2989 7.41857 19.5347 2.6543 13.6573 2.6543C7.7799 2.6543 3.01562 7.41857 3.01562 13.296C3.01562 19.1733 7.7799 23.9376 13.6573 23.9376ZM8.6706 9.449L10.335 8.12305L14.3799 13.2012L17.7107 10.5493L19.0356 12.2137L14.0414 16.1916L13.9744 16.1075L8.6706 9.449Z" fill="#4A4A4A"/>
</svg>
