<svg width="18" height="19" viewBox="0 0 18 19" fill="none" xmlns="http://www.w3.org/2000/svg">
<path d="M9 0.5C8.26361 0.5 7.66675 1.09686 7.66675 1.83325V8.16675H1.33325C0.596861 8.16675 0 8.76361 0 9.5C0 10.2364 0.596861 10.8333 1.33325 10.8333H7.66675V17.1668C7.66675 17.9031 8.26361 18.5 9 18.5C9.73639 18.5 10.3332 17.9031 10.3332 17.1668V10.8333H16.6667C17.4031 10.8333 18 10.2364 18 9.5C18 8.76361 17.4031 8.16675 16.6667 8.16675H10.3332V1.83325C10.3332 1.09686 9.73639 0.5 9 0.5Z" fill="#F15A24"/>
</svg>
