<svg width="16" height="16" viewBox="0 0 16 16" fill="none" xmlns="http://www.w3.org/2000/svg">
<g clip-path="url(#clip0_871_10758)">
<path fill-rule="evenodd" clip-rule="evenodd" d="M11.334 1.8331C10.8515 1.83295 10.377 1.95601 9.95535 2.19063C9.53374 2.42524 9.17903 2.76364 8.92483 3.17374C8.67064 3.58384 8.52538 4.05206 8.50284 4.53402C8.48029 5.01599 8.58119 5.49573 8.79599 5.92777C8.90265 6.14111 8.94598 6.4011 8.87599 6.66244L8.70732 7.2931L9.33799 7.12444C9.58444 7.0607 9.84569 7.08915 10.0727 7.20444C10.4551 7.39425 10.8756 7.49515 11.3025 7.49962C11.7295 7.50408 12.152 7.41198 12.5383 7.2302C12.9247 7.04842 13.265 6.78167 13.5338 6.44988C13.8025 6.11809 13.9928 5.72985 14.0905 5.31416C14.1881 4.89848 14.1905 4.4661 14.0975 4.04936C14.0045 3.63262 13.8185 3.24228 13.5534 2.90753C13.2883 2.57278 12.951 2.30227 12.5667 2.11622C12.1824 1.93016 11.761 1.83338 11.334 1.8331ZM7.50065 4.66644C7.50084 3.83283 7.77277 3.022 8.27522 2.35683C8.77766 1.69166 9.48325 1.2084 10.285 0.980292C11.0868 0.752185 11.9411 0.791661 12.7185 1.09274C13.4958 1.39382 14.1538 1.94008 14.5928 2.64875C15.0318 3.35743 15.2278 4.18988 15.1511 5.01995C15.0744 5.85003 14.7292 6.63249 14.1678 7.24874C13.6065 7.865 12.8595 8.28147 12.0402 8.43504C11.2208 8.58861 10.3738 8.47091 9.62732 8.09977C9.61898 8.09541 9.60996 8.09248 9.60065 8.0911H9.59599L8.85465 8.2891C8.69643 8.33153 8.52983 8.33156 8.37159 8.28919C8.21335 8.24683 8.06905 8.16357 7.95318 8.04777C7.83731 7.93197 7.75397 7.78772 7.71151 7.6295C7.66906 7.47129 7.66899 7.30469 7.71132 7.14644L7.90999 6.40444V6.39977C7.9084 6.39042 7.90525 6.3814 7.90065 6.37311C7.63683 5.84291 7.49989 5.25864 7.50065 4.66644ZM2.47932 2.72777C3.29665 1.86777 4.64865 2.02844 5.32465 2.98444L6.16465 4.17311C6.70532 4.93777 6.65999 5.99977 6.01465 6.67977L5.85132 6.8511C5.85132 6.85244 5.85132 6.85377 5.84999 6.8551C5.84132 6.87977 5.81999 6.95644 5.84132 7.1031C5.88599 7.4071 6.11999 8.02377 7.07199 9.02577C8.02665 10.0311 8.60532 10.2684 8.87399 10.3118C8.93872 10.3263 9.00602 10.3247 9.06999 10.3071L9.34199 10.0204C9.92465 9.4071 10.8327 9.28644 11.5653 9.70777L12.8387 10.4411C13.9273 11.0678 14.1807 12.6004 13.3107 13.5164L12.364 14.5131C12.0687 14.8244 11.6653 15.0904 11.1673 15.1398C9.95132 15.2598 7.13465 15.1031 4.18199 11.9944C1.42599 9.09311 0.902652 6.56977 0.836652 5.3371C0.803985 4.72777 1.07532 4.20577 1.43265 3.82977L2.47932 2.72777ZM4.50799 3.5611C4.16665 3.07844 3.55265 3.04977 3.20399 3.41644L2.15732 4.51844C1.93732 4.7511 1.82065 5.01711 1.83532 5.28377C1.88865 6.29044 2.32265 8.5851 4.90665 11.3058C7.61599 14.1584 10.1127 14.2391 11.0693 14.1444C11.258 14.1258 11.4527 14.0204 11.6387 13.8244L12.5853 12.8278C12.9947 12.3978 12.8873 11.6224 12.34 11.3078L11.0667 10.5744C10.7247 10.3778 10.324 10.4384 10.0673 10.7091L9.76399 11.0291L9.40132 10.6844C9.76332 11.0291 9.76332 11.0291 9.76265 11.0298L9.76199 11.0311L9.75998 11.0331L9.75532 11.0371L9.74599 11.0464C9.71801 11.0739 9.68767 11.0989 9.65532 11.1211C9.60199 11.1591 9.53132 11.2011 9.44132 11.2358C9.25732 11.3091 9.01465 11.3478 8.71398 11.2991C8.12865 11.2038 7.36199 10.7838 6.34732 9.71444C5.32865 8.64244 4.93865 7.8431 4.85199 7.24777C4.8104 7.0042 4.82964 6.75412 4.90799 6.51977C4.94426 6.41761 4.99597 6.32161 5.06132 6.2351L5.08132 6.21044L5.09065 6.20044L5.09465 6.19644L5.09665 6.19444L5.09799 6.1931C5.09799 6.1931 5.09865 6.19244 5.46132 6.53644L5.09865 6.19244L5.28999 5.99111C5.58665 5.67777 5.62999 5.14844 5.34865 4.7511L4.50799 3.5611Z" fill="black"/>
</g>
<defs>
<clipPath id="clip0_871_10758">
<rect width="16" height="16" fill="white"/>
</clipPath>
</defs>
</svg>
