<svg width="22" height="22" viewBox="0 0 22 22" fill="none" xmlns="http://www.w3.org/2000/svg">
<rect x="0.417969" y="0.5" width="21" height="21" rx="10.5" fill="#FFE4CC"/>
<g clip-path="url(#clip0_871_13239)">
<path fill-rule="evenodd" clip-rule="evenodd" d="M5.86018 6.87029C5.6039 6.61401 5.6039 6.19849 5.86018 5.94221C6.11646 5.68593 6.53197 5.68593 6.78826 5.94221L10.918 10.0719L15.0477 5.94221C15.304 5.68593 15.7195 5.68593 15.9758 5.94221C16.232 6.19849 16.232 6.61401 15.9758 6.87029L11.846 11L15.9758 15.1297C16.232 15.386 16.232 15.8015 15.9758 16.0578C15.7195 16.314 15.304 16.314 15.0477 16.0578L10.918 11.9281L6.78826 16.0578C6.53197 16.314 6.11646 16.314 5.86018 16.0578C5.6039 15.8015 5.6039 15.386 5.86018 15.1297L9.9899 11L5.86018 6.87029Z" fill="#FF7801"/>
</g>
<defs>
<clipPath id="clip0_871_13239">
<rect width="15.75" height="15.75" fill="white" transform="translate(3.04297 3.125)"/>
</clipPath>
</defs>
</svg>
