<svg width="28" height="28" viewBox="0 0 28 28" fill="none" xmlns="http://www.w3.org/2000/svg">
<g clip-path="url(#clip0_5616_7711)">
<path d="M1475.15 674.884C1474.98 674.884 1474.87 674.996 1474.87 675.164C1474.87 675.332 1474.98 675.444 1475.15 675.444H1476.36C1476.52 675.444 1476.64 675.332 1476.64 675.164C1476.64 674.996 1476.52 674.884 1476.36 674.884H1475.15ZM1476.36 675.836H1475.15C1474.98 675.836 1474.87 675.948 1474.87 676.116C1474.87 676.284 1474.98 676.396 1475.15 676.396H1476.36C1476.52 676.396 1476.64 676.284 1476.64 676.116C1476.64 675.948 1476.52 675.836 1476.36 675.836ZM1476.36 676.76H1475.15C1474.98 676.76 1474.87 676.872 1474.87 677.04C1474.87 677.208 1474.98 677.32 1475.15 677.32H1476.36C1476.52 677.32 1476.64 677.208 1476.64 677.04C1476.64 676.9 1476.52 676.76 1476.36 676.76ZM14 0.700195C6.66395 0.700195 0.699951 6.6642 0.699951 14.0002C0.699951 21.3362 6.66395 27.3002 14 27.3002C21.336 27.3002 27.3 21.3362 27.3 14.0002C27.3 6.6642 21.336 0.700195 14 0.700195ZM9.49195 11.6482C9.63195 11.3682 9.91195 11.1722 10.22 11.1722H12.04V6.1602C12.04 5.7122 12.404 5.3762 12.824 5.3762H15.148C15.596 5.3762 15.932 5.7402 15.932 6.1602V11.2002H17.752C18.06 11.2002 18.34 11.3962 18.48 11.6762C18.592 11.9562 18.536 12.2922 18.34 12.5442L14.588 16.5762C14.28 16.8842 13.72 16.8842 13.44 16.5762L9.63195 12.5162C9.40795 12.2922 9.35195 11.9562 9.49195 11.6482ZM20.356 20.0762C20.356 20.6922 19.8519 21.1962 19.236 21.1962H8.76395C8.14795 21.1962 7.64395 20.6922 7.64395 20.0762V17.7242C7.64395 17.1082 8.14795 16.6042 8.76395 16.6042C9.37995 16.6042 9.88395 17.1082 9.88395 17.7242V18.9842H18.172V17.7242C18.172 17.1082 18.676 16.6042 19.292 16.6042C19.908 16.6042 20.412 17.1082 20.412 17.7242V20.0762H20.356Z" fill="#D85B53"/>
</g>
<defs>
<clipPath id="clip0_5616_7711">
<rect width="28" height="28" fill="white"/>
</clipPath>
</defs>
</svg>
