<svg width="18" height="18" viewBox="0 0 18 18" fill="none" xmlns="http://www.w3.org/2000/svg">
<g clip-path="url(#clip0_871_33690)">
<path d="M17.913 11.457L15.6885 7.332C15.568 7.10187 15.3873 6.90875 15.1657 6.77323C14.944 6.63772 14.6898 6.56489 14.43 6.5625H12.75C12.5511 6.5625 12.3603 6.64152 12.2197 6.78217C12.079 6.92282 12 7.11359 12 7.3125C12 7.51141 12.079 7.70218 12.2197 7.84283C12.3603 7.98348 12.5511 8.0625 12.75 8.0625H14.2568C14.2906 8.06248 14.3237 8.0716 14.3528 8.0889C14.3818 8.10619 14.4057 8.13102 14.4218 8.16075L16.0485 11.1607C16.064 11.1893 16.0717 11.2214 16.0711 11.2539C16.0704 11.2864 16.0613 11.3181 16.0447 11.346C16.028 11.3739 16.0044 11.397 15.9762 11.4131C15.9479 11.4291 15.916 11.4375 15.8835 11.4375H13.125C12.8266 11.4375 12.5405 11.556 12.3295 11.767C12.1185 11.978 12 12.2641 12 12.5625C12 12.8609 11.8815 13.147 11.6705 13.358C11.4595 13.569 11.1734 13.6875 10.875 13.6875H7.125C6.82663 13.6875 6.54048 13.569 6.3295 13.358C6.11853 13.147 6 12.8609 6 12.5625C6 12.2641 5.88147 11.978 5.6705 11.767C5.45952 11.556 5.17337 11.4375 4.875 11.4375H2.1C2.06777 11.4374 2.0361 11.4291 2.00804 11.4132C1.97999 11.3973 1.9565 11.3745 1.93984 11.3469C1.92318 11.3193 1.91391 11.2879 1.91293 11.2557C1.91195 11.2235 1.91929 11.1916 1.93425 11.163L3.49725 8.163C3.5131 8.13274 3.53692 8.10738 3.56613 8.08967C3.59534 8.07196 3.62884 8.06256 3.663 8.0625H4.875C5.07391 8.0625 5.26468 7.98348 5.40533 7.84283C5.54598 7.70218 5.625 7.51141 5.625 7.3125C5.625 7.11359 5.54598 6.92282 5.40533 6.78217C5.26468 6.64152 5.07391 6.5625 4.875 6.5625H3.552C3.2927 6.56479 3.0389 6.63753 2.81775 6.77294C2.5966 6.90835 2.41642 7.10133 2.2965 7.33125L0.0915 11.4562C0.0396486 11.5685 0.00864392 11.6892 0 11.8125L0 16.3125C0 16.6109 0.118526 16.897 0.329505 17.108C0.540483 17.319 0.826631 17.4375 1.125 17.4375H16.875C17.1734 17.4375 17.4595 17.319 17.6705 17.108C17.8815 16.897 18 16.6109 18 16.3125V11.8125C17.9955 11.6893 17.9659 11.5683 17.913 11.457Z" fill="#F15A24"/>
<path d="M11.5157 3.537L9.45091 0.7875C9.39851 0.71764 9.33057 0.660938 9.25246 0.621885C9.17436 0.582832 9.08823 0.5625 9.00091 0.5625C8.91358 0.5625 8.82746 0.582832 8.74935 0.621885C8.67124 0.660938 8.6033 0.71764 8.55091 0.7875L6.49141 3.537C6.42873 3.62057 6.39056 3.71994 6.38118 3.82398C6.3718 3.92803 6.39157 4.03262 6.43829 4.12606C6.48501 4.21949 6.55682 4.29807 6.64568 4.35299C6.73454 4.40791 6.83694 4.437 6.94141 4.437H7.69141C7.71606 4.4369 7.74048 4.44168 7.76328 4.45107C7.78607 4.46046 7.80678 4.47427 7.82421 4.4917C7.84164 4.50913 7.85545 4.52984 7.86484 4.55263C7.87422 4.57542 7.87901 4.59985 7.87891 4.6245V7.437C7.87891 7.73537 7.99743 8.02152 8.20841 8.23249C8.41939 8.44347 8.70554 8.562 9.00391 8.562C9.30227 8.562 9.58842 8.44347 9.7994 8.23249C10.0104 8.02152 10.1289 7.73537 10.1289 7.437V4.62525C10.1288 4.6006 10.1336 4.57617 10.143 4.55338C10.1524 4.53059 10.1662 4.50988 10.1836 4.49245C10.201 4.47502 10.2217 4.46121 10.2445 4.45182C10.2673 4.44243 10.2918 4.43765 10.3164 4.43775H11.0664C11.1708 4.43747 11.273 4.40821 11.3617 4.35324C11.4504 4.29826 11.522 4.21973 11.5687 4.1264C11.6154 4.03306 11.6352 3.9286 11.626 3.82466C11.6167 3.72073 11.5788 3.62139 11.5164 3.53775L11.5157 3.537Z" fill="#F15A24"/>
</g>
<defs>
<clipPath id="clip0_871_33690">
<rect width="18" height="18" fill="white"/>
</clipPath>
</defs>
</svg>
