<svg width="26" height="27" viewBox="0 0 26 27" fill="none" xmlns="http://www.w3.org/2000/svg">
<path fill-rule="evenodd" clip-rule="evenodd" d="M12.3803 14.8791L7.05943 9.24643C6.99983 9.18167 6.92745 9.12998 6.84685 9.09463C6.76626 9.05927 6.67921 9.04102 6.5912 9.04102C6.50319 9.04102 6.41614 9.05927 6.33554 9.09463C6.25495 9.12998 6.18257 9.18167 6.12297 9.24643L5.65473 9.74233C5.53013 9.8772 5.46094 10.0541 5.46094 10.2377C5.46094 10.4213 5.53013 10.5982 5.65473 10.7331L11.7418 17.1766C11.762 17.1979 11.7843 17.2192 11.8056 17.2372L11.9152 17.3522C11.9762 17.417 12.05 17.4684 12.132 17.5032C12.2139 17.5381 12.3021 17.5555 12.3911 17.5545C12.4801 17.5535 12.5679 17.5341 12.649 17.4974C12.7301 17.4608 12.8028 17.4077 12.8623 17.3415L19.093 10.7437C19.2203 10.6085 19.2921 10.4303 19.2941 10.2446C19.2961 10.0588 19.2281 9.87917 19.1037 9.74126L18.6354 9.24536C18.5743 9.18064 18.5005 9.12929 18.4185 9.09455C18.3366 9.05982 18.2483 9.04245 18.1593 9.04355C18.0703 9.04465 17.9825 9.06419 17.9014 9.10094C17.8204 9.13769 17.7478 9.19086 17.6883 9.25707L12.3803 14.8769V14.8791Z" fill="#4A4A4A"/>
</svg>
