<svg width="12" height="10" viewBox="0 0 12 10" fill="none" xmlns="http://www.w3.org/2000/svg">
<path d="M10.2 0H1.8C1.32261 0 0.864773 0.197544 0.527208 0.549175C0.189642 0.900806 0 1.37772 0 1.875V8.125C0 8.62228 0.189642 9.09919 0.527208 9.45083C0.864773 9.80246 1.32261 10 1.8 10H10.2C10.6774 10 11.1352 9.80246 11.4728 9.45083C11.8104 9.09919 12 8.62228 12 8.125V1.875C12 1.37772 11.8104 0.900806 11.4728 0.549175C11.1352 0.197544 10.6774 0 10.2 0ZM10.2 1.25L6.3 4.04375C6.20879 4.09861 6.10532 4.12748 6 4.12748C5.89468 4.12748 5.79121 4.09861 5.7 4.04375L1.8 1.25H10.2Z" fill="#F15A24"/>
</svg>
