<svg width="25" height="22" viewBox="0 0 25 22" fill="none" xmlns="http://www.w3.org/2000/svg">
<path d="M12.5 22C12.2582 22 12.0536 21.9141 11.8862 21.7422L3.1808 13.1198C3.0878 13.0434 2.95991 12.9193 2.79715 12.7474C2.63439 12.5755 2.3763 12.2628 2.02288 11.8092C1.66946 11.3557 1.35324 10.8902 1.07422 10.4128C0.795201 9.93533 0.54641 9.35764 0.327846 8.67969C0.109282 8.00174 0 7.34288 0 6.70312C0 4.60243 0.590588 2.96007 1.77176 1.77604C2.95294 0.592014 4.58519 0 6.66853 0C7.24516 0 7.83343 0.102648 8.43331 0.307943C9.0332 0.513238 9.59124 0.790148 10.1074 1.13867C10.6236 1.4872 11.0677 1.81424 11.4397 2.11979C11.8118 2.42535 12.1652 2.75 12.5 3.09375C12.8348 2.75 13.1882 2.42535 13.5603 2.11979C13.9323 1.81424 14.3764 1.4872 14.8926 1.13867C15.4088 0.790148 15.9668 0.513238 16.5667 0.307943C17.1666 0.102648 17.7548 0 18.3315 0C20.4148 0 22.0471 0.592014 23.2282 1.77604C24.4094 2.96007 25 4.60243 25 6.70312C25 8.81337 23.9351 10.9618 21.8052 13.1484L13.1138 21.7422C12.9464 21.9141 12.7418 22 12.5 22Z" fill="#FF7801"/>
</svg>
