<svg width="25" height="23" viewBox="0 0 25 23" fill="none" xmlns="http://www.w3.org/2000/svg">
<path fill-rule="evenodd" clip-rule="evenodd" d="M7.5 2.55657C4.73857 2.55657 2.5 4.8458 2.5 7.66971C2.5 9.2372 3.44774 10.666 4.63573 11.8808L4.64956 11.895L12.5 20.4426L20.3504 11.895L20.3643 11.8808C21.5523 10.666 22.5 9.2372 22.5 7.66971C22.5 4.8458 20.2614 2.55657 17.5 2.55657C15.8652 2.55657 14.4138 3.35753 13.4994 4.60206L12.5 5.96231L11.5006 4.60206C10.5862 3.35754 9.1348 2.55657 7.5 2.55657ZM0 7.66971C0 3.43384 3.35786 0 7.5 0C9.42134 0 11.174 0.739656 12.5 1.95311C13.826 0.739656 15.5786 0 17.5 0C21.6421 0 25 3.43384 25 7.66971C25 10.2767 23.4589 12.3284 22.1461 13.6742L14.2816 22.2371L14.2677 22.2513C13.2915 23.2496 11.7085 23.2496 10.7323 22.2513L10.7184 22.2371L2.85384 13.6742C1.54119 12.3284 0 10.2767 0 7.66971Z" fill="black"/>
</svg>
