<svg width="31" height="30" viewBox="0 0 31 30" fill="none" xmlns="http://www.w3.org/2000/svg">
<g clip-path="url(#clip0_871_16749)">
<path fill-rule="evenodd" clip-rule="evenodd" d="M10.5 6.25099C7.73857 6.25099 5.5 8.49045 5.5 11.253C5.5 12.7864 6.44774 14.1841 7.63573 15.3725L7.64956 15.3864L15.5 23.7481L23.3504 15.3864L23.3643 15.3725C24.5523 14.1841 25.5 12.7864 25.5 11.253C25.5 8.49045 23.2614 6.25099 20.5 6.25099C18.8652 6.25099 17.4138 7.03454 16.4994 8.25201L15.5 9.58269L14.5006 8.25201C13.5862 7.03455 12.1348 6.25099 10.5 6.25099ZM3 11.253C3 7.10919 6.35786 3.75 10.5 3.75C12.4213 3.75 14.174 4.47358 15.5 5.66065C16.826 4.47358 18.5786 3.75 20.5 3.75C24.6421 3.75 28 7.10919 28 11.253C28 13.8033 26.4589 15.8104 25.1461 17.1269L17.2816 25.5036L17.2677 25.5175C16.2915 26.4941 14.7085 26.4941 13.7323 25.5175L13.7184 25.5036L5.85384 17.1269C4.54119 15.8104 3 13.8033 3 11.253Z" fill="#A8A8A8"/>
</g>
<defs>
<clipPath id="clip0_871_16749">
<rect width="30" height="30" fill="white" transform="translate(0.5)"/>
</clipPath>
</defs>
</svg>
