<svg width="22" height="22" viewBox="0 0 22 22" fill="none" xmlns="http://www.w3.org/2000/svg">
<path d="M0.126845 10.779C0.12815 10.4762 0.189485 10.1767 0.307302 9.89775C0.425119 9.61883 0.597081 9.36603 0.813233 9.154C1.24954 8.72514 1.83909 8.48783 2.45205 8.49422L7.03222 8.65704L12.1349 0.498078C12.2049 0.385354 12.3023 0.292182 12.4181 0.227243C12.5338 0.162305 12.6641 0.127711 12.7968 0.126683L14.2845 0.126684C14.3534 0.126853 14.4211 0.143806 14.482 0.176071C14.5428 0.208335 14.5948 0.254939 14.6336 0.311849C14.6734 0.366268 14.7004 0.428998 14.7126 0.495345C14.7248 0.561693 14.7218 0.629932 14.7038 0.69495L12.1924 8.84859L17.6324 9.04439L19.4457 6.11049C19.4835 6.05472 19.5333 6.00817 19.5915 5.97427C19.6498 5.94038 19.7148 5.92001 19.782 5.91468L20.9324 5.81039C20.9457 5.80014 20.9625 5.79555 20.9792 5.79762C21.0412 5.79765 21.1024 5.81118 21.1587 5.83727C21.2149 5.86337 21.2648 5.90141 21.3048 5.94874C21.35 6.00255 21.3819 6.06621 21.3979 6.13459C21.414 6.20298 21.4138 6.27418 21.3974 6.34248L20.3056 10.7726L21.3974 15.2027C21.4135 15.2668 21.4145 15.3338 21.4005 15.3984C21.3865 15.463 21.3577 15.5235 21.3165 15.5752C21.2764 15.6267 21.2255 15.6689 21.1674 15.6989C21.1094 15.7288 21.0455 15.7458 20.9802 15.7486L19.8607 15.7486C19.7862 15.7475 19.7132 15.7278 19.6481 15.6914C19.5831 15.655 19.5282 15.603 19.4883 15.5401L17.6207 12.5072L12.1924 12.7041L14.7038 20.8556C14.7217 20.9199 14.725 20.9874 14.7134 21.0531C14.7018 21.1189 14.6756 21.1812 14.6367 21.2355C14.5974 21.291 14.545 21.336 14.4841 21.3665C14.4232 21.3969 14.3557 21.4119 14.2877 21.41L12.7862 21.41C12.6576 21.4111 12.5309 21.3786 12.4187 21.3157C12.3066 21.2528 12.2128 21.1617 12.1466 21.0514L7.03222 12.8914L2.4744 13.0627L2.46375 13.0627C1.85126 13.0689 1.26129 12.832 0.823209 12.4039C0.385129 11.9758 0.134704 11.3915 0.126845 10.779Z" fill="#3A3A3A"/>
</svg>
