<svg width="23" height="22" viewBox="0 0 23 22" fill="none" xmlns="http://www.w3.org/2000/svg">
<path d="M22.178 10.7601C22.1767 11.0629 22.1153 11.3624 21.9975 11.6413C21.8797 11.9202 21.7077 12.173 21.4916 12.3851C21.0553 12.8139 20.4657 13.0512 19.8528 13.0448L15.2726 12.882L10.1699 21.041C10.0999 21.1537 10.0025 21.2469 9.88673 21.3118C9.77099 21.3768 9.64071 21.4114 9.508 21.4124H8.0203C7.95145 21.4122 7.88368 21.3953 7.82286 21.363C7.76204 21.3307 7.71 21.2841 7.67125 21.2272C7.6314 21.1728 7.60437 21.1101 7.59221 21.0437C7.58005 20.9774 7.58306 20.9091 7.60102 20.8441L10.1124 12.6905L4.67243 12.4947L2.85909 15.4286C2.82132 15.4843 2.77148 15.5309 2.71327 15.5648C2.65505 15.5987 2.58997 15.6191 2.52282 15.6244L1.37245 15.7287C1.35913 15.7389 1.34231 15.7435 1.32563 15.7414C1.26363 15.7414 1.20239 15.7279 1.14615 15.7018C1.08991 15.6757 1.04004 15.6377 0.999995 15.5903C0.954842 15.5365 0.922944 15.4729 0.906865 15.4045C0.890786 15.3361 0.890973 15.2649 0.907413 15.1966L1.99925 10.7665L0.907413 6.33634C0.891353 6.27222 0.890295 6.20526 0.904322 6.14066C0.918349 6.07606 0.947082 6.01557 0.98829 5.96388C1.02844 5.91235 1.07931 5.87015 1.13737 5.8402C1.19543 5.81025 1.2593 5.79327 1.32457 5.79042H2.44407C2.51858 5.79155 2.59164 5.81121 2.65667 5.84762C2.72169 5.88404 2.77663 5.93606 2.81653 5.999L4.68414 9.03187L10.1124 8.835L7.60102 0.68349C7.58311 0.619178 7.57984 0.551672 7.59144 0.48593C7.60304 0.420188 7.62922 0.35788 7.66806 0.303582C7.70741 0.248037 7.75984 0.203051 7.82073 0.172609C7.88161 0.142167 7.94906 0.127209 8.01711 0.129059H9.51864C9.64725 0.127975 9.7739 0.160492 9.88608 0.223392C9.99825 0.286292 10.0921 0.377395 10.1582 0.487683L15.2726 8.64771L19.8304 8.47638H19.8411C20.4536 8.47013 21.0435 8.70703 21.4816 9.13514C21.9197 9.56324 22.1701 10.1476 22.178 10.7601Z" fill="#3A3A3A"/>
</svg>
