<svg width="11" height="10" viewBox="0 0 11 10" fill="none" xmlns="http://www.w3.org/2000/svg">
<path d="M0.592191 9.78467C0.460598 9.78454 0.33444 9.73217 0.241436 9.63907C0.148432 9.54597 0.0961913 9.41976 0.0961914 9.28817V1.28117C0.0971064 1.14986 0.149642 1.02418 0.242448 0.931277C0.335254 0.838377 0.460882 0.785715 0.592191 0.784668H9.60019C9.87419 0.784668 10.0962 1.00717 10.0962 1.28117V9.28817C10.0953 9.41948 10.0427 9.54516 9.94993 9.63806C9.85713 9.73096 9.7315 9.78362 9.60019 9.78467H0.592191ZM9.09619 6.78467V1.78467H1.09619V8.78467L6.09619 3.78467L9.09619 6.78467ZM9.09619 8.19867L6.09619 5.19867L2.51019 8.78467H9.09619V8.19867ZM3.09619 4.78467C2.83097 4.78467 2.57662 4.67931 2.38908 4.49177C2.20155 4.30424 2.09619 4.04988 2.09619 3.78467C2.09619 3.51945 2.20155 3.2651 2.38908 3.07756C2.57662 2.89002 2.83097 2.78467 3.09619 2.78467C3.36141 2.78467 3.61576 2.89002 3.8033 3.07756C3.99083 3.2651 4.09619 3.51945 4.09619 3.78467C4.09619 4.04988 3.99083 4.30424 3.8033 4.49177C3.61576 4.67931 3.36141 4.78467 3.09619 4.78467Z" fill="white"/>
</svg>
