<svg width="21" height="21" viewBox="0 0 21 21" fill="none" xmlns="http://www.w3.org/2000/svg">
<g clip-path="url(#clip0_871_13319)">
<path d="M7.36107 0.992929C7.4759 0.992929 7.58602 1.03854 7.66722 1.11974C7.74841 1.20094 7.79403 1.31106 7.79403 1.42589V8.35324C7.79403 8.46807 7.74841 8.5782 7.66722 8.65939C7.58602 8.74059 7.4759 8.7862 7.36107 8.7862C7.24624 8.7862 7.13611 8.74059 7.05492 8.65939C6.97372 8.5782 6.92811 8.46807 6.92811 8.35324V1.42589C6.92811 1.31106 6.97372 1.20094 7.05492 1.11974C7.13611 1.03854 7.24624 0.992929 7.36107 0.992929ZM5.62923 0.992929C5.74406 0.992929 5.85418 1.03854 5.93538 1.11974C6.01657 1.20094 6.06219 1.31106 6.06219 1.42589V8.35324C6.06219 8.46807 6.01657 8.5782 5.93538 8.65939C5.85418 8.74059 5.74406 8.7862 5.62923 8.7862C5.5144 8.7862 5.40428 8.74059 5.32308 8.65939C5.24188 8.5782 5.19627 8.46807 5.19627 8.35324V1.42589C5.19627 1.31106 5.24188 1.20094 5.32308 1.11974C5.40428 1.03854 5.5144 0.992929 5.62923 0.992929ZM16.4532 2.43035C15.5983 3.56136 15.0066 4.86894 14.7214 6.25772C14.2613 7.92127 13.9712 9.62721 13.8555 11.3493H15.1543C15.2692 11.3493 15.3793 11.3949 15.4605 11.4761C15.5417 11.5573 15.5873 11.6675 15.5873 11.7823V18.7096C15.5873 19.0473 15.6826 19.1426 16.0203 19.1426C16.358 19.1426 16.4532 19.0473 16.4532 18.7096V2.43035ZM17.3191 1.42589V18.7443C17.3351 18.9188 17.3125 19.0948 17.2529 19.2596C17.1932 19.4245 17.0981 19.5742 16.9741 19.6981C16.8502 19.8221 16.7005 19.9172 16.5356 19.9769C16.3708 20.0365 16.1948 20.0591 16.0203 20.0432C15.8457 20.0591 15.6698 20.0365 15.5049 19.9769C15.3401 19.9172 15.1904 19.8221 15.0664 19.6981C14.9425 19.5742 14.8473 19.4245 14.7877 19.2596C14.728 19.0948 14.7054 18.9188 14.7214 18.7443V12.2499H13.4225C13.3077 12.2499 13.1975 12.2043 13.1164 12.1231C13.0352 12.0419 12.9895 11.9317 12.9895 11.8169C13.0544 9.87897 13.345 7.95518 13.8555 6.08453C14.4703 3.65996 15.3795 2.01471 16.6264 1.0622C16.6919 1.01297 16.77 0.983338 16.8517 0.976746C16.9334 0.970153 17.0152 0.986872 17.0878 1.02496C17.1603 1.06305 17.2206 1.12094 17.2615 1.19191C17.3025 1.26288 17.3225 1.34402 17.3191 1.42589ZM9.52587 1.36527C10.1147 5.44375 10.3918 7.7471 10.3918 8.35324C10.3918 8.95939 10.0454 9.21916 8.9024 10.0158C8.0971 10.5873 7.79403 10.8211 7.79403 10.951V18.7443C7.81 18.9188 7.78737 19.0948 7.72774 19.2596C7.66812 19.4245 7.57295 19.5742 7.449 19.6981C7.32505 19.8221 7.17534 19.9172 7.0105 19.9769C6.84566 20.0365 6.66971 20.0591 6.49515 20.0432C6.32058 20.0591 6.14464 20.0365 5.9798 19.9769C5.81495 19.9172 5.66525 19.8221 5.5413 19.6981C5.41734 19.5742 5.32218 19.4245 5.26255 19.2596C5.20293 19.0948 5.1803 18.9188 5.19627 18.7443V10.951C5.19627 10.8211 4.8932 10.544 4.08789 10.0158C2.94488 9.24514 2.59851 8.94207 2.59851 8.35324C2.59851 7.76442 2.88426 5.44375 3.46443 1.36527C3.47177 1.30846 3.49053 1.25371 3.5196 1.20434C3.54866 1.15497 3.58742 1.112 3.63354 1.07802C3.67966 1.04403 3.73219 1.01974 3.78795 1.0066C3.84372 0.99347 3.90156 0.991763 3.958 1.00159C4.07161 1.01668 4.1746 1.0762 4.24439 1.16709C4.31419 1.25799 4.3451 1.37285 4.33035 1.4865C3.75884 5.49571 3.46443 7.80771 3.46443 8.35324C3.46443 8.48313 3.7675 8.76023 4.57281 9.2971C5.71582 10.0591 6.06219 10.3622 6.06219 10.951V18.7443C6.06219 19.082 6.15744 19.1772 6.49515 19.1772C6.83286 19.1772 6.92811 19.082 6.92811 18.7443V10.951C6.92811 10.3622 7.27448 10.0851 8.41749 9.2971C9.22279 8.76023 9.52587 8.48313 9.52587 8.35324C9.52587 7.80771 9.24011 5.49571 8.65995 1.4865C8.64504 1.37416 8.67478 1.26045 8.74278 1.16979C8.81077 1.07912 8.91161 1.01874 9.02363 1.00159C9.0807 0.990457 9.13945 0.991174 9.19624 1.0037C9.25302 1.01622 9.30662 1.04028 9.35372 1.07438C9.40081 1.10849 9.44039 1.15191 9.47001 1.20195C9.49962 1.25199 9.51863 1.30758 9.52587 1.36527Z" fill="#4A4A4A"/>
<mask id="mask0_871_13319" style="mask-type:luminance" maskUnits="userSpaceOnUse" x="2" y="0" width="16" height="21">
<path d="M7.36107 0.992929C7.4759 0.992929 7.58602 1.03854 7.66722 1.11974C7.74841 1.20094 7.79403 1.31106 7.79403 1.42589V8.35324C7.79403 8.46807 7.74841 8.5782 7.66722 8.65939C7.58602 8.74059 7.4759 8.7862 7.36107 8.7862C7.24624 8.7862 7.13611 8.74059 7.05492 8.65939C6.97372 8.5782 6.92811 8.46807 6.92811 8.35324V1.42589C6.92811 1.31106 6.97372 1.20094 7.05492 1.11974C7.13611 1.03854 7.24624 0.992929 7.36107 0.992929ZM5.62923 0.992929C5.74406 0.992929 5.85418 1.03854 5.93538 1.11974C6.01657 1.20094 6.06219 1.31106 6.06219 1.42589V8.35324C6.06219 8.46807 6.01657 8.5782 5.93538 8.65939C5.85418 8.74059 5.74406 8.7862 5.62923 8.7862C5.5144 8.7862 5.40428 8.74059 5.32308 8.65939C5.24188 8.5782 5.19627 8.46807 5.19627 8.35324V1.42589C5.19627 1.31106 5.24188 1.20094 5.32308 1.11974C5.40428 1.03854 5.5144 0.992929 5.62923 0.992929ZM16.4532 2.43035C15.5983 3.56136 15.0066 4.86894 14.7214 6.25772C14.2613 7.92127 13.9712 9.62721 13.8555 11.3493H15.1543C15.2692 11.3493 15.3793 11.3949 15.4605 11.4761C15.5417 11.5573 15.5873 11.6675 15.5873 11.7823V18.7096C15.5873 19.0473 15.6826 19.1426 16.0203 19.1426C16.358 19.1426 16.4532 19.0473 16.4532 18.7096V2.43035ZM17.3191 1.42589V18.7443C17.3351 18.9188 17.3125 19.0948 17.2529 19.2596C17.1932 19.4245 17.0981 19.5742 16.9741 19.6981C16.8502 19.8221 16.7005 19.9172 16.5356 19.9769C16.3708 20.0365 16.1948 20.0591 16.0203 20.0432C15.8457 20.0591 15.6698 20.0365 15.5049 19.9769C15.3401 19.9172 15.1904 19.8221 15.0664 19.6981C14.9425 19.5742 14.8473 19.4245 14.7877 19.2596C14.728 19.0948 14.7054 18.9188 14.7214 18.7443V12.2499H13.4225C13.3077 12.2499 13.1975 12.2043 13.1164 12.1231C13.0352 12.0419 12.9895 11.9317 12.9895 11.8169C13.0544 9.87897 13.345 7.95518 13.8555 6.08453C14.4703 3.65996 15.3795 2.01471 16.6264 1.0622C16.6919 1.01297 16.77 0.983338 16.8517 0.976746C16.9334 0.970153 17.0152 0.986872 17.0878 1.02496C17.1603 1.06305 17.2206 1.12094 17.2615 1.19191C17.3025 1.26288 17.3225 1.34402 17.3191 1.42589ZM9.52587 1.36527C10.1147 5.44375 10.3918 7.7471 10.3918 8.35324C10.3918 8.95939 10.0454 9.21916 8.9024 10.0158C8.0971 10.5873 7.79403 10.8211 7.79403 10.951V18.7443C7.81 18.9188 7.78737 19.0948 7.72774 19.2596C7.66812 19.4245 7.57295 19.5742 7.449 19.6981C7.32505 19.8221 7.17534 19.9172 7.0105 19.9769C6.84566 20.0365 6.66971 20.0591 6.49515 20.0432C6.32058 20.0591 6.14464 20.0365 5.9798 19.9769C5.81495 19.9172 5.66525 19.8221 5.5413 19.6981C5.41734 19.5742 5.32218 19.4245 5.26255 19.2596C5.20293 19.0948 5.1803 18.9188 5.19627 18.7443V10.951C5.19627 10.8211 4.8932 10.544 4.08789 10.0158C2.94488 9.24514 2.59851 8.94207 2.59851 8.35324C2.59851 7.76442 2.88426 5.44375 3.46443 1.36527C3.47177 1.30846 3.49053 1.25371 3.5196 1.20434C3.54866 1.15497 3.58742 1.112 3.63354 1.07802C3.67966 1.04403 3.73219 1.01974 3.78795 1.0066C3.84372 0.99347 3.90156 0.991763 3.958 1.00159C4.07161 1.01668 4.1746 1.0762 4.24439 1.16709C4.31419 1.25799 4.3451 1.37285 4.33035 1.4865C3.75884 5.49571 3.46443 7.80771 3.46443 8.35324C3.46443 8.48313 3.7675 8.76023 4.57281 9.2971C5.71582 10.0591 6.06219 10.3622 6.06219 10.951V18.7443C6.06219 19.082 6.15744 19.1772 6.49515 19.1772C6.83286 19.1772 6.92811 19.082 6.92811 18.7443V10.951C6.92811 10.3622 7.27448 10.0851 8.41749 9.2971C9.22279 8.76023 9.52587 8.48313 9.52587 8.35324C9.52587 7.80771 9.24011 5.49571 8.65995 1.4865C8.64504 1.37416 8.67478 1.26045 8.74278 1.16979C8.81077 1.07912 8.91161 1.01874 9.02363 1.00159C9.0807 0.990457 9.13945 0.991174 9.19624 1.0037C9.25302 1.01622 9.30662 1.04028 9.35372 1.07438C9.40081 1.10849 9.44039 1.15191 9.47001 1.20195C9.49962 1.25199 9.51863 1.30758 9.52587 1.36527Z" fill="white"/>
</mask>
<g mask="url(#mask0_871_13319)">
<path d="M-1.72974 -4.20239H21.6501V25.2389H-1.72974V-4.20239Z" fill="#4A4A4A"/>
<mask id="mask1_871_13319" style="mask-type:luminance" maskUnits="userSpaceOnUse" x="-2" y="-5" width="24" height="31">
<path d="M-1.72974 -4.20239H21.6501V25.2389H-1.72974V-4.20239Z" fill="white"/>
</mask>
<g mask="url(#mask1_871_13319)">
<path d="M2.59839 0.99292H17.319V20.0431H2.59839V0.99292Z" fill="#4A4A4A"/>
<mask id="mask2_871_13319" style="mask-type:luminance" maskUnits="userSpaceOnUse" x="2" y="0" width="16" height="21">
<path d="M2.59839 0.99292H17.319V20.0431H2.59839V0.99292Z" fill="white"/>
</mask>
<g mask="url(#mask2_871_13319)">
<path d="M-1.72974 -3.33716H21.6501V24.3723H-1.72974V-3.33716Z" fill="#4A4A4A"/>
</g>
</g>
</g>
</g>
<defs>
<clipPath id="clip0_871_13319">
<rect width="20.7821" height="20.7821" fill="white" transform="translate(0.000854492 0.196045)"/>
</clipPath>
</defs>
</svg>
