<svg width="32" height="33" viewBox="0 0 32 33" fill="none" xmlns="http://www.w3.org/2000/svg">
<rect width="32" height="32" transform="translate(0 0.629883)" fill="#0D1218"/>
<g clip-path="url(#clip0_871_9697)">
<path d="M19.6664 16.9598C19.6415 17.9799 19.2808 18.8321 18.5841 19.5163C17.8875 20.2005 17.0229 20.555 15.9904 20.5799C14.9454 20.555 14.0809 20.2005 13.3967 19.5163C12.7125 18.8321 12.3579 17.9799 12.333 16.9598C12.333 16.7235 12.3517 16.4933 12.389 16.2694H9.9259V21.0837C9.93834 21.6062 10.1249 22.0447 10.4857 22.3992C10.8465 22.7538 11.2943 22.9373 11.8292 22.9497H20.1516C20.6989 22.9373 21.1499 22.7538 21.5044 22.3992C21.859 22.0447 22.0425 21.6062 22.0549 21.0837V16.2694H19.5918C19.6415 16.4933 19.6664 16.7235 19.6664 16.9598ZM20.1516 10.97H11.8292C11.2943 10.9824 10.8465 11.1659 10.4857 11.5205C10.1249 11.875 9.93834 12.3135 9.9259 12.836V14.8699H13.0048C13.3407 14.3972 13.7668 14.024 14.283 13.7503C14.7993 13.4766 15.3684 13.3398 15.9904 13.3398C16.6124 13.3398 17.1815 13.4766 17.6978 13.7503C18.2141 14.024 18.6401 14.3972 18.976 14.8699H22.0549V12.836C22.0425 12.3135 21.859 11.875 21.5044 11.5205C21.1499 11.1659 20.6989 10.9824 20.1516 10.97ZM21.0846 13.2838C21.0846 13.3833 21.0535 13.4642 20.9913 13.5264C20.9291 13.5886 20.8482 13.6197 20.7487 13.6197H19.7411C19.6415 13.6197 19.5576 13.5886 19.4892 13.5264C19.4207 13.4642 19.3865 13.3833 19.3865 13.2838V12.2762C19.3865 12.1767 19.4207 12.0958 19.4892 12.0336C19.5576 11.9714 19.6415 11.9403 19.7411 11.9403H20.7487C20.8482 11.9403 20.9291 11.9714 20.9913 12.0336C21.0535 12.0958 21.0846 12.1767 21.0846 12.2762V13.2838ZM18.2483 16.9598C18.2358 16.3254 18.0181 15.7967 17.5952 15.3737C17.1722 14.9508 16.6373 14.7331 15.9904 14.7206C15.3435 14.7331 14.8086 14.9508 14.3856 15.3737C13.9627 15.7967 13.745 16.3254 13.7325 16.9598C13.745 17.5943 13.9627 18.1199 14.3856 18.5366C14.8086 18.9534 15.3435 19.1679 15.9904 19.1804C16.6373 19.1679 17.1722 18.9534 17.5952 18.5366C18.0181 18.1199 18.2358 17.5943 18.2483 16.9598Z" fill="#F8F8F8"/>
</g>
<defs>
<clipPath id="clip0_871_9697">
<rect width="12.14" height="18.66" fill="white" transform="matrix(1 0 0 -1 9.92004 26.29)"/>
</clipPath>
</defs>
</svg>
