<svg width="40" height="41" viewBox="0 0 40 41" fill="none" xmlns="http://www.w3.org/2000/svg">
<rect y="0.151367" width="40" height="40" rx="20" fill="#EDEDED"/>
<path fill-rule="evenodd" clip-rule="evenodd" d="M11.707 19.6874C11.5195 19.875 11.4142 20.1293 11.4142 20.3944C11.4142 20.6596 11.5195 20.9139 11.707 21.1014L15.95 25.3434C16.1386 25.5256 16.3912 25.6264 16.6534 25.6241C16.9156 25.6218 17.1664 25.5167 17.3518 25.3313C17.5372 25.1459 17.6424 24.895 17.6446 24.6328C17.6469 24.3707 17.5461 24.1181 17.364 23.9294L14.828 21.3944H28C28.2652 21.3944 28.5195 21.2891 28.7071 21.1016C28.8946 20.914 29 20.6597 29 20.3944C29 20.1292 28.8946 19.8749 28.7071 19.6873C28.5195 19.4998 28.2652 19.3944 28 19.3944H14.828L17.364 16.8584C17.4595 16.7662 17.5357 16.6559 17.5881 16.5339C17.6405 16.4118 17.6681 16.2806 17.6692 16.1478C17.6704 16.0151 17.6451 15.8834 17.5948 15.7605C17.5445 15.6376 17.4703 15.5259 17.3764 15.4321C17.2825 15.3382 17.1708 15.2639 17.0479 15.2136C16.925 15.1633 16.7933 15.138 16.6606 15.1392C16.5278 15.1404 16.3966 15.1679 16.2746 15.2203C16.1526 15.2728 16.0422 15.3489 15.95 15.4444L11.707 19.6874Z" fill="#4A4A4A"/>
</svg>
