<svg width="19" height="33" viewBox="0 0 19 33" fill="none" xmlns="http://www.w3.org/2000/svg">
<path d="M1.18611e-06 16.5L15.5994 0.549897C15.9816 0.188883 16.485 -0.00793012 17.0052 0.000244744C17.5255 0.00841961 18.0227 0.220955 18.3939 0.593806C18.7651 0.966656 18.9817 1.47123 18.9989 2.00296C19.0161 2.53469 18.8325 3.0528 18.4863 3.44991L5.72316 16.5L18.4863 29.5501C18.8325 29.9472 19.0161 30.4653 18.9989 30.997C18.9817 31.5288 18.7651 32.0333 18.3939 32.4062C18.0227 32.779 17.5255 32.9916 17.0052 32.9998C16.485 33.0079 15.9816 32.8111 15.5994 32.4501L1.18611e-06 16.5Z" fill="#F15A24"/>
</svg>
