<svg width="20" height="20" viewBox="0 0 20 20" fill="none" xmlns="http://www.w3.org/2000/svg">
<path fill-rule="evenodd" clip-rule="evenodd" d="M3.33203 2.50033C3.33203 2.27931 3.41983 2.06735 3.57611 1.91107C3.73239 1.75479 3.94435 1.66699 4.16536 1.66699H4.9987V7.50033H5.83203V1.66699H7.4987V7.50033H8.33203V1.66699H9.16536C9.38638 1.66699 9.59834 1.75479 9.75462 1.91107C9.9109 2.06735 9.9987 2.27931 9.9987 2.50033V7.50033C9.9986 8.23938 9.75301 8.95747 9.30051 9.54181C8.848 10.1261 8.21422 10.5436 7.4987 10.7287V18.3337H5.83203V10.7287C5.11651 10.5436 4.48273 10.1261 4.03022 9.54181C3.57772 8.95747 3.33213 8.23938 3.33203 7.50033V2.50033ZM16.6654 1.66699V18.3337H14.9987V12.5003H11.6654C11.6654 1.66699 16.6654 1.66699 16.6654 1.66699Z" fill="#4A4A4A"/>
</svg>
