<svg width="33" height="22" viewBox="0 0 33 22" fill="none" xmlns="http://www.w3.org/2000/svg">
<rect width="33" height="22" fill="#121314"/>
<path d="M12.9728 5.23438H20.0318V16.7638H12.9728V5.23438Z" fill="#FF5F00"/>
<path d="M13.6988 11.0028C13.6979 9.89259 13.9496 8.79675 14.4348 7.79819C14.9199 6.79964 15.6259 5.92452 16.4992 5.23908C15.4175 4.38903 14.1186 3.86043 12.7507 3.7137C11.3829 3.56697 10.0014 3.80803 8.76406 4.40933C7.52674 5.01062 6.48355 5.94789 5.75371 7.11402C5.02388 8.28015 4.63684 9.62808 4.63684 11.0038C4.63684 12.3795 5.02388 13.7274 5.75371 14.8935C6.48355 16.0596 7.52674 16.9969 8.76406 17.5982C10.0014 18.1995 11.3829 18.4406 12.7507 18.2938C14.1186 18.1471 15.4175 17.6185 16.4992 16.7685C15.6256 16.0828 14.9195 15.2074 14.4343 14.2084C13.9491 13.2095 13.6976 12.1133 13.6988 11.0027V11.0028Z" fill="#EB001B"/>
<path d="M27.6641 15.5429V15.3067H27.7659V15.2578H27.5236V15.3067H27.6193V15.543L27.6641 15.5429ZM28.1345 15.5429V15.2578H28.0612L27.9757 15.4615L27.8901 15.2578H27.8168V15.5429H27.8698V15.3271L27.9492 15.5124H28.0042L28.0836 15.3271V15.5429H28.1345Z" fill="#F79E1B"/>
<path d="M28.3635 10.9979C28.3635 12.3736 27.9764 13.7217 27.2464 14.8878C26.5165 16.054 25.4731 16.9913 24.2356 17.5925C22.9982 18.1937 21.6165 18.4346 20.2486 18.2876C18.8806 18.1407 17.5817 17.6118 16.5001 16.7615C17.3731 16.0755 18.0788 15.2001 18.5641 14.2015C19.0494 13.2029 19.3016 12.1071 19.3016 10.9968C19.3016 9.88654 19.0494 8.79075 18.5641 7.79214C18.0788 6.79354 17.3731 5.91818 16.5001 5.23213C17.5817 4.38181 18.8807 3.85295 20.2486 3.70601C21.6165 3.55906 22.9982 3.79997 24.2356 4.40118C25.4731 5.00239 26.5165 5.93965 27.2464 7.10582C27.9764 8.272 28.3635 9.62002 28.3635 10.9958V10.9979Z" fill="#F79E1B"/>
</svg>
