<svg width="30" height="30" viewBox="0 0 30 30" fill="none" xmlns="http://www.w3.org/2000/svg">
<path d="M11.5625 10C11.5625 9.48224 11.9822 9.0625 12.5 9.0625H17.5C18.0177 9.0625 18.4375 9.48224 18.4375 10C18.4375 10.5178 18.0177 10.9375 17.5 10.9375H12.5C11.9822 10.9375 11.5625 10.5178 11.5625 10Z" fill="#F15A24"/>
<path d="M9.0625 15C9.0625 14.4822 9.48224 14.0625 10 14.0625H20C20.5177 14.0625 20.9375 14.4822 20.9375 15C20.9375 15.5178 20.5177 15.9375 20 15.9375H10C9.48224 15.9375 9.0625 15.5178 9.0625 15Z" fill="#F15A24"/>
<path fill-rule="evenodd" clip-rule="evenodd" d="M12.458 1.5625H17.542C19.2566 1.5625 20.6009 1.56249 21.6814 1.65076C22.7815 1.74065 23.6904 1.92673 24.513 2.34589C25.8655 3.03498 26.965 4.13453 27.6541 5.48694C28.0732 6.30961 28.2594 7.21849 28.3492 8.31868C28.4375 9.3991 28.4375 10.7434 28.4375 12.458V13.9803V14.1639C28.4377 16.0996 28.438 17.2805 28.1471 18.2724C27.4584 20.6214 25.6214 22.4584 23.2724 23.1471C22.2805 23.438 21.0996 23.4377 19.1639 23.4375C19.1034 23.4375 19.0422 23.4375 18.9803 23.4375H18.2943L18.2189 23.4376C17.1349 23.4445 16.079 23.783 15.1929 24.4074L15.1314 24.4511L11.868 26.7821C9.98737 28.1254 7.5161 26.1855 8.37442 24.0396C8.48979 23.7513 8.27739 23.4375 7.96676 23.4375H7.21457C4.09301 23.4375 1.5625 20.907 1.5625 17.7854V12.458C1.5625 10.7434 1.56249 9.39911 1.65076 8.31868C1.74065 7.21849 1.92673 6.30961 2.34589 5.48694C3.03498 4.13453 4.13453 3.03498 5.48694 2.34589C6.30961 1.92673 7.21849 1.74065 8.31868 1.65076C9.39911 1.56249 10.7434 1.5625 12.458 1.5625ZM8.47135 3.51954C7.48712 3.59995 6.85246 3.75449 6.33817 4.01652C5.33856 4.52585 4.52585 5.33856 4.01652 6.33817C3.75449 6.85246 3.59995 7.48712 3.51954 8.47135C3.43822 9.46653 3.4375 10.7344 3.4375 12.5V17.7854C3.4375 19.8715 5.12855 21.5625 7.21457 21.5625H7.96676C9.60389 21.5625 10.7233 23.216 10.1153 24.736C9.95246 25.1431 10.4214 25.5112 10.7782 25.2564L14.1128 22.8746C15.3116 22.0299 16.7403 21.572 18.2069 21.5626L18.2943 21.5625H18.9803C21.1576 21.5625 22.0454 21.553 22.7448 21.3479C24.481 20.8388 25.8388 19.481 26.3479 17.7447C26.553 17.0454 26.5625 16.1576 26.5625 13.9803V12.5C26.5625 10.7344 26.5618 9.46653 26.4805 8.47135C26.4 7.48712 26.2455 6.85246 25.9835 6.33817C25.4741 5.33856 24.6614 4.52585 23.6619 4.01652C23.1475 3.75449 22.5129 3.59995 21.5286 3.51954C20.5335 3.43822 19.2656 3.4375 17.5 3.4375H12.5C10.7344 3.4375 9.46653 3.43822 8.47135 3.51954Z" fill="#F15A24"/>
</svg>
