<svg width="15" height="14" viewBox="0 0 15 14" fill="none" xmlns="http://www.w3.org/2000/svg">
<path d="M13.3333 0.583252H5.16667C5.08931 0.583252 5.01513 0.613981 4.96043 0.668679C4.90573 0.723377 4.875 0.797564 4.875 0.874919V11.3749C4.875 11.7617 4.72135 12.1326 4.44786 12.4061C4.17437 12.6796 3.80344 12.8333 3.41667 12.8333C3.02989 12.8333 2.65896 12.6796 2.38547 12.4061C2.11198 12.1326 1.95833 11.7617 1.95833 11.3749V6.12492H2.25V5.54158H1.66667C1.58931 5.54158 1.51513 5.57231 1.46043 5.62701C1.40573 5.68171 1.375 5.7559 1.375 5.83325V11.3749C1.375 11.9164 1.5901 12.4357 1.97299 12.8186C2.35588 13.2015 2.87518 13.4166 3.41667 13.4166H11.5833C12.1248 13.4166 12.6441 13.2015 13.027 12.8186C13.4099 12.4357 13.625 11.9164 13.625 11.3749V0.874919C13.625 0.797564 13.5943 0.723377 13.5396 0.668679C13.4849 0.613981 13.4107 0.583252 13.3333 0.583252ZM13.0417 11.3749C13.0417 11.7617 12.888 12.1326 12.6145 12.4061C12.341 12.6796 11.9701 12.8333 11.5833 12.8333H4.84292C5.03741 12.6434 5.19202 12.4166 5.2977 12.1662C5.40338 11.9157 5.45799 11.6467 5.45833 11.3749V1.16659H13.0417V11.3749ZM2.54167 11.3749V4.95825C2.54167 4.8809 2.5724 4.80671 2.62709 4.75201C2.68179 4.69731 2.75598 4.66658 2.83333 4.66658H3.41667V5.24992H3.125V11.3749C3.125 11.4523 3.15573 11.5265 3.21043 11.5812C3.26513 11.6359 3.33931 11.6666 3.41667 11.6666C3.49402 11.6666 3.56821 11.6359 3.62291 11.5812C3.6776 11.5265 3.70833 11.4523 3.70833 11.3749V3.79159C3.70833 3.71423 3.73906 3.64004 3.79376 3.58535C3.84846 3.53065 3.92265 3.49992 4 3.49992H4.58333V4.08325H4.29167V11.3749C4.29167 11.607 4.19948 11.8295 4.03539 11.9936C3.87129 12.1577 3.64873 12.2499 3.41667 12.2499C3.1846 12.2499 2.96204 12.1577 2.79795 11.9936C2.63385 11.8295 2.54167 11.607 2.54167 11.3749ZM6.91667 4.66658H11.5833C11.6607 4.66658 11.7349 4.63586 11.7896 4.58116C11.8443 4.52646 11.875 4.45227 11.875 4.37492V2.62492C11.875 2.54756 11.8443 2.47338 11.7896 2.41868C11.7349 2.36398 11.6607 2.33325 11.5833 2.33325H6.91667C6.83931 2.33325 6.76512 2.36398 6.71043 2.41868C6.65573 2.47338 6.625 2.54756 6.625 2.62492V4.37492C6.625 4.45227 6.65573 4.52646 6.71043 4.58116C6.76512 4.63586 6.83931 4.66658 6.91667 4.66658ZM7.20833 2.91659H11.2917V4.08325H7.20833V2.91659ZM8.08333 7.58325V7.29158H7.20833C7.13098 7.29158 7.05679 7.26086 7.00209 7.20616C6.9474 7.15146 6.91667 7.07727 6.91667 6.99992V6.12492C6.91667 6.04756 6.9474 5.97338 7.00209 5.91868C7.05679 5.86398 7.13098 5.83325 7.20833 5.83325H7.5V5.54158H8.08333V5.83325H8.66667V6.41658H7.5V6.70825H8.375C8.45235 6.70825 8.52654 6.73898 8.58124 6.79368C8.63594 6.84838 8.66667 6.92256 8.66667 6.99992V7.87492C8.66667 7.95227 8.63594 8.02646 8.58124 8.08116C8.52654 8.13586 8.45235 8.16658 8.375 8.16658H8.08333V8.45825H7.5V8.16658H6.91667V7.58325H8.08333ZM9.25 5.83325H11.875V6.41658H9.25V5.83325ZM9.25 7.58325H11.875V8.16658H9.25V7.58325ZM6.91667 9.33325H11.875V9.91658H6.91667V9.33325ZM6.91667 11.0833H11.875V11.6666H6.91667V11.0833Z" fill="#F15A24"/>
</svg>
