<svg width="137" height="32" viewBox="0 0 137 32" fill="none" xmlns="http://www.w3.org/2000/svg">
<g clip-path="url(#clip0_9220_456)">
<path fill-rule="evenodd" clip-rule="evenodd" d="M120.509 22.4077C122.312 24.0783 124.675 25.0039 127.125 25C129.749 24.9832 132.26 23.9223 134.109 22.0487C135.959 20.1752 136.997 17.6412 136.997 15C136.997 12.3588 135.959 9.82485 134.109 7.95131C132.26 6.07777 129.749 5.0168 127.125 5.00001C124.675 4.99605 122.312 5.9216 120.509 7.5923C119.483 8.53025 118.663 9.67379 118.102 10.9495C117.541 12.2252 117.251 13.6049 117.251 15C117.251 16.3951 117.541 17.7748 118.102 19.0505C118.663 20.3262 119.483 21.4698 120.509 22.4077Z" fill="#E9B040"/>
<path fill-rule="evenodd" clip-rule="evenodd" d="M135.687 20.5707C135.687 20.5301 135.695 20.4899 135.71 20.4523C135.726 20.4148 135.748 20.3806 135.777 20.3519C135.805 20.3232 135.839 20.3005 135.877 20.285C135.914 20.2695 135.954 20.2616 135.994 20.2618C136.036 20.2599 136.077 20.2665 136.116 20.2811C136.155 20.2957 136.191 20.3181 136.221 20.347C136.252 20.3758 136.276 20.4105 136.292 20.4489C136.309 20.4874 136.318 20.5288 136.318 20.5707C136.319 20.6139 136.312 20.657 136.296 20.6972C136.281 20.7375 136.257 20.774 136.227 20.8046C136.196 20.8352 136.16 20.8592 136.12 20.8751C136.08 20.891 136.037 20.8985 135.994 20.897C135.953 20.8967 135.911 20.8879 135.873 20.8711C135.835 20.8544 135.801 20.83 135.772 20.7996C135.743 20.7691 135.721 20.7331 135.706 20.6938C135.692 20.6545 135.685 20.6126 135.687 20.5707ZM135.994 20.8285C136.062 20.8268 136.126 20.7992 136.173 20.7512C136.221 20.7032 136.248 20.6387 136.25 20.5709C136.247 20.505 136.219 20.4427 136.171 20.3977C136.123 20.3527 136.06 20.3286 135.994 20.3307C135.931 20.332 135.871 20.3577 135.827 20.4025C135.782 20.4473 135.757 20.5076 135.756 20.5709C135.757 20.636 135.782 20.6984 135.826 20.746C135.87 20.7936 135.93 20.823 135.994 20.8285ZM135.96 20.7255H135.892V20.4335H136.011C136.035 20.4308 136.059 20.437 136.079 20.4509C136.113 20.4679 136.113 20.4853 136.113 20.5196C136.113 20.554 136.097 20.5883 136.062 20.5883L136.131 20.7257H136.045L136.011 20.6045H135.96V20.5529H136.028C136.045 20.5529 136.045 20.5356 136.045 20.5186C136.045 20.5016 136.045 20.5012 136.028 20.4843H135.96V20.7255Z" fill="#E9B040"/>
<path fill-rule="evenodd" clip-rule="evenodd" d="M123.698 13.9443C123.664 13.5839 123.595 13.2406 123.527 12.8799H117.49C117.563 12.5262 117.654 12.1766 117.763 11.8323H123.237C123.119 11.4709 122.982 11.1161 122.828 10.7679H118.189C118.36 10.4042 118.547 10.0494 118.751 9.70354H122.248C122.023 9.33689 121.772 8.98693 121.497 8.65632H119.503C119.811 8.27686 120.148 7.92108 120.509 7.59192C119.313 6.51576 117.875 5.74812 116.319 5.35501C114.763 4.9619 113.135 4.95508 111.576 5.33514C110.016 5.7152 108.572 6.47076 107.367 7.53686C106.162 8.60297 105.232 9.94772 104.658 11.4555C104.083 12.9633 103.881 14.589 104.068 16.1929C104.256 17.7968 104.827 19.3308 105.734 20.6631C106.641 21.9954 107.855 23.0862 109.273 23.8415C110.691 24.5969 112.27 24.9943 113.875 24.9996C116.331 25.0036 118.699 24.0783 120.509 22.4074C120.864 22.084 121.195 21.7338 121.498 21.3599H119.503C119.233 21.0193 118.983 20.664 118.752 20.2955H122.248C122.468 19.9561 122.662 19.6002 122.828 19.2311H118.189C118.03 18.8895 117.887 18.5399 117.763 18.1837H123.237C123.352 17.8342 123.449 17.4789 123.527 17.1193C123.602 16.7677 123.659 16.4124 123.698 16.0549C123.732 15.7069 123.749 15.3573 123.749 15.0075C123.749 14.6477 123.732 14.2872 123.698 13.9439V13.9443Z" fill="#CC2131"/>
<path fill-rule="evenodd" clip-rule="evenodd" d="M135.687 17.3262C135.685 17.2843 135.692 17.2425 135.706 17.2032C135.721 17.1639 135.743 17.128 135.772 17.0976C135.801 17.0672 135.835 17.0429 135.873 17.0261C135.911 17.0094 135.953 17.0006 135.994 17.0003C136.037 16.9988 136.08 17.0063 136.12 17.0221C136.16 17.038 136.196 17.0619 136.226 17.0925C136.257 17.1231 136.281 17.1596 136.296 17.1998C136.312 17.24 136.319 17.283 136.318 17.3262C136.32 17.3688 136.312 17.4114 136.297 17.4512C136.282 17.491 136.259 17.5274 136.23 17.5581C136.2 17.5888 136.165 17.6132 136.126 17.6299C136.087 17.6466 136.045 17.6552 136.003 17.6552C135.96 17.6552 135.918 17.6466 135.879 17.6299C135.84 17.6132 135.805 17.5888 135.776 17.5581C135.746 17.5274 135.723 17.491 135.708 17.4512C135.693 17.4114 135.686 17.3688 135.687 17.3262ZM135.994 17.5664C136.027 17.5688 136.06 17.5643 136.091 17.5533C136.122 17.5423 136.15 17.525 136.174 17.5024C136.198 17.4799 136.217 17.4526 136.231 17.4223C136.244 17.392 136.25 17.3593 136.25 17.3262C136.25 17.2931 136.244 17.2604 136.231 17.2301C136.217 17.1998 136.198 17.1725 136.174 17.15C136.15 17.1274 136.122 17.1101 136.091 17.0991C136.06 17.0881 136.027 17.0836 135.994 17.086C135.931 17.086 135.87 17.1113 135.825 17.1563C135.781 17.2014 135.756 17.2625 135.756 17.3262C135.756 17.3899 135.781 17.451 135.825 17.4961C135.87 17.5411 135.931 17.5664 135.994 17.5664ZM135.96 17.4634H135.892V17.1888H136.079C136.113 17.2062 136.113 17.2405 136.113 17.2749C136.111 17.2896 136.105 17.3036 136.096 17.3156C136.087 17.3275 136.076 17.3371 136.062 17.3436L136.131 17.4636H136.045L136.011 17.3606H135.96V17.309H135.994C136.011 17.309 136.028 17.309 136.028 17.2917C136.045 17.2917 136.045 17.2747 136.045 17.2573C136.045 17.2551 136.045 17.2528 136.044 17.2507C136.043 17.2487 136.042 17.2468 136.04 17.2452C136.039 17.2436 136.037 17.2423 136.035 17.2415C136.033 17.2407 136.031 17.2403 136.028 17.2403C136.028 17.223 136.011 17.2403 135.994 17.2403H135.96V17.4634Z" fill="white"/>
<path fill-rule="evenodd" clip-rule="evenodd" d="M117.149 17.8927C116.889 17.9731 116.619 18.0193 116.347 18.0301C115.836 18.0301 115.529 17.7038 115.529 17.1209C115.532 16.994 115.544 16.8675 115.563 16.742L115.631 16.3474L115.682 16.0211L116.143 13.2062H117.166L117.046 13.8242H117.694L117.541 14.8547H116.893L116.62 16.537C116.608 16.5934 116.603 16.651 116.603 16.7087C116.603 16.932 116.705 17.0176 116.961 17.0176C117.07 17.0157 117.178 17.0042 117.285 16.9833L117.149 17.8925V17.8927ZM120.458 17.8584C120.102 17.9601 119.735 18.0121 119.366 18.0127C118.206 18.0127 117.541 17.3947 117.541 16.1761C117.541 14.751 118.326 13.721 119.417 13.721C120.287 13.721 120.85 14.3047 120.85 15.2143C120.846 15.5554 120.806 15.895 120.73 16.2274H118.598C118.585 16.2722 118.58 16.3184 118.581 16.3648C118.581 16.8455 118.905 17.0857 119.519 17.0857C119.903 17.0844 120.281 16.9965 120.627 16.8285L120.458 17.8584ZM119.826 15.4035V15.1974C119.835 15.1269 119.828 15.0553 119.806 14.9878C119.784 14.9204 119.746 14.8589 119.697 14.8078C119.648 14.7568 119.588 14.7174 119.522 14.6927C119.456 14.6681 119.385 14.6586 119.315 14.6652C118.974 14.6652 118.735 14.9226 118.632 15.4033H119.826L119.826 15.4035ZM108.963 17.944H107.905L108.519 14.0473L107.138 17.944H106.405L106.319 14.0647L105.671 17.944H104.631L105.466 12.8799H107.018L107.053 16.0046L108.093 12.8799H109.799L108.963 17.944ZM111.538 16.1074C111.471 16.0943 111.402 16.0885 111.334 16.09C110.72 16.09 110.413 16.3303 110.413 16.7081C110.407 16.763 110.413 16.8185 110.43 16.8709C110.447 16.9233 110.475 16.9714 110.513 17.012C110.55 17.0526 110.595 17.0848 110.645 17.1064C110.696 17.1281 110.75 17.1386 110.805 17.1374C111.317 17.1374 111.521 16.7081 111.538 16.107V16.1074ZM112.391 17.944H111.47L111.487 17.5151C111.248 17.841 110.925 18.0127 110.361 18.0127C109.85 18.0127 109.406 17.5494 109.406 16.8798C109.408 16.6992 109.437 16.5199 109.492 16.3478C109.662 15.7124 110.293 15.3174 111.265 15.3004C111.386 15.3004 111.572 15.3004 111.743 15.3178C111.768 15.2285 111.779 15.1358 111.777 15.043C111.777 14.7682 111.556 14.6823 111.06 14.6823C110.759 14.6807 110.46 14.727 110.174 14.8197L110.02 14.8541L109.952 14.8711L110.105 13.9441C110.506 13.8041 110.926 13.7291 111.35 13.7218C112.271 13.7218 112.765 14.151 112.765 14.9406C112.776 15.2106 112.759 15.4811 112.714 15.7475L112.476 17.2231L112.442 17.4807L112.424 17.6868L112.407 17.8242L112.39 17.944H112.391ZM125.608 13.8584C125.944 13.8698 126.272 13.9641 126.563 14.133L126.751 13.0342C126.662 12.9943 126.571 12.9599 126.478 12.9312L126.052 12.81C125.89 12.7731 125.724 12.7558 125.557 12.7584C125.028 12.7584 124.721 12.7756 124.398 12.9645C124.164 13.1192 123.952 13.3039 123.766 13.5139L123.63 13.4796L122.538 14.252L122.59 13.8228H121.464L120.799 17.9428H121.874L122.266 15.7286C122.266 15.7286 122.42 15.4192 122.488 15.3166C122.554 15.2225 122.645 15.1487 122.75 15.1032C122.855 15.0578 122.971 15.0424 123.084 15.059H123.17C123.134 15.3206 123.117 15.5845 123.119 15.8486C123.119 17.1876 123.869 18.0289 125.029 18.0289C125.346 18.0268 125.662 17.9806 125.967 17.8915L126.155 16.7243C125.881 16.8897 125.57 16.9841 125.251 16.9988C124.621 16.9988 124.245 16.5182 124.245 15.7629C124.245 14.647 124.807 13.8574 125.61 13.8574L125.608 13.8584ZM134.664 12.8799L134.426 14.3219C134.331 14.1453 134.191 13.9978 134.019 13.895C133.848 13.7923 133.653 13.7381 133.453 13.7382C133.153 13.747 132.862 13.8401 132.612 14.007C132.361 14.1738 132.163 14.4077 132.038 14.6823V14.6654L131.355 14.2532L131.423 13.824H130.281L129.633 17.944H130.69L131.048 15.7298C131.048 15.7298 131.321 15.4204 131.389 15.3178C131.447 15.2436 131.519 15.1823 131.601 15.1379C131.683 15.0936 131.774 15.0671 131.867 15.0602C131.737 15.4531 131.674 15.8651 131.679 16.2791C131.679 17.3096 132.208 17.9966 132.992 17.9966C133.181 18.0004 133.369 17.9605 133.54 17.8802C133.712 17.7998 133.863 17.681 133.982 17.5329L133.931 17.9448H134.936L135.755 12.8807H134.663L134.664 12.8799ZM133.351 16.9657C132.992 16.9657 132.805 16.6911 132.805 16.1587C132.805 15.3517 133.146 14.7682 133.64 14.7682C134.015 14.7682 134.202 15.0602 134.202 15.5752C134.202 16.3992 133.861 16.9657 133.35 16.9657H133.351ZM128.422 16.1074C128.355 16.0943 128.286 16.0885 128.217 16.09C127.603 16.09 127.296 16.3303 127.296 16.7081C127.29 16.763 127.296 16.8185 127.314 16.8709C127.331 16.9233 127.359 16.9714 127.396 17.012C127.433 17.0526 127.478 17.0848 127.529 17.1064C127.579 17.1281 127.634 17.1386 127.689 17.1374C128.2 17.1374 128.405 16.7081 128.422 16.1074ZM129.275 17.944H128.337L128.371 17.5151C128.132 17.841 127.809 18.0127 127.245 18.0127C126.716 18.0127 126.256 17.5664 126.256 16.8798C126.256 15.9015 126.989 15.3006 128.149 15.3006C128.303 15.2983 128.456 15.3041 128.61 15.318C128.639 15.2291 128.656 15.1367 128.661 15.0432C128.661 14.7684 128.44 14.6826 127.928 14.6826C127.627 14.6822 127.328 14.7285 127.041 14.8199L126.904 14.8543L126.836 14.8713L126.989 13.9443C127.39 13.8043 127.81 13.7293 128.234 13.722C129.155 13.722 129.632 14.1512 129.632 14.9408C129.652 15.2108 129.635 15.4824 129.581 15.7478L129.361 17.2241L129.326 17.4817L129.292 17.6878L129.275 17.8252V17.9448L129.275 17.944ZM114.625 14.6995C114.893 14.701 115.161 14.7239 115.426 14.7682L115.58 13.8069C115.273 13.7725 114.864 13.721 114.625 13.721C113.431 13.721 113.039 14.3734 113.039 15.1287C113.039 15.6267 113.26 15.987 113.841 16.2616C114.267 16.4677 114.335 16.5018 114.335 16.6909C114.335 16.9481 114.114 17.1029 113.704 17.1029C113.373 17.1029 113.044 17.0448 112.732 16.9312L112.612 17.8751L112.628 17.8925L112.833 17.9268C112.923 17.9487 113.014 17.9658 113.106 17.9782C113.362 17.9955 113.584 18.0125 113.72 18.0125C114.914 18.0125 115.409 17.5492 115.409 16.6386C115.409 16.0728 115.136 15.7294 114.607 15.4887C114.146 15.2824 114.095 15.2485 114.095 15.0594C114.095 14.8703 114.3 14.6989 114.624 14.6989L114.625 14.6995Z" fill="#1B3771"/>
<path fill-rule="evenodd" clip-rule="evenodd" d="M127.041 12.7082L126.853 13.807C126.562 13.6379 126.234 13.5436 125.898 13.5324C125.096 13.5324 124.533 14.322 124.533 15.4379C124.533 16.2105 124.908 16.6738 125.539 16.6738C125.856 16.658 126.165 16.5701 126.443 16.4166L126.255 17.5665C125.951 17.6602 125.635 17.7122 125.317 17.7213C124.157 17.7213 123.441 16.8799 123.441 15.524C123.441 13.7213 124.43 12.4508 125.846 12.4508C126.012 12.4482 126.178 12.4655 126.34 12.5023L126.766 12.6054C126.903 12.6569 126.937 12.6741 127.04 12.7082H127.041ZM123.596 13.4637H123.493C123.135 13.4637 122.931 13.6354 122.607 14.1331L122.709 13.4978H121.737L121.072 17.618H122.146C122.538 15.0944 122.641 14.6653 123.152 14.6653H123.221C123.299 14.2524 123.437 13.8534 123.63 13.4807L123.596 13.4637ZM117.422 17.5665C117.176 17.6576 116.916 17.7041 116.655 17.7039C116.109 17.7039 115.802 17.395 115.802 16.7947C115.805 16.6738 115.817 16.5534 115.836 16.434L115.904 16.022L115.955 15.6961L116.416 12.8804H117.474L117.353 13.4984H117.899L117.763 14.5113H117.217L116.927 16.2287C116.914 16.2849 116.908 16.3427 116.91 16.4005C116.91 16.6066 117.013 16.6924 117.268 16.6924C117.366 16.7013 117.465 16.6896 117.558 16.6581L117.422 17.5673V17.5665ZM113.312 14.8025C113.312 15.3177 113.55 15.6779 114.113 15.9527C114.557 16.1588 114.625 16.2273 114.625 16.3991C114.625 16.6567 114.437 16.7767 114.011 16.7767C113.687 16.7744 113.364 16.7224 113.056 16.6223L112.902 17.5663L112.953 17.5837L113.141 17.618C113.236 17.6421 113.333 17.6537 113.431 17.6524C113.623 17.6782 113.817 17.6896 114.011 17.6867C115.136 17.6867 115.665 17.2574 115.665 16.3128C115.665 15.746 115.444 15.4197 114.915 15.1625C114.454 14.9572 114.403 14.9059 114.403 14.717C114.403 14.4947 114.59 14.3909 114.931 14.3909C115.188 14.3932 115.444 14.4104 115.699 14.4424L115.852 13.4982C115.542 13.4456 115.229 13.4169 114.914 13.4124C113.72 13.4124 113.294 14.0474 113.311 14.8027L113.312 14.8025ZM135.21 17.618H134.204L134.255 17.223C134.133 17.3659 133.981 17.48 133.81 17.5571C133.639 17.6343 133.453 17.6726 133.266 17.6693C132.481 17.6693 131.97 17.0001 131.97 15.9701C131.97 14.5962 132.771 13.4291 133.709 13.4291C133.913 13.4303 134.114 13.4826 134.292 13.5814C134.471 13.6802 134.622 13.8223 134.733 13.9949L134.972 12.5529H136.029L135.21 17.6172V17.618ZM133.641 16.6567C134.136 16.6567 134.477 16.0729 134.477 15.266C134.477 14.7338 134.289 14.459 133.915 14.459C133.437 14.459 133.08 15.0247 133.08 15.8329C133.08 16.3825 133.267 16.6572 133.642 16.6571L133.641 16.6567ZM120.696 17.5321C120.338 17.6491 119.964 17.7071 119.588 17.7039C118.394 17.7039 117.78 17.0688 117.78 15.8499C117.78 14.4422 118.564 13.395 119.639 13.395C120.526 13.395 121.088 13.9787 121.088 14.8885C121.086 15.2364 121.04 15.5826 120.952 15.919H118.837C118.824 15.958 118.819 15.9991 118.82 16.0402C118.82 16.5209 119.144 16.7611 119.758 16.7611C120.143 16.7681 120.524 16.6796 120.867 16.5035L120.696 17.534V17.5321ZM120.099 15.0773V14.8714C120.108 14.8008 120.101 14.7292 120.079 14.6618C120.056 14.5944 120.019 14.5329 119.97 14.4818C119.921 14.4308 119.861 14.3914 119.795 14.3667C119.729 14.342 119.658 14.3326 119.588 14.3392C119.246 14.3392 119.008 14.5968 118.905 15.0773H120.099ZM109.236 17.6182H108.178L108.792 13.7211L107.411 17.6182H106.677L106.592 13.7554L105.944 17.6182H104.955L105.792 12.5539H107.327L107.377 15.6955L108.401 12.5539H110.072L109.237 17.6182H109.236ZM111.879 15.7812C111.777 15.7812 111.726 15.7642 111.64 15.7642C111.043 15.7642 110.737 15.9865 110.737 16.3993C110.73 16.4522 110.734 16.506 110.75 16.5571C110.765 16.6081 110.792 16.6549 110.828 16.6943C110.864 16.7337 110.908 16.7646 110.957 16.7848C111.006 16.805 111.059 16.814 111.112 16.8112C111.556 16.8112 111.863 16.3993 111.88 15.7808L111.879 15.7812ZM112.664 17.6182H111.777L111.793 17.1889C111.659 17.357 111.487 17.4901 111.291 17.5768C111.095 17.6635 110.881 17.7013 110.668 17.6869C110.088 17.6869 109.696 17.2406 109.696 16.571C109.696 15.5583 110.378 14.9748 111.571 14.9748C111.692 14.9748 111.844 14.992 112.015 15.009C112.039 14.9254 112.051 14.8386 112.049 14.7515C112.049 14.477 111.861 14.3739 111.367 14.3739C111.068 14.3702 110.77 14.4048 110.48 14.477L110.326 14.5285L110.224 14.5457L110.377 13.6187C110.791 13.4852 111.222 13.4157 111.657 13.4126C112.577 13.4126 113.072 13.8245 113.072 14.6142C113.065 14.8907 113.037 15.1663 112.987 15.4383L112.748 16.8977L112.714 17.1549L112.697 17.361L112.68 17.5158L112.663 17.6184L112.664 17.6182ZM128.763 15.7812C128.643 15.7812 128.593 15.7642 128.525 15.7642C127.911 15.7642 127.603 15.9865 127.603 16.3993C127.598 16.4533 127.604 16.5078 127.622 16.5592C127.639 16.6105 127.668 16.6574 127.705 16.6966C127.742 16.7357 127.788 16.7663 127.838 16.7861C127.888 16.8059 127.942 16.8145 127.996 16.8112C128.422 16.8112 128.746 16.3993 128.763 15.7808V15.7812ZM129.548 17.6182H128.661L128.678 17.1889C128.544 17.357 128.372 17.4901 128.176 17.5768C127.98 17.6636 127.766 17.7013 127.552 17.6869C126.972 17.6869 126.58 17.2406 126.58 16.571C126.58 15.5583 127.262 14.9748 128.456 14.9748C128.576 14.9748 128.729 14.992 128.882 15.009C128.91 14.9255 128.927 14.8391 128.934 14.7515C128.934 14.477 128.746 14.3739 128.251 14.3739C127.947 14.3703 127.644 14.405 127.348 14.477L127.212 14.5285L127.109 14.5457L127.263 13.6187C127.676 13.4852 128.108 13.4157 128.542 13.4126C129.463 13.4126 129.94 13.8245 129.94 14.6142C129.943 14.8912 129.914 15.1677 129.855 15.4383L129.634 16.8977L129.6 17.1549L129.566 17.361L129.549 17.5158V17.6184L129.548 17.6182ZM132.413 13.4637H132.31C131.953 13.4637 131.748 13.6354 131.424 14.1331L131.526 13.4978H130.554L129.906 17.618H130.962C131.355 15.0944 131.457 14.6653 131.969 14.6653H132.037C132.115 14.2524 132.253 13.8534 132.446 13.4807L132.412 13.4637H132.413Z" fill="white"/>
</g>
<path d="M80.2094 20.2231H78.0119L79.3853 11.7827H81.5831L80.2094 20.2231ZM76.1633 11.7827L74.0683 17.5881L73.8204 16.338L73.8206 16.3384L73.0812 12.5426C73.0812 12.5426 72.9918 11.7827 72.0387 11.7827H68.5753L68.5347 11.9256C68.5347 11.9256 69.5938 12.1459 70.8333 12.8903L72.7425 20.2234H75.0321L78.5283 11.7827H76.1633ZM93.4477 20.2231H95.4655L93.7062 11.7824H91.9397C91.124 11.7824 90.9253 12.4114 90.9253 12.4114L87.6479 20.2231H89.9387L90.3968 18.9694H93.1903L93.4477 20.2231ZM91.0296 17.2375L92.1843 14.0788L92.8338 17.2375H91.0296ZM87.8197 13.8124L88.1333 11.9999C88.1333 11.9999 87.1657 11.6318 86.1569 11.6318C85.0664 11.6318 82.4767 12.1085 82.4767 14.4261C82.4767 16.6066 85.5161 16.6337 85.5161 17.7791C85.5161 18.9245 82.7899 18.7192 81.8901 17.997L81.5634 19.8922C81.5634 19.8922 82.5447 20.3688 84.0438 20.3688C85.5434 20.3688 87.8057 19.5923 87.8057 17.479C87.8057 15.2845 84.739 15.0801 84.739 14.126C84.7392 13.1716 86.8794 13.2942 87.8197 13.8124Z" fill="#2566AF"/>
<path d="M73.8206 16.3382L73.0812 12.5424C73.0812 12.5424 72.9918 11.7825 72.0387 11.7825H68.5753L68.5347 11.9254C68.5347 11.9254 70.1993 12.2704 71.796 13.563C73.3227 14.7984 73.8206 16.3382 73.8206 16.3382Z" fill="#E6A540"/>
<rect x="27" y="8" width="28" height="17" rx="2.125" fill="#FDFDFD"/>
<path d="M51.9999 13.1294H38.6129L34.4583 17.7456H40.4593L44.614 15.8991H51.9999V13.1294Z" fill="#FDDA1C"/>
<path d="M29 18.8612V15.4636H36.5L35 16.9197H40.1633L42.5901 14.4929H46.9583L43.0755 18.8612H29Z" fill="#0066B2"/>
<path d="M28.8104 12V8.90909H30.048C30.2754 8.90909 30.465 8.9428 30.6169 9.01021C30.7689 9.07762 30.8831 9.17119 30.9595 9.29093C31.036 9.40965 31.0742 9.54649 31.0742 9.70144C31.0742 9.82218 31.0501 9.92833 31.0018 10.0199C30.9535 10.1104 30.8871 10.1849 30.8026 10.2433C30.7191 10.3006 30.6235 10.3414 30.5158 10.3655V10.3957C30.6335 10.4007 30.7437 10.4339 30.8463 10.4953C30.95 10.5567 31.034 10.6427 31.0984 10.7534C31.1628 10.863 31.195 10.9938 31.195 11.1458C31.195 11.3098 31.1542 11.4562 31.0727 11.585C30.9922 11.7127 30.873 11.8139 30.715 11.8883C30.5571 11.9628 30.3624 12 30.131 12H28.8104ZM29.4639 11.4657H29.9966C30.1788 11.4657 30.3116 11.431 30.3951 11.3616C30.4786 11.2912 30.5204 11.1976 30.5204 11.0809C30.5204 10.9954 30.4997 10.9199 30.4585 10.8545C30.4172 10.7891 30.3584 10.7378 30.2819 10.7006C30.2064 10.6633 30.1164 10.6447 30.0117 10.6447H29.4639V11.4657ZM29.4639 10.2025H29.9484C30.0379 10.2025 30.1174 10.1869 30.1868 10.1557C30.2572 10.1235 30.3126 10.0782 30.3528 10.0199C30.3941 9.96153 30.4147 9.8916 30.4147 9.8101C30.4147 9.69842 30.375 9.60837 30.2955 9.53995C30.217 9.47153 30.1053 9.43732 29.9604 9.43732H29.4639V10.2025ZM32.2692 12.0438C32.1213 12.0438 31.9895 12.0181 31.8738 11.9668C31.758 11.9145 31.6665 11.8375 31.5991 11.7359C31.5327 11.6333 31.4995 11.5055 31.4995 11.3525C31.4995 11.2238 31.5231 11.1156 31.5704 11.0281C31.6177 10.9405 31.6821 10.8701 31.7636 10.8168C31.8451 10.7634 31.9376 10.7232 32.0413 10.696C32.1459 10.6689 32.2556 10.6497 32.3703 10.6387C32.5051 10.6246 32.6138 10.6115 32.6963 10.5994C32.7788 10.5864 32.8387 10.5672 32.8759 10.5421C32.9131 10.5169 32.9317 10.4797 32.9317 10.4304V10.4213C32.9317 10.3258 32.9015 10.2518 32.8412 10.1995C32.7818 10.1472 32.6973 10.121 32.5876 10.121C32.4719 10.121 32.3799 10.1467 32.3114 10.198C32.243 10.2483 32.1977 10.3117 32.1756 10.3881L31.581 10.3398C31.6112 10.199 31.6705 10.0772 31.7591 9.97461C31.8476 9.87098 31.9618 9.79149 32.1017 9.73615C32.2425 9.67981 32.4055 9.65163 32.5906 9.65163C32.7194 9.65163 32.8427 9.66673 32.9604 9.69691C33.0791 9.7271 33.1843 9.77388 33.2758 9.83727C33.3684 9.90066 33.4413 9.98216 33.4947 10.0818C33.548 10.1804 33.5747 10.2986 33.5747 10.4364V12H32.9649V11.6785H32.9468C32.9096 11.751 32.8598 11.8149 32.7974 11.8702C32.735 11.9245 32.6601 11.9673 32.5725 11.9985C32.485 12.0287 32.3839 12.0438 32.2692 12.0438ZM32.4533 11.6001C32.5479 11.6001 32.6314 11.5814 32.7038 11.5442C32.7763 11.506 32.8331 11.4547 32.8744 11.3903C32.9156 11.3259 32.9363 11.2529 32.9363 11.1714V10.9254C32.9161 10.9385 32.8885 10.9506 32.8532 10.9616C32.819 10.9717 32.7803 10.9813 32.737 10.9903C32.6938 10.9984 32.6505 11.0059 32.6072 11.013C32.564 11.019 32.5247 11.0245 32.4895 11.0296C32.4141 11.0406 32.3482 11.0582 32.2918 11.0824C32.2355 11.1065 32.1917 11.1392 32.1605 11.1805C32.1293 11.2207 32.1137 11.271 32.1137 11.3314C32.1137 11.4189 32.1454 11.4859 32.2088 11.5321C32.2732 11.5774 32.3547 11.6001 32.4533 11.6001ZM34.7164 10.6598V12H34.0735V9.68182H34.6862V10.0908H34.7134C34.7647 9.956 34.8507 9.84934 34.9715 9.77086C35.0922 9.69138 35.2386 9.65163 35.4106 9.65163C35.5716 9.65163 35.712 9.68685 35.8317 9.75728C35.9515 9.82771 36.0445 9.92833 36.1109 10.0591C36.1773 10.1889 36.2105 10.3439 36.2105 10.524V12H35.5676V10.6387C35.5686 10.4968 35.5324 10.3861 35.4589 10.3066C35.3855 10.2261 35.2844 10.1859 35.1556 10.1859C35.0691 10.1859 34.9926 10.2045 34.9262 10.2417C34.8608 10.279 34.8095 10.3333 34.7722 10.4047C34.736 10.4752 34.7174 10.5602 34.7164 10.6598ZM37.7647 12.0453C37.5272 12.0453 37.323 11.995 37.1519 11.8944C36.9819 11.7927 36.8511 11.6519 36.7595 11.4718C36.669 11.2917 36.6237 11.0844 36.6237 10.85C36.6237 10.6125 36.6695 10.4042 36.761 10.2251C36.8536 10.045 36.9849 9.90468 37.1549 9.80407C37.325 9.70244 37.5272 9.65163 37.7617 9.65163C37.9639 9.65163 38.141 9.68836 38.2929 9.76181C38.4448 9.83526 38.5651 9.93839 38.6536 10.0712C38.7422 10.204 38.7909 10.36 38.8 10.5391H38.1933C38.1762 10.4234 38.1309 10.3303 38.0575 10.2599C37.985 10.1884 37.8899 10.1527 37.7722 10.1527C37.6726 10.1527 37.5856 10.1799 37.5111 10.2342C37.4377 10.2875 37.3803 10.3655 37.3391 10.4681C37.2978 10.5708 37.2772 10.695 37.2772 10.8409C37.2772 10.9888 37.2973 11.1146 37.3376 11.2182C37.3788 11.3219 37.4367 11.4008 37.5111 11.4552C37.5856 11.5095 37.6726 11.5367 37.7722 11.5367C37.8457 11.5367 37.9116 11.5216 37.9699 11.4914C38.0293 11.4612 38.0781 11.4174 38.1163 11.3601C38.1556 11.3017 38.1812 11.2318 38.1933 11.1503H38.8C38.7899 11.3274 38.7416 11.4833 38.6551 11.6182C38.5696 11.752 38.4514 11.8566 38.3004 11.9321C38.1495 12.0075 37.9709 12.0453 37.7647 12.0453ZM40.2591 12.0453C40.0246 12.0453 39.8219 11.9955 39.6508 11.8959C39.4808 11.7952 39.3495 11.6554 39.2569 11.4763C39.1644 11.2962 39.1181 11.0874 39.1181 10.85C39.1181 10.6105 39.1644 10.4012 39.2569 10.2221C39.3495 10.042 39.4808 9.90217 39.6508 9.80256C39.8219 9.70194 40.0246 9.65163 40.2591 9.65163C40.4935 9.65163 40.6957 9.70194 40.8658 9.80256C41.0368 9.90217 41.1686 10.042 41.2612 10.2221C41.3538 10.4012 41.4 10.6105 41.4 10.85C41.4 11.0874 41.3538 11.2962 41.2612 11.4763C41.1686 11.6554 41.0368 11.7952 40.8658 11.8959C40.6957 11.9955 40.4935 12.0453 40.2591 12.0453ZM40.2621 11.5472C40.3687 11.5472 40.4578 11.517 40.5292 11.4567C40.6006 11.3953 40.6545 11.3118 40.6907 11.2061C40.7279 11.1005 40.7465 10.9803 40.7465 10.8454C40.7465 10.7106 40.7279 10.5904 40.6907 10.4847C40.6545 10.3791 40.6006 10.2956 40.5292 10.2342C40.4578 10.1728 40.3687 10.1421 40.2621 10.1421C40.1544 10.1421 40.0639 10.1728 39.9904 10.2342C39.918 10.2956 39.8631 10.3791 39.8259 10.4847C39.7897 10.5904 39.7716 10.7106 39.7716 10.8454C39.7716 10.9803 39.7897 11.1005 39.8259 11.2061C39.8631 11.3118 39.918 11.3953 39.9904 11.4567C40.0639 11.517 40.1544 11.5472 40.2621 11.5472ZM42.461 10.6598V12H41.8181V9.68182H42.4308V10.0908H42.458C42.5093 9.956 42.5953 9.84934 42.7161 9.77086C42.8368 9.69138 42.9832 9.65163 43.1553 9.65163C43.3163 9.65163 43.4566 9.68685 43.5763 9.75728C43.6961 9.82771 43.7892 9.92833 43.8556 10.0591C43.922 10.1889 43.9552 10.3439 43.9552 10.524V12H43.3122V10.6387C43.3132 10.4968 43.277 10.3861 43.2036 10.3066C43.1301 10.2261 43.029 10.1859 42.9002 10.1859C42.8137 10.1859 42.7372 10.2045 42.6708 10.2417C42.6054 10.279 42.5541 10.3333 42.5169 10.4047C42.4806 10.4752 42.462 10.5602 42.461 10.6598ZM45.6949 9.68182V10.1648H44.2989V9.68182H45.6949ZM44.6158 9.12642H45.2588V11.2876C45.2588 11.347 45.2678 11.3933 45.2859 11.4265C45.304 11.4587 45.3292 11.4813 45.3614 11.4944C45.3946 11.5075 45.4328 11.514 45.4761 11.514C45.5063 11.514 45.5365 11.5115 45.5667 11.5065C45.5968 11.5004 45.62 11.4959 45.6361 11.4929L45.7372 11.9713C45.705 11.9814 45.6597 11.993 45.6014 12.006C45.543 12.0201 45.4721 12.0287 45.3886 12.0317C45.2336 12.0377 45.0978 12.0171 44.9811 11.9698C44.8654 11.9225 44.7753 11.8491 44.7109 11.7495C44.6465 11.6499 44.6148 11.5241 44.6158 11.3722V9.12642ZM46.7748 12.0438C46.6269 12.0438 46.4951 12.0181 46.3794 11.9668C46.2637 11.9145 46.1721 11.8375 46.1047 11.7359C46.0383 11.6333 46.0051 11.5055 46.0051 11.3525C46.0051 11.2238 46.0287 11.1156 46.076 11.0281C46.1233 10.9405 46.1877 10.8701 46.2692 10.8168C46.3507 10.7634 46.4433 10.7232 46.5469 10.696C46.6515 10.6689 46.7612 10.6497 46.8759 10.6387C47.0107 10.6246 47.1194 10.6115 47.2019 10.5994C47.2844 10.5864 47.3443 10.5672 47.3815 10.5421C47.4187 10.5169 47.4373 10.4797 47.4373 10.4304V10.4213C47.4373 10.3258 47.4072 10.2518 47.3468 10.1995C47.2874 10.1472 47.2029 10.121 47.0932 10.121C46.9775 10.121 46.8855 10.1467 46.817 10.198C46.7486 10.2483 46.7034 10.3117 46.6812 10.3881L46.0866 10.3398C46.1168 10.199 46.1761 10.0772 46.2647 9.97461C46.3532 9.87098 46.4674 9.79149 46.6073 9.73615C46.7481 9.67981 46.9111 9.65163 47.0963 9.65163C47.225 9.65163 47.3483 9.66673 47.466 9.69691C47.5847 9.7271 47.6899 9.77388 47.7814 9.83727C47.874 9.90066 47.947 9.98216 48.0003 10.0818C48.0536 10.1804 48.0803 10.2986 48.0803 10.4364V12H47.4705V11.6785H47.4524C47.4152 11.751 47.3654 11.8149 47.303 11.8702C47.2406 11.9245 47.1657 11.9673 47.0781 11.9985C46.9906 12.0287 46.8895 12.0438 46.7748 12.0438ZM46.9589 11.6001C47.0535 11.6001 47.137 11.5814 47.2095 11.5442C47.2819 11.506 47.3387 11.4547 47.38 11.3903C47.4212 11.3259 47.4419 11.2529 47.4419 11.1714V10.9254C47.4217 10.9385 47.3941 10.9506 47.3589 10.9616C47.3247 10.9717 47.2859 10.9813 47.2427 10.9903C47.1994 10.9984 47.1561 11.0059 47.1129 11.013C47.0696 11.019 47.0304 11.0245 46.9951 11.0296C46.9197 11.0406 46.8538 11.0582 46.7974 11.0824C46.7411 11.1065 46.6973 11.1392 46.6661 11.1805C46.6349 11.2207 46.6193 11.271 46.6193 11.3314C46.6193 11.4189 46.651 11.4859 46.7144 11.5321C46.7788 11.5774 46.8603 11.6001 46.9589 11.6001ZM49.6265 12.0453C49.389 12.0453 49.1848 11.995 49.0137 11.8944C48.8437 11.7927 48.7129 11.6519 48.6213 11.4718C48.5308 11.2917 48.4855 11.0844 48.4855 10.85C48.4855 10.6125 48.5313 10.4042 48.6228 10.2251C48.7154 10.045 48.8467 9.90468 49.0168 9.80407C49.1868 9.70244 49.389 9.65163 49.6235 9.65163C49.8257 9.65163 50.0028 9.68836 50.1547 9.76181C50.3066 9.83526 50.4269 9.93839 50.5154 10.0712C50.604 10.204 50.6528 10.36 50.6618 10.5391H50.0551C50.038 10.4234 49.9927 10.3303 49.9193 10.2599C49.8468 10.1884 49.7518 10.1527 49.634 10.1527C49.5344 10.1527 49.4474 10.1799 49.3729 10.2342C49.2995 10.2875 49.2421 10.3655 49.2009 10.4681C49.1596 10.5708 49.139 10.695 49.139 10.8409C49.139 10.9888 49.1591 11.1146 49.1994 11.2182C49.2406 11.3219 49.2985 11.4008 49.3729 11.4552C49.4474 11.5095 49.5344 11.5367 49.634 11.5367C49.7075 11.5367 49.7734 11.5216 49.8317 11.4914C49.8911 11.4612 49.9399 11.4174 49.9781 11.3601C50.0174 11.3017 50.043 11.2318 50.0551 11.1503H50.6618C50.6518 11.3274 50.6035 11.4833 50.5169 11.6182C50.4314 11.752 50.3132 11.8566 50.1623 11.9321C50.0113 12.0075 49.8327 12.0453 49.6265 12.0453ZM52.3065 9.68182V10.1648H50.9105V9.68182H52.3065ZM51.2274 9.12642H51.8703V11.2876C51.8703 11.347 51.8794 11.3933 51.8975 11.4265C51.9156 11.4587 51.9408 11.4813 51.973 11.4944C52.0062 11.5075 52.0444 11.514 52.0877 11.514C52.1179 11.514 52.148 11.5115 52.1782 11.5065C52.2084 11.5004 52.2315 11.4959 52.2476 11.4929L52.3488 11.9713C52.3166 11.9814 52.2713 11.993 52.2129 12.006C52.1546 12.0201 52.0836 12.0287 52.0001 12.0317C51.8452 12.0377 51.7094 12.0171 51.5926 11.9698C51.4769 11.9225 51.3869 11.8491 51.3225 11.7495C51.2581 11.6499 51.2264 11.5241 51.2274 11.3722V9.12642Z" fill="#0067B2"/>
<path d="M28.8104 19.5341H29.6163L30.4675 21.6108H30.5038L31.355 19.5341H32.1609V22.625H31.527V20.6132H31.5014L30.7015 22.6099H30.2698L29.4699 20.6056H29.4443V22.625H28.8104V19.5341ZM32.6872 22.625V20.3068H33.3302V22.625H32.6872ZM33.0102 20.008C32.9146 20.008 32.8326 19.9763 32.7642 19.9129C32.6968 19.8485 32.6631 19.7715 32.6631 19.682C32.6631 19.5935 32.6968 19.5175 32.7642 19.4541C32.8326 19.3897 32.9146 19.3575 33.0102 19.3575C33.1058 19.3575 33.1873 19.3897 33.2547 19.4541C33.3231 19.5175 33.3573 19.5935 33.3573 19.682C33.3573 19.7715 33.3231 19.8485 33.2547 19.9129C33.1873 19.9763 33.1058 20.008 33.0102 20.008ZM35.774 20.9679L35.1854 21.0041C35.1753 20.9538 35.1537 20.9085 35.1205 20.8683C35.0873 20.827 35.0435 20.7943 34.9892 20.7702C34.9359 20.745 34.872 20.7324 34.7975 20.7324C34.6979 20.7324 34.6139 20.7536 34.5455 20.7958C34.4771 20.8371 34.4428 20.8924 34.4428 20.9618C34.4428 21.0172 34.465 21.0639 34.5093 21.1022C34.5535 21.1404 34.6295 21.1711 34.7371 21.1942L35.1567 21.2788C35.3821 21.325 35.5501 21.3995 35.6608 21.5021C35.7715 21.6048 35.8268 21.7396 35.8268 21.9066C35.8268 22.0585 35.782 22.1919 35.6925 22.3066C35.604 22.4213 35.4822 22.5108 35.3273 22.5752C35.1733 22.6386 34.9957 22.6703 34.7945 22.6703C34.4876 22.6703 34.2431 22.6064 34.061 22.4786C33.8799 22.3498 33.7738 22.1747 33.7426 21.9534L34.3749 21.9202C34.3941 22.0138 34.4403 22.0852 34.5138 22.1345C34.5872 22.1828 34.6813 22.2069 34.796 22.2069C34.9087 22.2069 34.9993 22.1853 35.0677 22.142C35.1371 22.0978 35.1723 22.0409 35.1733 21.9715C35.1723 21.9131 35.1477 21.8654 35.0994 21.8281C35.0511 21.7899 34.9766 21.7607 34.876 21.7406L34.4745 21.6606C34.2482 21.6153 34.0796 21.5368 33.9689 21.4252C33.8593 21.3135 33.8044 21.1711 33.8044 20.998C33.8044 20.8491 33.8447 20.7209 33.9252 20.6132C34.0067 20.5055 34.1209 20.4225 34.2678 20.3642C34.4157 20.3058 34.5887 20.2766 34.787 20.2766C35.0797 20.2766 35.3102 20.3385 35.4782 20.4623C35.6472 20.586 35.7458 20.7546 35.774 20.9679ZM37.4647 20.3068V20.7898H36.0687V20.3068H37.4647ZM36.3856 19.7514H37.0285V21.9126C37.0285 21.972 37.0376 22.0183 37.0557 22.0515C37.0738 22.0837 37.099 22.1063 37.1312 22.1194C37.1644 22.1325 37.2026 22.139 37.2459 22.139C37.2761 22.139 37.3062 22.1365 37.3364 22.1315C37.3666 22.1254 37.3898 22.1209 37.4059 22.1179L37.507 22.5963C37.4748 22.6064 37.4295 22.618 37.3711 22.631C37.3128 22.6451 37.2418 22.6537 37.1583 22.6567C37.0034 22.6627 36.8676 22.6421 36.7508 22.5948C36.6351 22.5475 36.5451 22.4741 36.4807 22.3745C36.4163 22.2749 36.3846 22.1491 36.3856 21.9972V19.7514ZM38.9151 22.6703C38.6766 22.6703 38.4714 22.622 38.2993 22.5254C38.1283 22.4278 37.9965 22.29 37.9039 22.1119C37.8113 21.9328 37.765 21.721 37.765 21.4765C37.765 21.238 37.8113 21.0287 37.9039 20.8486C37.9965 20.6685 38.1268 20.5282 38.2948 20.4276C38.4638 20.3269 38.662 20.2766 38.8894 20.2766C39.0424 20.2766 39.1847 20.3013 39.3165 20.3506C39.4494 20.3989 39.5651 20.4718 39.6637 20.5694C39.7633 20.667 39.8407 20.7898 39.8961 20.9377C39.9514 21.0846 39.9791 21.2566 39.9791 21.4538V21.6304H38.0216V21.232H39.3739C39.3739 21.1394 39.3538 21.0574 39.3135 20.986C39.2733 20.9145 39.2174 20.8587 39.146 20.8184C39.0756 20.7772 38.9936 20.7566 38.9 20.7566C38.8024 20.7566 38.7159 20.7792 38.6404 20.8245C38.5659 20.8688 38.5076 20.9286 38.4653 21.0041C38.4231 21.0785 38.4014 21.1615 38.4004 21.2531V21.6319C38.4004 21.7466 38.4216 21.8457 38.4638 21.9292C38.5071 22.0128 38.568 22.0771 38.6464 22.1224C38.7249 22.1677 38.818 22.1903 38.9256 22.1903C38.9971 22.1903 39.0625 22.1803 39.1218 22.1602C39.1812 22.14 39.232 22.1098 39.2743 22.0696C39.3165 22.0294 39.3487 21.9801 39.3709 21.9217L39.9655 21.9609C39.9353 22.1038 39.8734 22.2286 39.7799 22.3352C39.6873 22.4409 39.5676 22.5234 39.4207 22.5827C39.2748 22.6411 39.1063 22.6703 38.9151 22.6703ZM40.3987 22.625V20.3068H41.022V20.7113H41.0461C41.0884 20.5674 41.1593 20.4587 41.2589 20.3853C41.3585 20.3108 41.4732 20.2736 41.603 20.2736C41.6352 20.2736 41.6699 20.2756 41.7072 20.2797C41.7444 20.2837 41.7771 20.2892 41.8053 20.2963V20.8667C41.7751 20.8577 41.7333 20.8496 41.68 20.8426C41.6267 20.8356 41.5779 20.832 41.5336 20.832C41.439 20.832 41.3545 20.8527 41.2801 20.8939C41.2066 20.9342 41.1482 20.9905 41.105 21.0629C41.0627 21.1354 41.0416 21.2189 41.0416 21.3135V22.625H40.3987ZM45.8606 20.6162H45.1995C45.1875 20.5307 45.1628 20.4547 45.1256 20.3883C45.0883 20.3209 45.0406 20.2636 44.9822 20.2163C44.9238 20.169 44.8564 20.1328 44.78 20.1076C44.7045 20.0824 44.6225 20.0699 44.534 20.0699C44.374 20.0699 44.2346 20.1096 44.1159 20.1891C43.9972 20.2676 43.9051 20.3823 43.8397 20.5332C43.7743 20.6831 43.7416 20.8652 43.7416 21.0795C43.7416 21.2999 43.7743 21.485 43.8397 21.6349C43.9061 21.7849 43.9987 21.8981 44.1174 21.9745C44.2361 22.051 44.3735 22.0892 44.5294 22.0892C44.617 22.0892 44.698 22.0777 44.7724 22.0545C44.8479 22.0314 44.9148 21.9977 44.9731 21.9534C45.0315 21.9081 45.0798 21.8533 45.118 21.7889C45.1573 21.7245 45.1844 21.651 45.1995 21.5685L45.8606 21.5716C45.8435 21.7134 45.8007 21.8503 45.7323 21.9821C45.6649 22.1129 45.5738 22.2301 45.4591 22.3337C45.3454 22.4363 45.2096 22.5178 45.0516 22.5782C44.8947 22.6376 44.7171 22.6673 44.5189 22.6673C44.2432 22.6673 43.9967 22.6049 43.7793 22.4801C43.563 22.3554 43.392 22.1747 43.2662 21.9383C43.1414 21.7019 43.0791 21.4156 43.0791 21.0795C43.0791 20.7425 43.1424 20.4557 43.2692 20.2193C43.396 19.9828 43.568 19.8027 43.7854 19.679C44.0027 19.5542 44.2472 19.4918 44.5189 19.4918C44.698 19.4918 44.864 19.517 45.0169 19.5673C45.1709 19.6176 45.3072 19.6911 45.4259 19.7876C45.5446 19.8832 45.6412 20.0004 45.7157 20.1393C45.7911 20.2781 45.8394 20.4371 45.8606 20.6162ZM46.9782 22.6688C46.8303 22.6688 46.6984 22.6431 46.5827 22.5918C46.467 22.5395 46.3755 22.4625 46.3081 22.3609C46.2417 22.2583 46.2085 22.1305 46.2085 21.9775C46.2085 21.8488 46.2321 21.7406 46.2794 21.6531C46.3267 21.5655 46.3911 21.4951 46.4726 21.4418C46.5541 21.3884 46.6466 21.3482 46.7503 21.321C46.8549 21.2939 46.9646 21.2747 47.0793 21.2637C47.2141 21.2496 47.3228 21.2365 47.4053 21.2244C47.4878 21.2114 47.5476 21.1922 47.5849 21.1671C47.6221 21.1419 47.6407 21.1047 47.6407 21.0554V21.0463C47.6407 20.9508 47.6105 20.8768 47.5502 20.8245C47.4908 20.7722 47.4063 20.746 47.2966 20.746C47.1809 20.746 47.0888 20.7717 47.0204 20.823C46.952 20.8733 46.9067 20.9367 46.8846 21.0131L46.29 20.9648C46.3201 20.824 46.3795 20.7022 46.468 20.5996C46.5566 20.496 46.6708 20.4165 46.8106 20.3612C46.9515 20.3048 47.1145 20.2766 47.2996 20.2766C47.4284 20.2766 47.5517 20.2917 47.6694 20.3219C47.7881 20.3521 47.8933 20.3989 47.9848 20.4623C48.0774 20.5257 48.1503 20.6072 48.2037 20.7068C48.257 20.8054 48.2836 20.9236 48.2836 21.0614V22.625H47.6739V22.3035H47.6558C47.6186 22.376 47.5688 22.4399 47.5064 22.4952C47.444 22.5495 47.3691 22.5923 47.2815 22.6235C47.194 22.6537 47.0929 22.6688 46.9782 22.6688ZM47.1623 22.2251C47.2569 22.2251 47.3404 22.2064 47.4128 22.1692C47.4853 22.131 47.5421 22.0797 47.5834 22.0153C47.6246 21.9509 47.6452 21.8779 47.6452 21.7964V21.5504C47.6251 21.5635 47.5974 21.5756 47.5622 21.5866C47.528 21.5967 47.4893 21.6063 47.446 21.6153C47.4028 21.6234 47.3595 21.6309 47.3162 21.638C47.273 21.644 47.2337 21.6495 47.1985 21.6546C47.123 21.6656 47.0571 21.6832 47.0008 21.7074C46.9445 21.7315 46.9007 21.7642 46.8695 21.8055C46.8383 21.8457 46.8227 21.896 46.8227 21.9564C46.8227 22.0439 46.8544 22.1109 46.9178 22.1571C46.9822 22.2024 47.0637 22.2251 47.1623 22.2251ZM50.7112 20.9679L50.1226 21.0041C50.1126 20.9538 50.091 20.9085 50.0578 20.8683C50.0245 20.827 49.9808 20.7943 49.9264 20.7702C49.8731 20.745 49.8092 20.7324 49.7348 20.7324C49.6352 20.7324 49.5512 20.7536 49.4827 20.7958C49.4143 20.8371 49.3801 20.8924 49.3801 20.9618C49.3801 21.0172 49.4022 21.0639 49.4465 21.1022C49.4908 21.1404 49.5667 21.1711 49.6744 21.1942L50.094 21.2788C50.3194 21.325 50.4874 21.3995 50.5981 21.5021C50.7087 21.6048 50.7641 21.7396 50.7641 21.9066C50.7641 22.0585 50.7193 22.1919 50.6297 22.3066C50.5412 22.4213 50.4195 22.5108 50.2645 22.5752C50.1106 22.6386 49.933 22.6703 49.7318 22.6703C49.4249 22.6703 49.1804 22.6064 48.9983 22.4786C48.8172 22.3498 48.711 22.1747 48.6798 21.9534L49.3122 21.9202C49.3313 22.0138 49.3776 22.0852 49.451 22.1345C49.5245 22.1828 49.6186 22.2069 49.7333 22.2069C49.846 22.2069 49.9365 22.1853 50.0049 22.142C50.0744 22.0978 50.1096 22.0409 50.1106 21.9715C50.1096 21.9131 50.0849 21.8654 50.0366 21.8281C49.9883 21.7899 49.9139 21.7607 49.8133 21.7406L49.4118 21.6606C49.1854 21.6153 49.0169 21.5368 48.9062 21.4252C48.7965 21.3135 48.7417 21.1711 48.7417 20.998C48.7417 20.8491 48.7819 20.7209 48.8624 20.6132C48.9439 20.5055 49.0581 20.4225 49.205 20.3642C49.3529 20.3058 49.526 20.2766 49.7242 20.2766C50.017 20.2766 50.2474 20.3385 50.4154 20.4623C50.5845 20.586 50.6831 20.7546 50.7112 20.9679ZM51.8119 21.2848V22.625H51.1689V19.5341H51.7937V20.7158H51.8209C51.8732 20.579 51.9577 20.4718 52.0745 20.3944C52.1912 20.3159 52.3376 20.2766 52.5136 20.2766C52.6746 20.2766 52.815 20.3118 52.9347 20.3823C53.0555 20.4517 53.149 20.5518 53.2154 20.6826C53.2829 20.8124 53.3161 20.9679 53.3151 21.149V22.625H52.6721V21.2637C52.6731 21.1208 52.6369 21.0096 52.5635 20.9301C52.491 20.8506 52.3894 20.8109 52.2586 20.8109C52.1711 20.8109 52.0936 20.8295 52.0262 20.8667C51.9598 20.904 51.9074 20.9583 51.8692 21.0297C51.832 21.1002 51.8129 21.1852 51.8119 21.2848Z" fill="#0067B2"/>
<path d="M0.327586 6.32759H10.8276C15.7125 6.32759 19.6724 10.2876 19.6724 15.1724V15.8276C19.6724 20.7124 15.7125 24.6724 10.8276 24.6724H0.327586V6.32759Z" fill="white" stroke="black" stroke-width="0.655172"/>
<path d="M5 8H10.5C14.6421 8 18 11.3579 18 15.5C18 19.6421 14.6421 23 10.5 23H5V8Z" fill="#D50172"/>
<rect x="0.965576" y="12.5518" width="2.62069" height="9.82759" fill="black"/>
<circle cx="2.27592" cy="9.93107" r="1.31034" fill="black"/>
<path d="M5.78201 15.5862H4.30286V11.5845H5.78005C6.18778 11.5845 6.53884 11.6646 6.83324 11.8248C7.12894 11.9837 7.3569 12.213 7.51712 12.5126C7.67735 12.8109 7.75746 13.1678 7.75746 13.5834C7.75746 14.0002 7.67735 14.3584 7.51712 14.6581C7.3582 14.9577 7.13089 15.1876 6.83519 15.3478C6.53949 15.5067 6.18843 15.5862 5.78201 15.5862ZM5.27007 14.7616H5.74488C5.96894 14.7616 6.15847 14.7238 6.31348 14.6483C6.4698 14.5714 6.58769 14.447 6.66715 14.2751C6.74791 14.1018 6.7883 13.8713 6.7883 13.5834C6.7883 13.2955 6.74791 13.0662 6.66715 12.8956C6.58639 12.7236 6.4672 12.5999 6.30958 12.5243C6.15326 12.4475 5.96047 12.409 5.73121 12.409H5.27007V14.7616ZM8.32215 15.5862V11.5845H11.1124V12.37H9.28936V13.1906H10.9698V13.9781H9.28936V14.8007H11.1124V15.5862H8.32215ZM12.5837 15.5862H11.5442L12.8944 11.5845H14.1821L15.5323 15.5862H14.4927L13.5529 12.5927H13.5216L12.5837 15.5862ZM12.445 14.0113H14.6178V14.746H12.445V14.0113ZM15.9631 15.5862V11.5845H16.9303V14.8007H18.5951V15.5862H15.9631Z" fill="white"/>
<defs>
<clipPath id="clip0_9220_456">
<rect width="33" height="20" fill="white" transform="translate(104 5)"/>
</clipPath>
</defs>
</svg>
