<svg width="22" height="22" viewBox="0 0 22 22" fill="none" xmlns="http://www.w3.org/2000/svg">
<path fill-rule="evenodd" clip-rule="evenodd" d="M6.05331 4.90716C5.87119 4.92562 5.68739 4.89679 5.51967 4.82345C5.35194 4.75012 5.20598 4.63476 5.09587 4.48853C4.98576 4.34229 4.91523 4.17013 4.89111 3.98867C4.86698 3.80721 4.89007 3.6226 4.95814 3.45268C5.02622 3.28275 5.13697 3.13326 5.2797 3.01865C5.42244 2.90404 5.59232 2.82818 5.77294 2.79842C5.95356 2.76865 6.1388 2.78597 6.31076 2.84872C6.48272 2.91147 6.63559 3.01751 6.7546 3.1566C7.1355 2.54824 7.63493 2.02276 8.22315 1.61144C7.92791 1.30729 7.57507 1.06499 7.18519 0.898654C6.79532 0.732321 6.37623 0.64529 5.95237 0.642641C5.52851 0.639991 5.10836 0.721774 4.71644 0.883219C4.32452 1.04466 3.96867 1.28254 3.66966 1.58297C3.37064 1.88339 3.13445 2.24036 2.97485 2.63304C2.81526 3.02571 2.73546 3.44624 2.7401 3.87009C2.74475 4.29393 2.83376 4.71261 3.00193 5.10169C3.1701 5.49077 3.41406 5.84247 3.71959 6.13627C2.8283 6.38956 2.04393 6.92663 1.48546 7.66601C0.926995 8.40538 0.6249 9.30672 0.625 10.2333V15.5541H2.75333V10.2333C2.75333 9.66884 2.97757 9.12749 3.37671 8.72835C3.77585 8.32921 4.3172 8.10498 4.88166 8.10498H6.38852C5.95117 7.09872 5.83414 5.98223 6.05331 4.90716ZM16.5875 5.97664C16.5875 6.73327 16.43 7.45371 16.1448 8.10498H17.6517C18.2161 8.10498 18.7575 8.32921 19.1566 8.72835C19.5558 9.12749 19.78 9.66884 19.78 10.2333V15.5541H21.9083V10.2333C21.9083 8.28588 20.5994 6.64281 18.8127 6.13627C19.1136 5.84141 19.3532 5.48989 19.5177 5.10198C19.6822 4.71408 19.7682 4.29746 19.7709 3.87613C19.7736 3.45481 19.6928 3.03713 19.5333 2.64717C19.3738 2.2572 19.1386 1.90267 18.8415 1.60401C18.5443 1.30534 18.1909 1.06846 17.8017 0.90702C17.4126 0.745576 16.9953 0.662763 16.574 0.663354C16.1526 0.663946 15.7356 0.747931 15.3469 0.910467C14.9582 1.073 14.6055 1.31088 14.3091 1.61037C14.8976 2.0222 15.3978 2.54684 15.7798 3.1566C15.8988 3.01751 16.0517 2.91147 16.2236 2.84872C16.3956 2.78597 16.5808 2.76865 16.7614 2.79842C16.9421 2.82818 17.1119 2.90404 17.2547 3.01865C17.3974 3.13326 17.5082 3.28275 17.5762 3.45268C17.6443 3.6226 17.6674 3.80721 17.6433 3.98867C17.6192 4.17013 17.5486 4.34229 17.4385 4.48853C17.3284 4.63476 17.1824 4.75012 17.0147 4.82345C16.847 4.89679 16.6632 4.92562 16.4811 4.90716C16.5502 5.25301 16.5875 5.60951 16.5875 5.97664ZM12.3308 5.97664C12.3308 6.25888 12.2187 6.52955 12.0191 6.72912C11.8196 6.92869 11.5489 7.04081 11.2667 7.04081C10.9844 7.04081 10.7138 6.92869 10.5142 6.72912C10.3146 6.52955 10.2025 6.25888 10.2025 5.97664C10.2025 5.69441 10.3146 5.42373 10.5142 5.22416C10.7138 5.0246 10.9844 4.91248 11.2667 4.91248C11.5489 4.91248 11.8196 5.0246 12.0191 5.22416C12.2187 5.42373 12.3308 5.69441 12.3308 5.97664ZM13.4918 8.2646C13.9472 7.82175 14.2601 7.25312 14.3906 6.63144C14.521 6.00977 14.463 5.36331 14.2241 4.77477C13.9851 4.18623 13.576 3.68236 13.049 3.32761C12.5221 2.97286 11.9013 2.78337 11.2661 2.78337C10.6309 2.78337 10.0101 2.97286 9.48322 3.32761C8.95629 3.68236 8.54717 4.18623 8.30819 4.77477C8.06921 5.36331 8.01123 6.00977 8.14167 6.63144C8.27211 7.25312 8.58503 7.82175 9.04042 8.2646C8.14913 8.51789 7.36476 9.05496 6.80629 9.79434C6.24783 10.5337 5.94573 11.4351 5.94583 12.3616V17.6825H8.07416V21.9391H14.4592V17.6825H16.5875V12.3616C16.5875 10.4142 15.2786 8.77114 13.4918 8.2646ZM14.4592 12.3616V15.5541H12.3308V19.8108H10.2025V15.5541H8.07416V12.3616C8.07416 11.7972 8.2984 11.2558 8.69754 10.8567C9.09668 10.4575 9.63803 10.2333 10.2025 10.2333H12.3308C12.8953 10.2333 13.4366 10.4575 13.8358 10.8567C14.2349 11.2558 14.4592 11.7972 14.4592 12.3616Z" fill="#4A4A4A"/>
</svg>
