<svg width="21" height="21" viewBox="0 0 21 21" fill="none" xmlns="http://www.w3.org/2000/svg">
<g clip-path="url(#clip0_871_13315)">
<path d="M16.6133 12.1525L11.4582 8.25971C11.4029 8.21793 11.358 8.16389 11.327 8.10183C11.2961 8.03977 11.28 7.97138 11.2799 7.90204V2.97997C11.2799 2.01087 11.0032 1.63789 10.3918 1.63789C9.78033 1.63789 9.50251 2.01087 9.50251 2.97997V7.90204C9.50259 7.97129 9.48664 8.03962 9.4559 8.10168C9.42516 8.16373 9.38046 8.21782 9.32531 8.25971L4.17136 12.1536V13.0986L8.91842 11.505C8.98546 11.4828 9.05682 11.4768 9.12661 11.4877C9.1964 11.4985 9.26262 11.5257 9.31979 11.5672C9.37696 11.6087 9.42345 11.6631 9.45541 11.7261C9.48737 11.7891 9.50389 11.8588 9.5036 11.9294V16.403C9.5036 16.5233 9.45657 16.636 9.37235 16.7202L7.72619 18.3784V19.2119L10.1708 17.8052C10.238 17.7666 10.3142 17.7462 10.3918 17.7462C10.4693 17.7462 10.5455 17.7666 10.6127 17.8052L13.0584 19.2119V18.3784L11.4101 16.7202C11.3268 16.6357 11.2804 16.5216 11.281 16.403V11.9294C11.281 11.6231 11.5774 11.4087 11.8651 11.505L16.6122 13.0986L16.6133 12.1525ZM8.61435 7.67891V2.97997C8.61435 1.56351 9.22578 0.743164 10.3918 0.743164C11.5577 0.743164 12.1692 1.56351 12.1692 2.97997V7.67891L17.3231 11.5717C17.3787 11.6133 17.4237 11.6673 17.4547 11.7294C17.4856 11.7915 17.5016 11.86 17.5014 11.9294V13.7188C17.5014 14.0251 17.2039 14.2406 16.9162 14.1432L12.1692 12.5496V16.2181L13.8164 17.8774C13.8996 17.9606 13.9466 18.0743 13.9466 18.1935V19.983C13.9471 20.0611 13.9271 20.138 13.8884 20.2058C13.8498 20.2737 13.7939 20.3302 13.7264 20.3696C13.659 20.4089 13.5823 20.4298 13.5042 20.4301C13.4261 20.4304 13.3493 20.4101 13.2816 20.3713L10.3918 18.7087L7.50196 20.3713C7.43421 20.4101 7.3574 20.4304 7.27929 20.4301C7.20119 20.4298 7.12454 20.4089 7.05709 20.3696C6.98964 20.3302 6.93377 20.2737 6.89511 20.2058C6.85646 20.138 6.83639 20.0611 6.83694 19.983V18.1935C6.83694 18.0754 6.88397 17.9606 6.9671 17.8763L8.61435 16.2181V12.5496L3.86729 14.1432C3.80025 14.1654 3.72889 14.1714 3.6591 14.1606C3.58931 14.1497 3.52309 14.1225 3.46592 14.081C3.40875 14.0396 3.36226 13.9851 3.3303 13.9221C3.29834 13.8591 3.28182 13.7895 3.28211 13.7188V11.9294C3.28211 11.7883 3.34774 11.6559 3.4604 11.5717L8.61435 7.67891Z" fill="#3A3A3A" stroke="#3A3A3A" stroke-width="0.109379"/>
</g>
<defs>
<clipPath id="clip0_871_13315">
<rect width="20.7821" height="20.7821" fill="white" transform="translate(0.000854492 0.196045)"/>
</clipPath>
</defs>
</svg>
