<svg width="87" height="99" viewBox="0 0 87 99" fill="none" xmlns="http://www.w3.org/2000/svg">
<path d="M3.46994e-07 91.0894V7.91058C-0.000411547 6.5191 0.365883 5.15213 1.0619 3.94772C1.75791 2.74331 2.75901 1.74409 3.9641 1.05096C5.16919 0.357829 6.53561 -0.00467807 7.92539 4.55797e-05C9.31516 0.00476923 10.6791 0.376555 11.8794 1.07786L83.0851 42.6752C84.2765 43.3719 85.2648 44.369 85.9517 45.5671C86.6386 46.7652 87 48.1225 87 49.504C87 50.8854 86.6386 52.2427 85.9517 53.4408C85.2648 54.6389 84.2765 55.636 83.0851 56.3327L11.8794 97.9221C10.6791 98.6234 9.31516 98.9952 7.92539 99C6.53561 99.0047 5.16919 98.6422 3.9641 97.949C2.75901 97.2559 1.75791 96.2567 1.0619 95.0523C0.365883 93.8479 -0.000411547 92.4809 3.46994e-07 91.0894Z" fill="#F15A24"/>
</svg>
