<svg width="19" height="33" viewBox="0 0 19 33" fill="none" xmlns="http://www.w3.org/2000/svg">
<path d="M19 16.5L3.40061 32.4501C3.01842 32.8111 2.51503 33.0079 1.99477 32.9998C1.47451 32.9916 0.977269 32.779 0.606105 32.4062C0.234941 32.0333 0.0183097 31.5288 0.00110846 30.997C-0.0160928 30.4653 0.167455 29.9472 0.513711 29.5501L13.2768 16.5L0.513711 3.44991C0.167455 3.0528 -0.0160925 2.53469 0.0011088 2.00296C0.0183101 1.47123 0.234941 0.966656 0.606105 0.593803C0.977269 0.220955 1.47451 0.00841905 1.99477 0.000244164C2.51503 -0.00793073 3.01842 0.188881 3.40061 0.549892L19 16.5Z" fill="#F15A24"/>
</svg>
