<svg width="41" height="41" viewBox="0 0 41 41" fill="none" xmlns="http://www.w3.org/2000/svg">
<rect x="0.5" y="0.151367" width="40" height="40" rx="20" fill="#EDEDED"/>
<path fill-rule="evenodd" clip-rule="evenodd" d="M29.2069 19.6876C29.3944 19.8751 29.4997 20.1294 29.4997 20.3946C29.4997 20.6597 29.3944 20.914 29.2069 21.1016L24.9649 25.3436C24.7774 25.5312 24.5231 25.6367 24.2578 25.6368C23.9925 25.6369 23.7381 25.5316 23.5504 25.3441C23.3628 25.1566 23.2573 24.9022 23.2572 24.6369C23.2571 24.3717 23.3624 24.1172 23.5499 23.9296L26.0859 21.3946H12.9139C12.6487 21.3946 12.3944 21.2892 12.2068 21.1017C12.0193 20.9141 11.9139 20.6598 11.9139 20.3946C11.9139 20.1294 12.0193 19.875 12.2068 19.6875C12.3944 19.4999 12.6487 19.3946 12.9139 19.3946H26.0859L23.5499 16.8586C23.3624 16.6709 23.2571 16.4165 23.2572 16.1512C23.2573 15.8859 23.3628 15.6316 23.5504 15.4441C23.7381 15.2566 23.9925 15.1513 24.2578 15.1514C24.5231 15.1515 24.7774 15.2569 24.9649 15.4446L29.2069 19.6876Z" fill="#4A4A4A"/>
</svg>
