<svg width="28" height="28" viewBox="0 0 28 28" fill="none" xmlns="http://www.w3.org/2000/svg">
<path d="M22.0407 20.1563L27.7513 25.8657L25.8647 27.7523L20.1553 22.0417C18.031 23.7446 15.3887 24.6709 12.666 24.667C6.04202 24.667 0.666016 19.291 0.666016 12.667C0.666016 6.04299 6.04202 0.666992 12.666 0.666992C19.29 0.666992 24.666 6.04299 24.666 12.667C24.6699 15.3897 23.7436 18.032 22.0407 20.1563ZM19.366 19.167C21.0582 17.4268 22.0032 15.0942 21.9993 12.667C21.9993 7.51099 17.822 3.33366 12.666 3.33366C7.51002 3.33366 3.33268 7.51099 3.33268 12.667C3.33268 17.823 7.51002 22.0003 12.666 22.0003C15.0933 22.0041 17.4259 21.0591 19.166 19.367L19.366 19.167Z" fill="black"/>
</svg>
