<svg width="85" height="17" viewBox="0 0 85 17" fill="none" xmlns="http://www.w3.org/2000/svg">
<g clip-path="url(#clip0_871_41358)">
<path d="M16.5781 0.294922H0.828125V16.0449H16.5781V0.294922Z" fill="#F15A24"/>
<path d="M33.6406 0.294922H17.8906V16.0449H33.6406V0.294922Z" fill="#F15A24"/>
<path d="M50.7031 0.294922H34.9531V16.0449H50.7031V0.294922Z" fill="#F15A24"/>
<path d="M67.7656 0.294922H52.0156V16.0449H67.7656V0.294922Z" fill="#F15A24"/>
<path d="M84.8281 0.294922H76.9531V16.0449H84.8281V0.294922Z" fill="#DCDCE6"/>
<path d="M76.9531 0.294922H69.0781V16.0449H76.9531V0.294922Z" fill="#F15A24"/>
<path d="M8.70391 10.9097L11.0992 10.3026L12.1 13.387L8.70391 10.9097ZM14.2164 6.92295H10L8.70391 2.95264L7.40781 6.92295H3.19141L6.60391 9.38389L5.30781 13.3542L8.72031 10.8933L10.8203 9.38389L14.2164 6.92295Z" fill="white"/>
<path d="M25.7664 10.9097L28.1617 10.3026L29.1625 13.387L25.7664 10.9097ZM31.2789 6.92295H27.0625L25.7664 2.95264L24.4703 6.92295H20.2539L23.6664 9.38389L22.3703 13.3542L25.7828 10.8933L27.8828 9.38389L31.2789 6.92295Z" fill="white"/>
<path d="M42.8289 10.9097L45.2242 10.3026L46.225 13.387L42.8289 10.9097ZM48.3414 6.92295H44.125L42.8289 2.95264L41.5328 6.92295H37.3164L40.7289 9.38389L39.4328 13.3542L42.8453 10.8933L44.9453 9.38389L48.3414 6.92295Z" fill="white"/>
<path d="M59.8914 10.9097L62.2867 10.3026L63.2875 13.387L59.8914 10.9097ZM65.4039 6.92295H61.1875L59.8914 2.95264L58.5953 6.92295H54.3789L57.7914 9.38389L56.4953 13.3542L59.9078 10.8933L62.0078 9.38389L65.4039 6.92295Z" fill="white"/>
<path d="M76.9539 10.9097L79.3492 10.3026L80.35 13.387L76.9539 10.9097ZM82.4664 6.92295H78.25L76.9539 2.95264L75.6578 6.92295H71.4414L74.8539 9.38389L73.5578 13.3542L76.9703 10.8933L79.0703 9.38389L82.4664 6.92295Z" fill="white"/>
</g>
<defs>
<clipPath id="clip0_871_41358">
<rect width="84" height="15.75" fill="white" transform="translate(0.828125 0.294922)"/>
</clipPath>
</defs>
</svg>
