<svg width="144" height="36" viewBox="0 0 144 36" fill="none" xmlns="http://www.w3.org/2000/svg">
<g clip-path="url(#clip0_871_28534)">
<g clip-path="url(#clip1_871_28534)">
<path d="M38.5469 13.1836H52.7638V15.8302H47.166V30.7498H44.0978V15.8302H38.5234L38.5469 13.1836ZM52.1548 18.0319H54.778V20.4911H54.8249C54.9185 20.1398 55.0825 19.8119 55.3167 19.484C55.5509 19.1561 55.832 18.8516 56.1833 18.594C56.5112 18.3129 56.886 18.1021 57.3076 17.9382C57.7057 17.7742 58.1273 17.6805 58.5489 17.6805C58.8768 17.6805 59.111 17.704 59.2281 17.704C59.3452 17.7274 59.4858 17.7508 59.6029 17.7508V20.4443C59.4155 20.3974 59.2047 20.374 58.9939 20.3506C58.7831 20.3272 58.5957 20.3038 58.385 20.3038C57.9165 20.3038 57.4715 20.3974 57.0499 20.5848C56.6283 20.7722 56.277 21.0532 55.9491 21.4046C55.6446 21.7793 55.387 22.2243 55.1996 22.763C55.0123 23.3017 54.9185 23.9341 54.9185 24.6367V30.6795H52.108L52.1548 18.0319ZM72.4847 30.7498H69.721V28.9697H69.6741C69.3228 29.6255 68.8076 30.1174 68.1283 30.5156C67.4491 30.9137 66.7465 31.1011 66.0438 31.1011C64.3809 31.1011 63.1629 30.7029 62.4135 29.8598C61.664 29.04 61.2892 27.7752 61.2892 26.1123V18.0319H64.0998V25.8313C64.0998 26.9555 64.3106 27.7518 64.7556 28.1968C65.1772 28.6653 65.7862 28.8995 66.5591 28.8995C67.1446 28.8995 67.6365 28.8058 68.0346 28.6184C68.4328 28.431 68.7607 28.1968 68.9949 27.8923C69.2526 27.5879 69.4165 27.2131 69.5336 26.7915C69.6507 26.3699 69.6976 25.9015 69.6976 25.4097V18.0319H72.5082V30.7498H72.4847ZM77.2627 26.6744C77.3564 27.4942 77.6609 28.0563 78.1996 28.4076C78.7383 28.7355 79.3941 28.8995 80.1436 28.8995C80.4013 28.8995 80.7057 28.8761 81.0336 28.8292C81.3615 28.7824 81.6894 28.7121 81.9705 28.595C82.275 28.4779 82.5092 28.3139 82.6965 28.0797C82.8839 27.8455 82.9776 27.5644 82.9542 27.2131C82.9308 26.8618 82.8137 26.5573 82.556 26.3231C82.2984 26.0889 81.9939 25.9249 81.6192 25.761C81.2444 25.6205 80.7994 25.5033 80.3076 25.4097C79.8157 25.316 79.3238 25.1989 78.8086 25.0818C78.2933 24.9647 77.778 24.8241 77.2862 24.6602C76.7943 24.4962 76.3727 24.2854 75.9746 23.9809C75.5998 23.6999 75.2719 23.3486 75.0611 22.9036C74.8269 22.4585 74.7098 21.9433 74.7098 21.2875C74.7098 20.5848 74.8738 20.0227 75.2251 19.5543C75.553 19.0858 75.998 18.7111 76.5133 18.43C77.0285 18.149 77.6141 17.9382 78.2464 17.8211C78.8788 17.704 79.4878 17.6571 80.0499 17.6571C80.7057 17.6571 81.3381 17.7274 81.9236 17.8679C82.5092 18.0084 83.0713 18.2192 83.5397 18.5471C84.0316 18.8516 84.4298 19.2732 84.7342 19.7651C85.0621 20.2569 85.2495 20.8659 85.3432 21.5685H82.4155C82.275 20.8893 81.9705 20.4443 81.502 20.2101C81.0102 19.9759 80.4715 19.8587 79.8391 19.8587C79.6517 19.8587 79.3941 19.8822 79.1365 19.9056C78.8554 19.9524 78.6212 19.9993 78.3636 20.093C78.1293 20.1866 77.9185 20.3272 77.7546 20.4911C77.5906 20.6551 77.497 20.8893 77.497 21.1704C77.497 21.5217 77.6141 21.7793 77.8483 21.9901C78.0825 22.2009 78.387 22.3649 78.7852 22.5288C79.1599 22.6693 79.6049 22.7864 80.0968 22.8801C80.5886 22.9738 81.1039 23.0909 81.6192 23.208C82.1344 23.3251 82.6263 23.4657 83.1181 23.6296C83.61 23.7936 84.055 24.0044 84.4297 24.3088C84.8045 24.5899 85.1324 24.9412 85.3666 25.3628C85.6008 25.7844 85.7179 26.3231 85.7179 26.9321C85.7179 27.6816 85.554 28.3139 85.2027 28.8526C84.8513 29.3679 84.4063 29.8129 83.8676 30.1408C83.3289 30.4687 82.6966 30.7029 82.0408 30.8669C81.3615 31.0074 80.7057 31.1011 80.0499 31.1011C79.2536 31.1011 78.5041 31.0074 77.8249 30.82C77.1456 30.6327 76.5367 30.3516 76.0448 30.0003C75.553 29.6255 75.1548 29.1805 74.8738 28.6184C74.5927 28.0797 74.4287 27.4239 74.4053 26.651L77.2627 26.6744ZM86.5143 18.0319H88.6456V14.1907H91.4562V18.0084H93.9858V20.093H91.4562V26.8852C91.4562 27.1897 91.4797 27.4239 91.5031 27.6581C91.5265 27.8689 91.5968 28.0563 91.667 28.1968C91.7607 28.3374 91.9012 28.4545 92.0652 28.5247C92.2526 28.595 92.4868 28.6418 92.8147 28.6418C93.0021 28.6418 93.2129 28.6418 93.4002 28.6184C93.5876 28.595 93.7984 28.5716 93.9858 28.5247V30.7029C93.6813 30.7498 93.3768 30.7732 93.0723 30.7966C92.7678 30.8435 92.4868 30.8435 92.1589 30.8435C91.4094 30.8435 90.8238 30.7732 90.3788 30.6327C89.9338 30.4921 89.5825 30.2814 89.3249 30.0237C89.0672 29.7427 88.9033 29.4148 88.8096 29.0166C88.7159 28.6184 88.6691 28.1266 88.6456 27.6113V20.1164H86.5143V17.985V18.0319ZM95.9532 18.0319H98.5998V19.7651H98.6467C99.0448 19.0156 99.5835 18.5003 100.286 18.1724C100.989 17.8445 101.738 17.6805 102.581 17.6805C103.589 17.6805 104.455 17.8445 105.205 18.2192C105.954 18.5706 106.563 19.039 107.055 19.6714C107.547 20.2803 107.922 21.0064 108.156 21.8262C108.39 22.6459 108.531 23.5359 108.531 24.4494C108.531 25.316 108.413 26.1357 108.203 26.9321C107.968 27.7284 107.641 28.4545 107.196 29.0634C106.751 29.6724 106.188 30.1642 105.486 30.539C104.783 30.9137 103.987 31.1011 103.05 31.1011C102.652 31.1011 102.23 31.0543 101.832 30.984C101.434 30.9137 101.036 30.7966 100.661 30.6327C100.286 30.4687 99.9348 30.2579 99.6304 30.0003C99.3025 29.7427 99.0448 29.4382 98.834 29.1103H98.7872V35.4575H95.9766V18.0319H95.9532ZM105.767 24.4025C105.767 23.8404 105.697 23.2783 105.533 22.7396C105.392 22.2009 105.158 21.7325 104.853 21.3109C104.549 20.8893 104.174 20.5614 103.753 20.3038C103.308 20.0461 102.792 19.929 102.23 19.929C101.059 19.929 100.169 20.3272 99.5601 21.1469C98.9745 21.9667 98.6701 23.0675 98.6701 24.426C98.6701 25.0818 98.7403 25.6673 98.9043 26.206C99.0683 26.7447 99.279 27.2131 99.6069 27.6113C99.9114 28.0095 100.286 28.3139 100.731 28.5482C101.176 28.7824 101.668 28.8995 102.254 28.8995C102.909 28.8995 103.425 28.7589 103.87 28.5013C104.315 28.2437 104.666 27.8924 104.97 27.4942C105.252 27.0726 105.462 26.6042 105.579 26.0655C105.697 25.5033 105.767 24.9647 105.767 24.4025ZM110.709 13.1836H113.519V15.8302H110.709V13.1836ZM110.709 18.0319H113.519V30.7498H110.709V18.0319ZM116.025 13.1836H118.836V30.7498H116.025V13.1836ZM127.408 31.1011C126.401 31.1011 125.488 30.9372 124.691 30.5858C123.895 30.2345 123.239 29.7895 122.677 29.204C122.139 28.6184 121.717 27.8923 121.436 27.0726C121.155 26.2528 120.991 25.3394 120.991 24.3791C120.991 23.4188 121.131 22.5288 121.436 21.7091C121.717 20.8893 122.139 20.1866 122.677 19.5777C123.216 18.9921 123.895 18.5237 124.691 18.1958C125.488 17.8679 126.401 17.6805 127.408 17.6805C128.415 17.6805 129.329 17.8445 130.125 18.1958C130.922 18.5237 131.577 18.9921 132.14 19.5777C132.678 20.1632 133.1 20.8893 133.381 21.7091C133.662 22.5288 133.826 23.4188 133.826 24.3791C133.826 25.3628 133.685 26.2528 133.381 27.0726C133.076 27.8923 132.678 28.595 132.14 29.204C131.601 29.7895 130.922 30.2579 130.125 30.5858C129.329 30.9137 128.439 31.1011 127.408 31.1011ZM127.408 28.8761C128.017 28.8761 128.579 28.7355 129.024 28.4779C129.493 28.2203 129.844 27.8689 130.149 27.4473C130.453 27.0258 130.664 26.5339 130.804 26.0186C130.945 25.4799 131.015 24.9412 131.015 24.3791C131.015 23.8404 130.945 23.3017 130.804 22.763C130.664 22.2243 130.453 21.7559 130.149 21.3343C129.844 20.9127 129.469 20.5848 129.024 20.3272C128.556 20.0695 128.017 19.929 127.408 19.929C126.799 19.929 126.237 20.0695 125.792 20.3272C125.324 20.5848 124.973 20.9361 124.668 21.3343C124.364 21.7559 124.153 22.2243 124.012 22.763C123.872 23.3017 123.801 23.8404 123.801 24.3791C123.801 24.9412 123.872 25.4799 124.012 26.0186C124.153 26.5573 124.364 27.0258 124.668 27.4473C124.973 27.8689 125.347 28.2203 125.792 28.4779C126.261 28.7589 126.799 28.8761 127.408 28.8761ZM134.669 18.0319H136.8V14.1907H139.611V18.0084H142.141V20.093H139.611V26.8852C139.611 27.1897 139.634 27.4239 139.658 27.6581C139.681 27.8689 139.752 28.0563 139.822 28.1968C139.915 28.3374 140.056 28.4545 140.22 28.5247C140.407 28.595 140.642 28.6418 140.969 28.6418C141.157 28.6418 141.368 28.6418 141.555 28.6184C141.742 28.595 141.953 28.5716 142.141 28.5247V30.7029C141.836 30.7498 141.532 30.7732 141.227 30.7966C140.923 30.8435 140.642 30.8435 140.314 30.8435C139.564 30.8435 138.979 30.7732 138.534 30.6327C138.089 30.4921 137.737 30.2814 137.48 30.0237C137.222 29.7427 137.058 29.4148 136.964 29.0166C136.871 28.6184 136.824 28.1266 136.8 27.6113V20.1164H134.669V17.985V18.0319Z" fill="black"/>
<path d="M35.2623 13.1831H22.4039L18.4456 0.957031L14.4639 13.1831L1.60547 13.1597L12.0047 20.7248L8.02299 32.9509L18.4222 25.3858L28.8213 32.9509L24.8631 20.7248L35.2623 13.1831Z" fill="#F15A24"/>
<path d="M25.7606 23.4884L24.8706 20.7246L18.4531 25.3855L25.7606 23.4884Z" fill="#F15A24"/>
</g>
</g>
<defs>
<clipPath id="clip0_871_28534">
<rect width="143.75" height="34.5" fill="white" transform="translate(0 0.957031)"/>
</clipPath>
<clipPath id="clip1_871_28534">
<rect width="140.53" height="34.5" fill="white" transform="translate(1.60547 0.957031)"/>
</clipPath>
</defs>
</svg>
