<svg width="17" height="16" viewBox="0 0 17 16" fill="none" xmlns="http://www.w3.org/2000/svg">
<path d="M16.0551 0H6.27731C6.03165 0 5.83285 0.198792 5.83285 0.444458C5.83285 0.690125 6.03165 0.888917 6.27731 0.888917H14.9822L0.62973 15.2413C0.456105 15.415 0.456105 15.6962 0.62973 15.8698C0.716522 15.9566 0.830272 16 0.94398 16C1.05769 16 1.1714 15.9566 1.25823 15.8698L15.6106 1.51737V10.2222C15.6106 10.4679 15.8094 10.6667 16.0551 10.6667C16.3008 10.6667 16.4996 10.4679 16.4996 10.2222V0.444458C16.4995 0.198792 16.3007 0 16.0551 0Z" fill="white"/>
</svg>
