<?xml version="1.0" encoding="utf-8"?>
<!-- Generator: Adobe Illustrator 28.0.0, SVG Export Plug-In . SVG Version: 6.00 Build 0)  -->
<svg version="1.0" id="Layer_1" xmlns="http://www.w3.org/2000/svg" xmlns:xlink="http://www.w3.org/1999/xlink" x="0px" y="0px"
	 viewBox="0 0 708 500" style="enable-background:new 0 0 708 500;" xml:space="preserve">
<style type="text/css">
	.st0{opacity:0.61;}
	.st1{fill:#FFFFFF;}
	.st2{fill:url(#SVGID_1_);}
	.st3{fill:url(#SVGID_00000165206216595805392220000018140769304337965491_);}
	.st4{fill:#149C0D;}
</style>
<g id="watermark_1_">
	<g>
		<g id="watermark" class="st0">
			<g>
				<g>
					<g>
						<g>
							<polygon class="st1" points="317.76,461.17 312.2,474.02 309.27,474.02 303.73,461.17 306.94,461.17 310.85,470.35 
								314.81,461.17 							"/>
						</g>
						<g>
							<path class="st1" d="M327.51,469.74h-7.47c0.28,1.23,1.32,1.98,2.83,1.98c1.05,0,1.8-0.31,2.48-0.95l1.52,1.65
								c-0.92,1.05-2.29,1.6-4.07,1.6c-3.41,0-5.63-2.15-5.63-5.08c0-2.95,2.26-5.08,5.27-5.08c2.9,0,5.14,1.95,5.14,5.12
								C327.56,469.19,327.53,469.5,327.51,469.74 M320,468.07h4.86c-0.2-1.25-1.14-2.06-2.42-2.06
								C321.14,466.02,320.2,466.81,320,468.07"/>
						</g>
						<g>
							<path class="st1" d="M328.74,468.93c0-2.97,2.29-5.08,5.51-5.08c2.07,0,3.71,0.9,4.42,2.51l-2.22,1.19
								c-0.53-0.94-1.32-1.36-2.22-1.36c-1.45,0-2.59,1.01-2.59,2.73c0,1.73,1.14,2.73,2.59,2.73c0.9,0,1.69-0.4,2.22-1.36
								l2.22,1.21c-0.72,1.58-2.35,2.5-4.42,2.5C331.03,474.02,328.74,471.91,328.74,468.93"/>
						</g>
						<g>
							<path class="st1" d="M346.83,473.39c-0.59,0.42-1.45,0.62-2.33,0.62c-2.33,0-3.69-1.19-3.69-3.54v-4.06h-1.52v-2.2h1.52v-2.4
								h2.86v2.4h2.46v2.2h-2.46v4.02c0,0.84,0.46,1.3,1.23,1.3c0.42,0,0.84-0.13,1.16-0.37L346.83,473.39z"/>
						</g>
					</g>
					<g>
						<path class="st1" d="M366.47,464v2.64c-0.24-0.02-0.42-0.04-0.64-0.04c-1.58,0-2.62,0.86-2.62,2.75v4.66h-2.86v-9.87h2.73v1.3
							C363.78,464.49,364.95,464,366.47,464"/>
					</g>
					<g>
						<path class="st1" d="M367.3,472.53l1.01-2.24c1.08,0.79,2.7,1.34,4.24,1.34c1.76,0,2.48-0.59,2.48-1.38
							c0-2.4-7.47-0.75-7.47-5.52c0-2.18,1.76-4,5.41-4c1.61,0,3.27,0.39,4.46,1.14l-0.92,2.26c-1.19-0.68-2.42-1.01-3.56-1.01
							c-1.76,0-2.44,0.66-2.44,1.47c0,2.37,7.47,0.73,7.47,5.45c0,2.15-1.78,3.98-5.45,3.98
							C370.49,474.02,368.44,473.41,367.3,472.53"/>
					</g>
					<g>
						<path class="st1" d="M389.43,469.74h-7.47c0.28,1.23,1.32,1.98,2.83,1.98c1.05,0,1.8-0.31,2.48-0.95l1.52,1.65
							c-0.92,1.05-2.29,1.6-4.07,1.6c-3.41,0-5.63-2.15-5.63-5.08c0-2.95,2.26-5.08,5.27-5.08c2.9,0,5.14,1.95,5.14,5.12
							C389.48,469.19,389.45,469.5,389.43,469.74 M381.92,468.07h4.86c-0.2-1.25-1.14-2.06-2.42-2.06
							C383.06,466.02,382.13,466.81,381.92,468.07"/>
					</g>
					<g>
						<path class="st1" d="M401.01,469.74h-7.47c0.28,1.23,1.32,1.98,2.83,1.98c1.05,0,1.8-0.31,2.48-0.95l1.52,1.65
							c-0.92,1.05-2.29,1.6-4.07,1.6c-3.41,0-5.63-2.15-5.63-5.08c0-2.95,2.26-5.08,5.27-5.08c2.9,0,5.14,1.95,5.14,5.12
							C401.06,469.19,401.02,469.5,401.01,469.74 M393.5,468.07h4.86c-0.2-1.25-1.14-2.06-2.42-2.06
							C394.64,466.02,393.7,466.81,393.5,468.07"/>
					</g>
					<g>
						<polygon class="st1" points="407.21,470.14 405.83,471.5 405.83,474.02 402.97,474.02 402.97,460.4 405.83,460.4 
							405.83,468.11 410.02,464.14 413.43,464.14 409.32,468.33 413.8,474.02 410.33,474.02 						"/>
					</g>
					<g>
						<path class="st1" d="M360.6,475.36L360.6,475.36l-2.86-2.86c-0.44,0.51-0.95,0.94-1.53,1.28c-0.09,0.07-0.19,0.14-0.28,0.2
							l3.03,3.03c0.46,0.46,1.19,0.46,1.65,0C361.06,476.55,361.06,475.81,360.6,475.36"/>
					</g>
					<g>
						<path class="st1" d="M353.98,463.24c0.22-0.17,0.49-0.28,0.8-0.28c0.04,0,0.08,0,0.12,0.01c-0.21-0.16-0.48-0.25-0.76-0.25
							c-0.39,0-0.74,0.18-0.98,0.46c-0.05,0-0.1,0.01-0.15,0.01c0.04-0.08,0.06-0.16,0.06-0.25c0-0.23-0.14-0.43-0.35-0.52
							c0.09,0.13,0.14,0.28,0.14,0.44c0,0.12-0.03,0.24-0.08,0.34c-2.81,0.2-5.03,2.54-5.03,5.4c0,2.99,2.43,5.42,5.42,5.42
							c2.99,0,5.42-2.43,5.42-5.42C358.6,465.88,356.59,463.64,353.98,463.24 M351.98,464.66c0.43,0,0.84,0.11,1.2,0.31
							c0.37-0.24,0.82-0.39,1.3-0.39c0.71,0,1.35,0.31,1.78,0.81c-0.44-0.38-1-0.61-1.63-0.61c-0.45,0-0.87,0.12-1.23,0.33
							c-0.08,0.05-0.16,0.1-0.23,0.15c-0.07-0.05-0.13-0.09-0.2-0.13c-0.37-0.22-0.8-0.34-1.26-0.34c-0.3,0-0.59,0.05-0.85,0.15
							C351.2,464.75,351.58,464.66,351.98,464.66 M355.77,469.1c0.11,0.3,0.18,0.63,0.18,0.98c0,1.53-1.24,2.78-2.78,2.78
							c-1.53,0-2.78-1.24-2.78-2.78c0-0.35,0.07-0.67,0.18-0.98c-0.62-0.38-1.03-1.06-1.03-1.85c0-1.2,0.97-2.17,2.17-2.17
							c0.56,0,1.08,0.22,1.46,0.57c0.39-0.35,0.9-0.57,1.46-0.57c1.2,0,2.17,0.97,2.17,2.17
							C356.81,468.03,356.39,468.72,355.77,469.1"/>
					</g>
					<g>
						<path class="st1" d="M355.67,467.06c0,0.5-0.4,0.9-0.9,0.9c-0.5,0-0.9-0.4-0.9-0.9s0.4-0.9,0.9-0.9c0.1,0,0.2,0.02,0.29,0.05
							c-0.03,0.06-0.05,0.13-0.05,0.2c0,0.27,0.22,0.49,0.49,0.49c0.05,0,0.1-0.01,0.15-0.02
							C355.66,466.94,355.67,467,355.67,467.06"/>
					</g>
					<g>
						<path class="st1" d="M352.26,467.06c0,0.38-0.31,0.68-0.68,0.68c-0.38,0-0.68-0.31-0.68-0.68s0.31-0.68,0.68-0.68
							c0.08,0,0.15,0.01,0.22,0.04c-0.02,0.05-0.03,0.1-0.03,0.15c0,0.21,0.17,0.37,0.37,0.37c0.04,0,0.08-0.01,0.11-0.02
							C352.25,466.97,352.26,467.02,352.26,467.06"/>
					</g>
					<g>
						<g>
							<g>
								<rect x="346.91" y="467.83" class="st1" width="0.62" height="0.62"/>
							</g>
							<g>
								<rect x="358.83" y="467.83" class="st1" width="0.62" height="0.62"/>
							</g>
							<g>
								<path class="st1" d="M359.21,468.08h-0.14c0-3.25-2.64-5.89-5.89-5.89c-3.25,0-5.89,2.64-5.89,5.89h-0.14
									c0-1.61,0.63-3.12,1.77-4.26c1.14-1.14,2.65-1.77,4.26-1.77c1.61,0,3.12,0.63,4.26,1.77
									C358.58,464.96,359.21,466.47,359.21,468.08"/>
							</g>
						</g>
						<g>
							<rect x="352.87" y="461.81" class="st1" width="0.62" height="0.62"/>
						</g>
						<g>
							<rect x="348.95" y="462.05" class="st1" width="8.45" height="0.14"/>
						</g>
						<g>
							<path class="st1" d="M349.17,462.15c0,0.11-0.09,0.2-0.2,0.2c-0.11,0-0.2-0.09-0.2-0.2c0-0.11,0.09-0.2,0.2-0.2
								C349.09,461.95,349.17,462.04,349.17,462.15"/>
						</g>
						<g>
							<path class="st1" d="M357.6,462.15c0,0.11-0.09,0.2-0.2,0.2c-0.11,0-0.2-0.09-0.2-0.2c0-0.11,0.09-0.2,0.2-0.2
								C357.51,461.95,357.6,462.04,357.6,462.15"/>
						</g>
					</g>
				</g>
				<g>
					<path class="st1" d="M418.36,473.41c0,1.56-2.36,1.56-2.36,0C415.99,471.85,418.36,471.85,418.36,473.41z"/>
				</g>
				<g>
					<g>
						<g>
							<path class="st1" d="M265.74,466.55l1.77,6.09l1.85-6.09h2.22l-2.82,8.14h-2.33l-0.84-2.4l-0.72-2.71l-0.72,2.71l-0.84,2.4
								h-2.33l-2.84-8.14h2.23l1.85,6.09l1.76-6.09H265.74z"/>
						</g>
						<g>
							<path class="st1" d="M280.71,466.55l1.77,6.09l1.85-6.09h2.22l-2.82,8.14h-2.33l-0.84-2.4l-0.72-2.71l-0.72,2.71l-0.84,2.4
								h-2.33l-2.84-8.14h2.23l1.85,6.09l1.76-6.09H280.71z"/>
						</g>
						<g>
							<path class="st1" d="M295.69,466.55l1.77,6.09l1.85-6.09h2.22l-2.82,8.14h-2.33l-0.84-2.4l-0.72-2.71l-0.72,2.71l-0.84,2.4
								h-2.33l-2.84-8.14h2.23l1.85,6.09l1.76-6.09H295.69z"/>
						</g>
					</g>
					<g>
						<path class="st1" d="M304.91,473.52c0,1.56-2.36,1.56-2.36,0C302.54,471.96,304.91,471.96,304.91,473.52z"/>
					</g>
					<g>
						<path class="st1" d="M426.71,473.41c-0.94,0.92-1.92,1.28-3.12,1.28c-2.35,0-4.3-1.41-4.3-4.28s1.95-4.28,4.3-4.28
							c1.15,0,2.03,0.33,2.92,1.2l-1.26,1.33c-0.48-0.43-1.07-0.64-1.62-0.64c-1.35,0-2.33,0.98-2.33,2.4c0,1.54,1.05,2.36,2.3,2.36
							c0.64,0,1.28-0.18,1.77-0.67L426.71,473.41z"/>
					</g>
					<g>
						<path class="st1" d="M435.81,470.47c0,2.33-1.59,4.22-4.22,4.22c-2.63,0-4.2-1.89-4.2-4.22c0-2.31,1.61-4.22,4.18-4.22
							C434.15,466.26,435.81,468.16,435.81,470.47z M429.39,470.47c0,1.23,0.74,2.38,2.2,2.38c1.46,0,2.2-1.15,2.2-2.38
							c0-1.21-0.85-2.4-2.2-2.4C430.14,468.08,429.39,469.26,429.39,470.47z"/>
					</g>
					<g>
						<path class="st1" d="M442.57,474.69v-4.33c0-1.07-0.56-2.03-1.66-2.03c-1.08,0-1.72,0.97-1.72,2.03v4.33h-2v-8.11h1.85
							l0.15,0.98c0.43-0.82,1.36-1.12,2.13-1.12c0.97,0,1.94,0.39,2.4,1.51c0.72-1.15,1.66-1.48,2.71-1.48
							c2.3,0,3.43,1.41,3.43,3.84v4.37h-2v-4.37c0-1.07-0.44-1.97-1.53-1.97c-1.08,0-1.76,0.94-1.76,2v4.33H442.57z"/>
					</g>
				</g>
			</g>
		</g>
		<g class="st0">
			<g>
				<g>
					<path class="st1" d="M449.99,431.3c-0.01-1.22-0.96-2.12-2.19-2.14c-0.92-0.01-0.83,0.12-0.83-0.87c0-1.1-0.01-2.19,0-3.29
						c0-0.38-0.11-0.69-0.36-0.98c-2.34-2.67-4.68-5.34-7.02-8.01c-0.12-0.14-0.28-0.24-0.41-0.37c-6.21,0-12.43,0-18.64,0
						c-0.79,0.29-1.14,0.87-1.14,1.71c0.01,3.75,0,7.5,0,11.24c0,0.56,0,0.59-0.55,0.55c-1.5-0.1-2.52,0.99-2.5,2.49
						c0.04,3.48,0.01,6.95,0.01,10.43c0,1.58,0.87,2.44,2.45,2.45c0.58,0,0.58,0,0.58,0.6c0,2.22,0,4.44,0,6.66
						c0,1.19,0.58,1.77,1.77,1.77c8.01,0,16.03,0,24.04,0c1.17,0,1.76-0.58,1.76-1.75c0-2.26,0-4.51,0-6.77c0-0.51,0-0.51,0.52-0.52
						c0.27,0,0.54,0.01,0.81-0.06c1-0.25,1.69-1.04,1.69-2.07C450,438.7,450.01,435,449.99,431.3z M421.54,417.16
						c5.34,0,10.67,0,16.01,0c0.55,0,0.55,0.01,0.55,0.56c0,2.24,0,4.49,0,6.73c0,0.81,0.25,1.06,1.06,1.06c1.91,0,3.82,0,5.73,0
						c0.46,0,0.48,0.02,0.48,0.48c0,0.89,0,1.77,0,2.66c0,0.48-0.02,0.5-0.5,0.5c-3.89,0-7.79,0-11.68,0c-3.88,0-7.76,0-11.65,0
						c-0.55,0-0.55,0-0.55-0.56c0-3.62,0-7.25,0-10.87C420.99,417.17,420.99,417.16,421.54,417.16z M444.82,451.58
						c-3.88,0-7.77,0-11.65,0c-3.87,0-7.74,0-11.61,0c-0.57,0-0.57,0-0.57-0.58c0-2,0-3.99,0-5.99c0-0.46,0.02-0.49,0.48-0.49
						c7.8,0,15.61,0,23.41,0c0.48,0,0.5,0.02,0.5,0.5c0,2,0,3.99,0,5.99C445.37,451.57,445.37,451.58,444.82,451.58z"/>
				</g>
				<g>
					<g>
						<rect x="431.42" y="417.05" class="st1" width="1.76" height="1.05"/>
					</g>
					<g>
						<rect x="429.66" y="418.11" class="st1" width="1.76" height="1.05"/>
					</g>
					<g>
						<rect x="431.42" y="419.16" class="st1" width="1.76" height="1.05"/>
					</g>
					<g>
						<rect x="429.66" y="420.22" class="st1" width="1.76" height="1.05"/>
					</g>
					<g>
						<rect x="431.42" y="421.27" class="st1" width="1.76" height="1.05"/>
					</g>
					<g>
						<rect x="429.66" y="422.32" class="st1" width="1.76" height="1.05"/>
					</g>
					<g>
						<rect x="431.42" y="423.38" class="st1" width="1.76" height="1.05"/>
					</g>
					<g>
						<rect x="429.66" y="424.43" class="st1" width="1.76" height="1.05"/>
					</g>
					<g>
						<rect x="431.42" y="425.49" class="st1" width="1.76" height="1.05"/>
					</g>
					<g>
						<rect x="429.66" y="426.54" class="st1" width="1.76" height="1.05"/>
					</g>
					<g>
						<rect x="431.42" y="427.59" class="st1" width="1.76" height="1.05"/>
					</g>
					<g>
						<rect x="429.66" y="428.65" class="st1" width="1.76" height="1.05"/>
					</g>
				</g>
			</g>
			<g>
				<path class="st1" d="M291.64,431.3c-0.01-1.22-0.96-2.12-2.19-2.14c-0.92-0.01-0.83,0.12-0.83-0.87c0-1.1-0.01-2.19,0-3.29
					c0-0.38-0.11-0.69-0.36-0.98c-2.34-2.67-4.68-5.34-7.02-8.01c-0.12-0.14-0.28-0.24-0.41-0.37c-6.21,0-12.43,0-18.64,0
					c-0.79,0.29-1.14,0.87-1.14,1.71c0.01,3.75,0,7.5,0,11.24c0,0.56,0,0.59-0.55,0.55c-1.5-0.1-2.52,0.99-2.5,2.49
					c0.04,3.48,0.01,6.95,0.01,10.43c0,1.58,0.87,2.44,2.45,2.45c0.58,0,0.58,0,0.58,0.6c0,2.22,0,4.44,0,6.66
					c0,1.19,0.58,1.77,1.77,1.77c8.01,0,16.03,0,24.04,0c1.17,0,1.76-0.58,1.76-1.75c0-2.26,0-4.51,0-6.77c0-0.51,0-0.51,0.52-0.52
					c0.27,0,0.54,0.01,0.81-0.06c1-0.25,1.69-1.04,1.69-2.07C291.65,438.7,291.65,435,291.64,431.3z M263.19,417.16
					c5.34,0,10.67,0,16.01,0c0.55,0,0.55,0.01,0.55,0.56c0,2.24,0,4.49,0,6.73c0,0.81,0.25,1.06,1.06,1.06c1.91,0,3.82,0,5.73,0
					c0.46,0,0.48,0.02,0.48,0.48c0,0.89,0,1.77,0,2.66c0,0.48-0.02,0.5-0.5,0.5c-3.89,0-7.79,0-11.68,0c-3.88,0-7.76,0-11.65,0
					c-0.55,0-0.55,0-0.55-0.56c0-3.62,0-7.25,0-10.87C262.64,417.17,262.64,417.16,263.19,417.16z M286.47,451.58
					c-3.88,0-7.77,0-11.65,0c-3.87,0-7.74,0-11.61,0c-0.57,0-0.57,0-0.57-0.58c0-2,0-3.99,0-5.99c0-0.46,0.02-0.49,0.48-0.49
					c7.8,0,15.61,0,23.41,0c0.48,0,0.5,0.02,0.5,0.5c0,2,0,3.99,0,5.99C287.02,451.57,287.02,451.58,286.47,451.58z"/>
			</g>
			<g>
				<path class="st1" d="M263.78,440.67v-7.9h2.78c0.38,0,0.73,0.06,1.05,0.18c0.33,0.12,0.61,0.29,0.85,0.51
					c0.24,0.22,0.43,0.48,0.57,0.79c0.14,0.31,0.21,0.64,0.21,1.01c0,0.37-0.07,0.72-0.21,1.02c-0.14,0.31-0.33,0.57-0.57,0.79
					c-0.24,0.22-0.53,0.39-0.85,0.51c-0.33,0.12-0.68,0.18-1.05,0.18h-1.29v2.9H263.78z M266.58,436.36c0.39,0,0.68-0.11,0.88-0.33
					c0.2-0.22,0.3-0.47,0.3-0.76c0-0.14-0.02-0.28-0.07-0.41c-0.05-0.13-0.12-0.25-0.22-0.35c-0.1-0.1-0.22-0.18-0.37-0.24
					c-0.15-0.06-0.32-0.09-0.52-0.09h-1.31v2.17H266.58z"/>
				<path class="st1" d="M270.31,432.77h1.73l3.18,5.29h0.09l-0.09-1.52v-3.77h1.48v7.9h-1.57l-3.35-5.59h-0.09l0.09,1.52v4.07
					h-1.47V432.77z"/>
				<path class="st1" d="M281.92,436.33h3.87c0.02,0.09,0.04,0.2,0.05,0.32c0.01,0.12,0.02,0.25,0.02,0.38
					c0,0.51-0.08,0.99-0.23,1.43c-0.15,0.45-0.4,0.85-0.73,1.2c-0.35,0.38-0.78,0.67-1.27,0.87c-0.49,0.21-1.06,0.31-1.69,0.31
					c-0.57,0-1.11-0.1-1.62-0.31c-0.51-0.21-0.95-0.49-1.32-0.86c-0.38-0.37-0.67-0.8-0.89-1.31c-0.22-0.5-0.33-1.05-0.33-1.65
					c0-0.6,0.11-1.15,0.33-1.65c0.22-0.5,0.52-0.94,0.89-1.31c0.38-0.37,0.82-0.65,1.32-0.86c0.51-0.21,1.05-0.31,1.62-0.31
					c0.64,0,1.21,0.11,1.71,0.33c0.5,0.22,0.94,0.53,1.3,0.92l-1.03,1c-0.26-0.27-0.54-0.48-0.86-0.62
					c-0.32-0.14-0.7-0.22-1.14-0.22c-0.36,0-0.7,0.06-1.03,0.19c-0.32,0.13-0.61,0.31-0.85,0.55c-0.24,0.24-0.44,0.52-0.58,0.85
					c-0.14,0.33-0.22,0.71-0.22,1.12c0,0.41,0.07,0.79,0.22,1.12c0.14,0.33,0.34,0.62,0.58,0.85c0.25,0.24,0.53,0.42,0.86,0.55
					c0.32,0.13,0.67,0.19,1.04,0.19c0.42,0,0.77-0.06,1.06-0.18c0.29-0.12,0.54-0.28,0.74-0.47c0.15-0.13,0.27-0.3,0.38-0.5
					c0.11-0.2,0.19-0.43,0.25-0.68h-2.48V436.33z"/>
			</g>
			<g>
				<path class="st1" d="M328.02,431.3c-0.01-1.22-0.96-2.12-2.19-2.14c-0.92-0.01-0.83,0.12-0.83-0.87c0-1.1-0.01-2.19,0-3.29
					c0-0.38-0.11-0.69-0.36-0.98c-2.34-2.67-4.68-5.34-7.02-8.01c-0.12-0.14-0.28-0.24-0.41-0.37c-6.21,0-12.43,0-18.64,0
					c-0.79,0.29-1.14,0.87-1.14,1.71c0.01,3.75,0,7.5,0,11.24c0,0.56,0,0.59-0.55,0.55c-1.5-0.1-2.52,0.99-2.5,2.49
					c0.04,3.48,0.01,6.95,0.01,10.43c0,1.58,0.87,2.44,2.45,2.45c0.58,0,0.58,0,0.58,0.6c0,2.22,0,4.44,0,6.66
					c0,1.19,0.58,1.77,1.77,1.77c8.01,0,16.03,0,24.04,0c1.17,0,1.76-0.58,1.76-1.75c0-2.26,0-4.51,0-6.77c0-0.51,0-0.51,0.52-0.52
					c0.27,0,0.54,0.01,0.81-0.06c1-0.25,1.69-1.04,1.69-2.07C328.03,438.7,328.04,435,328.02,431.3z M299.57,417.16
					c5.34,0,10.67,0,16.01,0c0.55,0,0.55,0.01,0.55,0.56c0,2.24,0,4.49,0,6.73c0,0.81,0.25,1.06,1.06,1.06c1.91,0,3.82,0,5.73,0
					c0.46,0,0.48,0.02,0.48,0.48c0,0.89,0,1.77,0,2.66c0,0.48-0.02,0.5-0.5,0.5c-3.89,0-7.79,0-11.68,0c-3.88,0-7.76,0-11.65,0
					c-0.55,0-0.55,0-0.55-0.56c0-3.62,0-7.25,0-10.87C299.02,417.17,299.02,417.16,299.57,417.16z M322.85,451.58
					c-3.88,0-7.77,0-11.65,0c-3.87,0-7.74,0-11.61,0c-0.57,0-0.57,0-0.57-0.58c0-2,0-3.99,0-5.99c0-0.46,0.02-0.49,0.48-0.49
					c7.8,0,15.61,0,23.41,0c0.48,0,0.5,0.02,0.5,0.5c0,2,0,3.99,0,5.99C323.41,451.57,323.4,451.58,322.85,451.58z"/>
			</g>
			<g>
				<path class="st1" d="M309.11,432.77h1.7l2.97,7.9h-1.64l-0.65-1.89h-3.04l-0.65,1.89h-1.64L309.11,432.77z M311,437.42
					l-0.71-1.97l-0.29-0.96h-0.09l-0.29,0.96l-0.71,1.97H311z"/>
				<path class="st1" d="M315.33,434.54c-0.13,0-0.24-0.02-0.36-0.07c-0.11-0.05-0.21-0.11-0.3-0.2c-0.08-0.08-0.15-0.18-0.2-0.29
					c-0.05-0.11-0.07-0.23-0.07-0.36s0.02-0.25,0.07-0.36c0.05-0.11,0.11-0.21,0.2-0.29c0.08-0.08,0.18-0.15,0.3-0.2
					c0.11-0.05,0.23-0.07,0.36-0.07c0.26,0,0.48,0.09,0.66,0.27c0.18,0.18,0.28,0.4,0.28,0.66s-0.09,0.48-0.28,0.66
					C315.81,434.45,315.59,434.54,315.33,434.54z M314.61,440.67v-5.4h1.44v5.4H314.61z"/>
			</g>
			<g>
				<path class="st1" d="M365.04,431.3c-0.01-1.22-0.96-2.12-2.19-2.14c-0.92-0.01-0.83,0.12-0.83-0.87c0-1.1-0.01-2.19,0-3.29
					c0-0.38-0.11-0.69-0.36-0.98c-2.34-2.67-4.68-5.34-7.02-8.01c-0.12-0.14-0.28-0.24-0.41-0.37c-6.21,0-12.43,0-18.64,0
					c-0.79,0.29-1.14,0.87-1.14,1.71c0.01,3.75,0,7.5,0,11.24c0,0.56,0,0.59-0.55,0.55c-1.5-0.1-2.52,0.99-2.5,2.49
					c0.04,3.48,0.01,6.95,0.01,10.43c0,1.58,0.87,2.44,2.45,2.45c0.58,0,0.58,0,0.58,0.6c0,2.22,0,4.44,0,6.66
					c0,1.19,0.58,1.77,1.77,1.77c8.01,0,16.03,0,24.04,0c1.17,0,1.76-0.58,1.76-1.75c0-2.26,0-4.51,0-6.77c0-0.51,0-0.51,0.52-0.52
					c0.27,0,0.54,0.01,0.81-0.06c1-0.25,1.69-1.04,1.69-2.07C365.06,438.7,365.06,435,365.04,431.3z M336.59,417.16
					c5.34,0,10.67,0,16.01,0c0.55,0,0.55,0.01,0.55,0.56c0,2.24,0,4.49,0,6.73c0,0.81,0.25,1.06,1.06,1.06c1.91,0,3.82,0,5.73,0
					c0.46,0,0.48,0.02,0.48,0.48c0,0.89,0,1.77,0,2.66c0,0.48-0.02,0.5-0.5,0.5c-3.89,0-7.79,0-11.68,0c-3.88,0-7.76,0-11.65,0
					c-0.55,0-0.55,0-0.55-0.56c0-3.62,0-7.25,0-10.87C336.04,417.17,336.05,417.16,336.59,417.16z M359.88,451.58
					c-3.88,0-7.77,0-11.65,0c-3.87,0-7.74,0-11.61,0c-0.57,0-0.57,0-0.57-0.58c0-2,0-3.99,0-5.99c0-0.46,0.02-0.49,0.48-0.49
					c7.8,0,15.61,0,23.41,0c0.48,0,0.5,0.02,0.5,0.5c0,2,0,3.99,0,5.99C360.43,451.57,360.43,451.58,359.88,451.58z"/>
			</g>
			<g>
				<path class="st1" d="M340.36,440.84c-0.34,0-0.66-0.05-0.97-0.14c-0.31-0.1-0.59-0.24-0.85-0.43c-0.26-0.19-0.48-0.42-0.67-0.7
					c-0.19-0.28-0.34-0.6-0.45-0.97l1.4-0.55c0.1,0.4,0.28,0.73,0.54,0.99c0.26,0.26,0.6,0.39,1.01,0.39c0.15,0,0.3-0.02,0.45-0.06
					c0.14-0.04,0.27-0.1,0.39-0.18s0.2-0.17,0.27-0.29c0.07-0.12,0.1-0.25,0.1-0.41c0-0.15-0.03-0.28-0.08-0.4
					c-0.05-0.12-0.14-0.23-0.26-0.33c-0.12-0.1-0.28-0.2-0.47-0.3c-0.19-0.1-0.44-0.19-0.72-0.3l-0.49-0.18
					c-0.21-0.07-0.43-0.17-0.65-0.3c-0.22-0.12-0.41-0.28-0.59-0.45c-0.18-0.18-0.32-0.38-0.44-0.62c-0.11-0.24-0.17-0.51-0.17-0.81
					c0-0.31,0.06-0.6,0.18-0.87c0.12-0.27,0.29-0.5,0.52-0.71c0.22-0.2,0.49-0.36,0.8-0.47s0.66-0.17,1.04-0.17
					c0.4,0,0.74,0.05,1.03,0.16c0.29,0.11,0.54,0.24,0.74,0.41c0.2,0.17,0.37,0.35,0.49,0.55c0.12,0.2,0.22,0.39,0.28,0.56
					l-1.31,0.55c-0.07-0.22-0.21-0.42-0.4-0.6c-0.2-0.18-0.46-0.26-0.8-0.26c-0.32,0-0.59,0.08-0.8,0.23
					c-0.21,0.15-0.32,0.35-0.32,0.59c0,0.24,0.1,0.44,0.31,0.6c0.21,0.17,0.53,0.33,0.98,0.48l0.5,0.17
					c0.32,0.11,0.6,0.24,0.87,0.38c0.26,0.14,0.49,0.31,0.67,0.51c0.19,0.2,0.33,0.42,0.43,0.68c0.1,0.25,0.15,0.55,0.15,0.88
					c0,0.41-0.08,0.77-0.25,1.06c-0.17,0.3-0.38,0.54-0.63,0.73c-0.26,0.19-0.55,0.33-0.87,0.43
					C340.99,440.8,340.67,440.84,340.36,440.84z"/>
				<path class="st1" d="M343.52,432.77h1.61l1.63,4.75l0.29,1.01h0.09l0.31-1.01l1.7-4.75h1.61l-2.88,7.9h-1.57L343.52,432.77z"/>
				<path class="st1" d="M355.1,436.33h3.87c0.02,0.09,0.04,0.2,0.05,0.32c0.02,0.12,0.02,0.25,0.02,0.38
					c0,0.51-0.08,0.99-0.23,1.43c-0.15,0.45-0.4,0.85-0.73,1.2c-0.35,0.38-0.78,0.67-1.27,0.87c-0.49,0.21-1.06,0.31-1.69,0.31
					c-0.57,0-1.11-0.1-1.62-0.31c-0.51-0.21-0.95-0.49-1.32-0.86c-0.38-0.37-0.67-0.8-0.89-1.31c-0.22-0.5-0.33-1.05-0.33-1.65
					c0-0.6,0.11-1.15,0.33-1.65c0.22-0.5,0.52-0.94,0.89-1.31c0.38-0.37,0.82-0.65,1.32-0.86c0.51-0.21,1.05-0.31,1.62-0.31
					c0.64,0,1.21,0.11,1.71,0.33s0.94,0.53,1.3,0.92l-1.03,1c-0.26-0.27-0.54-0.48-0.86-0.62c-0.32-0.14-0.69-0.22-1.14-0.22
					c-0.36,0-0.7,0.06-1.03,0.19c-0.32,0.13-0.61,0.31-0.85,0.55c-0.24,0.24-0.44,0.52-0.58,0.85c-0.14,0.33-0.22,0.71-0.22,1.12
					c0,0.41,0.07,0.79,0.22,1.12c0.14,0.33,0.34,0.62,0.58,0.85c0.25,0.24,0.53,0.42,0.85,0.55c0.32,0.13,0.67,0.19,1.04,0.19
					c0.42,0,0.77-0.06,1.06-0.18c0.29-0.12,0.54-0.28,0.74-0.47c0.15-0.13,0.27-0.3,0.38-0.5c0.11-0.2,0.19-0.43,0.25-0.68h-2.48
					V436.33z"/>
			</g>
			<g>
				<path class="st1" d="M401.3,431.3c-0.01-1.22-0.96-2.12-2.19-2.14c-0.92-0.01-0.83,0.12-0.83-0.87c0-1.1-0.01-2.19,0-3.29
					c0-0.38-0.11-0.69-0.36-0.98c-2.34-2.67-4.68-5.34-7.02-8.01c-0.12-0.14-0.28-0.24-0.41-0.37c-6.21,0-12.43,0-18.64,0
					c-0.79,0.29-1.14,0.87-1.14,1.71c0.01,3.75,0,7.5,0,11.24c0,0.56,0,0.59-0.55,0.55c-1.5-0.1-2.52,0.99-2.5,2.49
					c0.04,3.48,0.01,6.95,0.01,10.43c0,1.58,0.87,2.44,2.45,2.45c0.58,0,0.58,0,0.58,0.6c0,2.22,0,4.44,0,6.66
					c0,1.19,0.58,1.77,1.77,1.77c8.01,0,16.03,0,24.04,0c1.17,0,1.76-0.58,1.76-1.75c0-2.26,0-4.51,0-6.77c0-0.51,0-0.51,0.52-0.52
					c0.27,0,0.54,0.01,0.81-0.06c1-0.25,1.69-1.04,1.69-2.07C401.32,438.7,401.32,435,401.3,431.3z M372.85,417.16
					c5.34,0,10.67,0,16.01,0c0.55,0,0.55,0.01,0.55,0.56c0,2.24,0,4.49,0,6.73c0,0.81,0.25,1.06,1.06,1.06c1.91,0,3.82,0,5.73,0
					c0.46,0,0.48,0.02,0.48,0.48c0,0.89,0,1.77,0,2.66c0,0.48-0.02,0.5-0.5,0.5c-3.89,0-7.79,0-11.68,0c-3.88,0-7.76,0-11.65,0
					c-0.55,0-0.55,0-0.55-0.56c0-3.62,0-7.25,0-10.87C372.3,417.17,372.3,417.16,372.85,417.16z M396.13,451.58
					c-3.88,0-7.77,0-11.65,0c-3.87,0-7.74,0-11.61,0c-0.57,0-0.57,0-0.57-0.58c0-2,0-3.99,0-5.99c0-0.46,0.02-0.49,0.48-0.49
					c7.8,0,15.61,0,23.41,0c0.48,0,0.5,0.02,0.5,0.5c0,2,0,3.99,0,5.99C396.69,451.57,396.68,451.58,396.13,451.58z"/>
			</g>
			<g>
				<path class="st1" d="M376.97,434.18v1.83h3.17v1.41h-3.17v1.83h3.52v1.41h-5.01v-7.9h5.01v1.41H376.97z"/>
				<path class="st1" d="M381.85,440.67v-7.9h2.78c0.38,0,0.73,0.06,1.05,0.18c0.33,0.12,0.61,0.29,0.85,0.51
					c0.24,0.22,0.43,0.48,0.57,0.79c0.14,0.31,0.21,0.64,0.21,1.01c0,0.37-0.07,0.72-0.21,1.02c-0.14,0.31-0.33,0.57-0.57,0.79
					c-0.24,0.22-0.53,0.39-0.85,0.51c-0.33,0.12-0.68,0.18-1.05,0.18h-1.29v2.9H381.85z M384.65,436.36c0.39,0,0.68-0.11,0.88-0.33
					c0.2-0.22,0.3-0.47,0.3-0.76c0-0.14-0.02-0.28-0.07-0.41c-0.05-0.13-0.12-0.25-0.22-0.35c-0.1-0.1-0.22-0.18-0.37-0.24
					c-0.15-0.06-0.32-0.09-0.52-0.09h-1.31v2.17H384.65z"/>
				<path class="st1" d="M390.8,440.84c-0.34,0-0.66-0.05-0.97-0.14c-0.31-0.1-0.59-0.24-0.85-0.43c-0.26-0.19-0.48-0.42-0.67-0.7
					c-0.19-0.28-0.34-0.6-0.45-0.97l1.4-0.55c0.1,0.4,0.28,0.73,0.54,0.99c0.26,0.26,0.6,0.39,1.01,0.39c0.15,0,0.3-0.02,0.45-0.06
					c0.14-0.04,0.27-0.1,0.39-0.18c0.11-0.08,0.2-0.17,0.27-0.29c0.07-0.12,0.1-0.25,0.1-0.41c0-0.15-0.03-0.28-0.08-0.4
					c-0.05-0.12-0.14-0.23-0.26-0.33c-0.12-0.1-0.28-0.2-0.47-0.3c-0.19-0.1-0.44-0.19-0.72-0.3l-0.49-0.18
					c-0.21-0.07-0.43-0.17-0.65-0.3c-0.22-0.12-0.41-0.28-0.59-0.45c-0.18-0.18-0.32-0.38-0.44-0.62c-0.11-0.24-0.17-0.51-0.17-0.81
					c0-0.31,0.06-0.6,0.18-0.87c0.12-0.27,0.29-0.5,0.52-0.71c0.22-0.2,0.49-0.36,0.81-0.47c0.31-0.11,0.66-0.17,1.04-0.17
					c0.4,0,0.74,0.05,1.03,0.16c0.29,0.11,0.54,0.24,0.74,0.41c0.2,0.17,0.37,0.35,0.49,0.55c0.12,0.2,0.22,0.39,0.28,0.56
					l-1.31,0.55c-0.07-0.22-0.21-0.42-0.4-0.6c-0.19-0.18-0.46-0.26-0.8-0.26c-0.32,0-0.59,0.08-0.81,0.23
					c-0.21,0.15-0.32,0.35-0.32,0.59c0,0.24,0.1,0.44,0.31,0.6c0.21,0.17,0.53,0.33,0.98,0.48l0.5,0.17
					c0.32,0.11,0.6,0.24,0.87,0.38c0.26,0.14,0.49,0.31,0.67,0.51c0.19,0.2,0.33,0.42,0.43,0.68c0.1,0.25,0.15,0.55,0.15,0.88
					c0,0.41-0.08,0.77-0.25,1.06c-0.17,0.3-0.38,0.54-0.63,0.73c-0.26,0.19-0.55,0.33-0.87,0.43
					C391.42,440.8,391.11,440.84,390.8,440.84z"/>
			</g>
			<g>
				<path class="st1" d="M425.39,439.17l4-4.99h-3.83v-1.41h5.56v1.5l-3.96,4.99h4v1.41h-5.78V439.17z"/>
				<path class="st1" d="M432.41,432.77h1.49v7.9h-1.49V432.77z"/>
				<path class="st1" d="M435.49,440.67v-7.9h2.78c0.38,0,0.73,0.06,1.05,0.18c0.33,0.12,0.61,0.29,0.85,0.51s0.43,0.48,0.57,0.79
					c0.14,0.31,0.21,0.64,0.21,1.01c0,0.37-0.07,0.72-0.21,1.02c-0.14,0.31-0.33,0.57-0.57,0.79c-0.24,0.22-0.53,0.39-0.85,0.51
					c-0.33,0.12-0.68,0.18-1.05,0.18h-1.29v2.9H435.49z M438.29,436.36c0.39,0,0.68-0.11,0.88-0.33c0.2-0.22,0.3-0.47,0.3-0.76
					c0-0.14-0.02-0.28-0.07-0.41c-0.05-0.13-0.12-0.25-0.22-0.35c-0.1-0.1-0.22-0.18-0.37-0.24c-0.15-0.06-0.32-0.09-0.52-0.09
					h-1.31v2.17H438.29z"/>
			</g>
		</g>
		<g class="st0">
			<path class="st1" d="M404.13,433.27h9.07v2.24h-9.07V433.27z M404.13,437.14h9.07v2.24h-9.07V437.14z"/>
		</g>
	</g>
	<g class="st0">
		<path class="st1" d="M260.76,478.88h1.61c1.26,0,2.11,0.81,2.11,1.97c0,1.16-0.85,1.97-2.11,1.97h-1.61V478.88z M262.34,482.46
			c1.05,0,1.73-0.67,1.73-1.61c0-0.95-0.68-1.61-1.73-1.61h-1.17v3.23H262.34z"/>
		<path class="st1" d="M269.14,480.85c0-1.15,0.88-2.01,2.07-2.01c1.18,0,2.07,0.85,2.07,2.01c0,1.16-0.89,2.01-2.07,2.01
			C270.02,482.86,269.14,482,269.14,480.85z M272.87,480.85c0-0.94-0.7-1.64-1.65-1.64c-0.95,0-1.66,0.69-1.66,1.64
			c0,0.94,0.71,1.63,1.66,1.63C272.16,482.49,272.87,481.79,272.87,480.85z"/>
		<path class="st1" d="M283.6,478.88l-1.33,3.95h-0.44l-1.16-3.37l-1.16,3.37h-0.43l-1.33-3.95h0.43l1.14,3.39l1.18-3.39h0.39
			l1.16,3.41l1.16-3.41H283.6z"/>
		<path class="st1" d="M291.73,478.88v3.95h-0.34l-2.54-3.2v3.2h-0.42v-3.95h0.34l2.54,3.2v-3.2H291.73z"/>
		<path class="st1" d="M297.09,478.88h0.42v3.59h2.21v0.36h-2.63V478.88z"/>
		<path class="st1" d="M304.06,480.85c0-1.15,0.88-2.01,2.07-2.01c1.18,0,2.07,0.85,2.07,2.01c0,1.16-0.89,2.01-2.07,2.01
			C304.94,482.86,304.06,482,304.06,480.85z M307.79,480.85c0-0.94-0.7-1.64-1.65-1.64c-0.95,0-1.66,0.69-1.66,1.64
			c0,0.94,0.71,1.63,1.66,1.63C307.08,482.49,307.79,481.79,307.79,480.85z"/>
		<path class="st1" d="M315.64,481.77h-2.2l-0.47,1.05h-0.43l1.8-3.95h0.41l1.8,3.95h-0.44L315.64,481.77z M315.48,481.43
			l-0.95-2.12l-0.95,2.12H315.48z"/>
		<path class="st1" d="M321.28,478.88h1.61c1.26,0,2.11,0.81,2.11,1.97c0,1.16-0.85,1.97-2.11,1.97h-1.61V478.88z M322.86,482.46
			c1.05,0,1.73-0.67,1.73-1.61c0-0.95-0.68-1.61-1.73-1.61h-1.17v3.23H322.86z"/>
		<path class="st1" d="M338.04,481.77h-2.2l-0.47,1.05h-0.43l1.8-3.95h0.41l1.8,3.95h-0.44L338.04,481.77z M337.89,481.43
			l-0.95-2.12l-0.95,2.12H337.89z"/>
		<path class="st1" d="M343.68,478.88h0.42v3.59h2.21v0.36h-2.63V478.88z"/>
		<path class="st1" d="M351.08,478.88h0.42v3.59h2.21v0.36h-2.63V478.88z"/>
		<path class="st1" d="M364.45,479.24v1.55h2.04v0.36h-2.04v1.67h-0.42v-3.95h2.71v0.36H364.45z"/>
		<path class="st1" d="M371.68,478.88h0.42v3.95h-0.42V478.88z"/>
		<path class="st1" d="M377.46,478.88h0.42v3.59h2.21v0.36h-2.63V478.88z"/>
		<path class="st1" d="M387.64,482.46v0.36h-2.79v-3.95h2.71v0.36h-2.29v1.4h2.04V481h-2.04v1.47H387.64z"/>
		<path class="st1" d="M398.67,479.24v1.55h2.04v0.36h-2.04v1.67h-0.42v-3.95h2.71v0.36H398.67z"/>
		<path class="st1" d="M405.5,480.85c0-1.15,0.88-2.01,2.07-2.01c1.18,0,2.07,0.85,2.07,2.01c0,1.16-0.89,2.01-2.07,2.01
			C406.38,482.86,405.5,482,405.5,480.85z M409.23,480.85c0-0.94-0.7-1.64-1.65-1.64c-0.95,0-1.66,0.69-1.66,1.64
			c0,0.94,0.71,1.63,1.66,1.63C408.52,482.49,409.23,481.79,409.23,480.85z"/>
		<path class="st1" d="M417.35,482.82l-0.9-1.27c-0.1,0.01-0.2,0.02-0.32,0.02h-1.06v1.25h-0.42v-3.95h1.48c1,0,1.61,0.51,1.61,1.35
			c0,0.62-0.33,1.05-0.9,1.24l0.96,1.35H417.35z M417.33,480.23c0-0.63-0.42-0.99-1.21-0.99h-1.05v1.98h1.05
			C416.91,481.22,417.33,480.85,417.33,480.23z"/>
		<path class="st1" d="M426.91,478.88v3.95h-0.4v-3.16l-1.55,2.66h-0.2l-1.55-2.64v3.14h-0.4v-3.95h0.34l1.71,2.93l1.7-2.93H426.91z
			"/>
		<path class="st1" d="M434.74,481.77h-2.2l-0.47,1.05h-0.43l1.8-3.95h0.41l1.8,3.95h-0.44L434.74,481.77z M434.59,481.43
			l-0.95-2.12l-0.95,2.12H434.59z"/>
		<path class="st1" d="M440.96,479.24h-1.39v-0.36h3.19v0.36h-1.39v3.59h-0.42V479.24z"/>
		<path class="st1" d="M447.06,482.35l0.16-0.32c0.28,0.28,0.78,0.48,1.3,0.48c0.74,0,1.06-0.31,1.06-0.7
			c0-1.08-2.43-0.42-2.43-1.88c0-0.58,0.45-1.08,1.45-1.08c0.45,0,0.91,0.13,1.22,0.35l-0.14,0.33c-0.34-0.22-0.73-0.33-1.08-0.33
			c-0.72,0-1.04,0.32-1.04,0.72c0,1.08,2.43,0.43,2.43,1.87c0,0.58-0.46,1.08-1.47,1.08C447.94,482.86,447.36,482.65,447.06,482.35z
			"/>
	</g>
</g>
<g>
</g>
<g>
	<g>
		<linearGradient id="SVGID_1_" gradientUnits="userSpaceOnUse" x1="354" y1="33.1905" x2="354" y2="342.247">
			<stop  offset="0" style="stop-color:#149C0D"/>
			<stop  offset="1" style="stop-color:#20C751"/>
		</linearGradient>
		<path class="st2" d="M460.81,83.14c-28.23-28.27-65.78-43.84-105.8-43.86c-82.44,0-149.53,67.07-149.57,149.52
			c-0.01,26.35,6.88,52.08,19.96,74.75l-20.83,54.86c-5.19,13.69,8.03,27.17,21.81,22.25l57.09-20.42
			c21.85,11.9,46.45,18.18,71.47,18.19h0.06c82.43,0,149.54-67.07,149.57-149.52C504.59,148.96,489.06,111.4,460.81,83.14z
			 M355.01,309.03h-0.05c-21.56,0-42.7-5.79-61.15-16.74l-4.39-2.61l-45.48,11.93l12.13-44.33l-2.85-4.54
			c-12.03-19.13-18.39-41.23-18.37-63.93c0.03-66.24,53.93-120.12,120.21-120.12c32.09,0.01,62.27,12.53,84.95,35.23
			c22.69,22.71,35.17,52.9,35.16,84.99C475.15,255.15,421.24,309.03,355.01,309.03z"/>
		
			<linearGradient id="SVGID_00000124882716469788191920000005815286723783494804_" gradientUnits="userSpaceOnUse" x1="355.3568" y1="33.1905" x2="355.3568" y2="342.247">
			<stop  offset="0" style="stop-color:#149C0D"/>
			<stop  offset="1" style="stop-color:#20C751"/>
		</linearGradient>
		<path style="fill:url(#SVGID_00000124882716469788191920000005815286723783494804_);" d="M283.3,197.51L283.3,197.51
			c-9.95,0-16.98,9.67-14.02,19.17c8.78,28.2,31.03,50.45,59.23,59.23c9.5,2.96,19.17-4.06,19.17-14.02v0
			c0-6.47-4.25-12.13-10.43-14.06c-18.98-5.93-33.96-20.91-39.89-39.89C295.44,201.76,289.78,197.51,283.3,197.51z M283.3,182.17
			L283.3,182.17c6.47,0,12.13-4.25,14.06-10.43c5.93-18.98,20.91-33.96,39.89-39.89c6.18-1.93,10.43-7.59,10.43-14.06v0
			c0-9.95-9.67-16.98-19.17-14.02c-28.2,8.78-50.45,31.03-59.23,59.23C266.33,172.5,273.35,182.17,283.3,182.17z M427.41,182.17
			L427.41,182.17c9.95,0,16.98-9.67,14.02-19.17c-8.78-28.2-31.03-50.45-59.23-59.23c-9.5-2.96-19.17,4.06-19.17,14.02v0
			c0,6.47,4.25,12.13,10.43,14.06c18.98,5.93,33.96,20.91,39.89,39.89C415.28,177.91,420.93,182.17,427.41,182.17z M363.03,261.89
			L363.03,261.89c0,9.95,9.67,16.98,19.17,14.02c28.2-8.78,50.45-31.03,59.23-59.23c2.96-9.5-4.06-19.17-14.02-19.17h0
			c-6.47,0-12.13,4.25-14.06,10.43c-5.93,18.98-20.91,33.96-39.89,39.89C367.28,249.76,363.03,255.42,363.03,261.89z"/>
	</g>
	<g>
		<g>
			<path class="st4" d="M139.18,393.03c5.9-6.03,13.41-9.05,22.53-9.05c12.2,0,21.12,4.05,26.76,12.13
				c3.12,4.54,4.79,9.1,5.02,13.68h-15.32c-0.97-3.51-2.23-6.17-3.75-7.96c-2.73-3.18-6.77-4.77-12.13-4.77
				c-5.46,0-9.76,2.25-12.91,6.74c-3.15,4.49-4.73,10.85-4.73,19.07s1.66,14.38,4.99,18.47c3.32,4.09,7.55,6.14,12.67,6.14
				c5.25,0,9.26-1.76,12.02-5.27c1.52-1.89,2.79-4.72,3.79-8.5h15.22c-1.31,7.99-4.67,14.49-10.06,19.49
				c-5.4,5.01-12.31,7.51-20.74,7.51c-10.43,0-18.63-3.38-24.6-10.15c-5.97-6.8-8.95-16.11-8.95-27.95
				C129,409.83,132.39,399.96,139.18,393.03z"/>
			<path class="st4" d="M243.54,404.77c2.72,1.16,4.96,2.94,6.71,5.33c1.48,2.03,2.39,4.11,2.72,6.25c0.33,2.14,0.5,5.63,0.5,10.48
				v31.86H239v-33.01c0-2.92-0.49-5.28-1.48-7.07c-1.28-2.52-3.72-3.78-7.31-3.78c-3.72,0-6.54,1.25-8.47,3.76
				c-1.93,2.51-2.89,6.08-2.89,10.73v29.37h-14.17v-73.05h14.17v25.86c2.05-3.15,4.42-5.35,7.11-6.59c2.69-1.24,5.52-1.87,8.49-1.87
				C237.79,403.03,240.82,403.61,243.54,404.77z"/>
			<path class="st4" d="M288.27,425.71c2.64-0.33,4.52-0.75,5.66-1.24c2.04-0.86,3.06-2.2,3.06-4.03c0-2.22-0.78-3.75-2.34-4.6
				c-1.56-0.84-3.86-1.27-6.88-1.27c-3.39,0-5.8,0.83-7.21,2.49c-1.01,1.23-1.68,2.88-2.02,4.97h-13.68c0.3-4.74,1.63-8.64,4-11.69
				c3.76-4.77,10.22-7.16,19.38-7.16c5.96,0,11.25,1.18,15.88,3.53c4.63,2.36,6.94,6.8,6.94,13.33v24.86c0,1.72,0.03,3.81,0.1,6.27
				c0.1,1.86,0.38,3.12,0.85,3.78c0.46,0.66,1.16,1.21,2.09,1.64v2.09h-15.42c-0.43-1.09-0.73-2.12-0.89-3.08
				c-0.17-0.96-0.3-2.05-0.4-3.28c-1.97,2.12-4.24,3.93-6.8,5.42c-3.07,1.76-6.54,2.64-10.4,2.64c-4.94,0-9.01-1.4-12.23-4.2
				c-3.22-2.8-4.83-6.77-4.83-11.91c0-6.66,2.59-11.49,7.76-14.47c2.84-1.62,7.01-2.79,12.52-3.48L288.27,425.71z M296.94,432.32
				c-0.91,0.56-1.82,1.02-2.75,1.37c-0.92,0.35-2.19,0.67-3.81,0.97l-3.23,0.6c-3.02,0.53-5.2,1.18-6.51,1.94
				c-2.23,1.29-3.35,3.3-3.35,6.02c0,2.42,0.68,4.17,2.04,5.25c1.36,1.08,3.02,1.62,4.97,1.62c3.1,0,5.95-0.89,8.56-2.69
				c2.61-1.79,3.96-5.05,4.07-9.8V432.32z"/>
			<path class="st4" d="M367.15,407.58c3.55,2.93,5.32,7.8,5.32,14.6v36.5h-14.52v-32.97c0-2.85-0.38-5.04-1.14-6.56
				c-1.38-2.79-4.02-4.18-7.9-4.18c-4.77,0-8.05,2.04-9.82,6.12c-0.92,2.16-1.38,4.91-1.38,8.26v29.34h-14.17v-54.11h13.73v7.91
				c1.82-2.78,3.53-4.79,5.15-6.02c2.9-2.19,6.59-3.28,11.04-3.28C359.04,403.18,363.6,404.65,367.15,407.58z"/>
			<path class="st4" d="M429.36,407.58c3.55,2.93,5.32,7.8,5.32,14.6v36.5h-14.52v-32.97c0-2.85-0.38-5.04-1.14-6.56
				c-1.38-2.79-4.02-4.18-7.9-4.18c-4.77,0-8.05,2.04-9.82,6.12c-0.92,2.16-1.38,4.91-1.38,8.26v29.34h-14.17v-54.11h13.73v7.91
				c1.82-2.78,3.53-4.79,5.15-6.02c2.9-2.19,6.59-3.28,11.04-3.28C421.25,403.18,425.81,404.65,429.36,407.58z"/>
			<path class="st4" d="M483.19,405.57c3.78,1.69,6.9,4.37,9.37,8.02c2.22,3.22,3.66,6.96,4.32,11.21
				c0.38,2.49,0.54,6.08,0.47,10.76h-39.48c0.22,5.44,2.11,9.25,5.67,11.44c2.16,1.36,4.77,2.04,7.81,2.04
				c3.23,0,5.85-0.83,7.87-2.49c1.1-0.89,2.07-2.14,2.92-3.73h14.47c-0.38,3.22-2.13,6.48-5.25,9.8
				c-4.86,5.27-11.65,7.91-20.39,7.91c-7.21,0-13.58-2.22-19.09-6.67s-8.27-11.68-8.27-21.7c0-9.39,2.49-16.59,7.47-21.6
				c4.98-5.01,11.44-7.52,19.38-7.52C475.16,403.03,479.41,403.88,483.19,405.57z M461.98,417.81c-2,2.06-3.26,4.86-3.78,8.39h24.42
				c-0.26-3.76-1.52-6.62-3.78-8.56c-2.26-1.95-5.06-2.92-8.41-2.92C466.81,414.72,463.99,415.75,461.98,417.81z"/>
			<path class="st4" d="M518.98,458.68H504.8v-73.3h14.17V458.68z"/>
			<path class="st4" d="M543.79,441.37c0.3,2.52,0.95,4.31,1.95,5.37c1.77,1.89,5.03,2.83,9.79,2.83c2.8,0,5.02-0.41,6.67-1.24
				c1.65-0.83,2.47-2.07,2.47-3.73c0-1.59-0.66-2.8-1.99-3.63s-6.27-2.25-14.83-4.28c-6.16-1.53-10.5-3.43-13.02-5.72
				c-2.52-2.25-3.78-5.5-3.78-9.75c0-5.01,1.97-9.31,5.91-12.91c3.94-3.6,9.48-5.39,16.62-5.39c6.78,0,12.3,1.35,16.57,4.05
				c4.27,2.7,6.72,7.37,7.35,14h-14.17c-0.2-1.82-0.72-3.26-1.55-4.33c-1.56-1.92-4.22-2.88-7.98-2.88c-3.09,0-5.29,0.48-6.61,1.44
				c-1.31,0.96-1.97,2.09-1.97,3.38c0,1.62,0.7,2.8,2.09,3.53c1.4,0.76,6.33,2.07,14.8,3.93c5.65,1.33,9.88,3.33,12.7,6.02
				c2.79,2.72,4.18,6.12,4.18,10.19c0,5.37-2,9.75-6.01,13.15c-4,3.4-10.19,5.1-18.56,5.1c-8.54,0-14.84-1.8-18.91-5.4
				c-4.07-3.6-6.1-8.18-6.1-13.75H543.79z"/>
		</g>
	</g>
</g>
</svg>
