<svg width="32" height="33" viewBox="0 0 32 33" fill="none" xmlns="http://www.w3.org/2000/svg">
<rect width="32" height="32" transform="translate(0 0.629883)" fill="#0D1218"/>
<g clip-path="url(#clip0_871_9701)">
<path d="M12.6355 12.911L11.6466 9.64546H12.4863L13.0461 11.81H13.0834L13.6059 9.64546H14.4642L13.4939 12.799V15.0382H12.6355V12.911ZM14.4269 11.978C14.4393 11.667 14.5451 11.4213 14.7441 11.2409C14.9432 11.0605 15.2106 10.9703 15.5465 10.9703C15.8575 10.9703 16.1125 11.0636 16.3116 11.2502C16.5106 11.4368 16.6101 11.6856 16.6101 11.9966V14.0492C16.6101 14.3851 16.5137 14.6495 16.3209 14.8423C16.1281 15.0351 15.8575 15.1377 15.5092 15.1502C15.1857 15.1377 14.9276 15.032 14.7348 14.8329C14.542 14.6339 14.4393 14.3664 14.4269 14.0306V11.978ZM15.2106 14.1052C15.2106 14.2172 15.2386 14.3042 15.2946 14.3664C15.3506 14.4286 15.4252 14.4597 15.5185 14.4597C15.6118 14.4597 15.6896 14.4255 15.7518 14.3571C15.814 14.2887 15.8451 14.2047 15.8451 14.1052V11.9406C15.8451 11.866 15.8109 11.8007 15.7424 11.7447C15.674 11.6887 15.5963 11.6607 15.5092 11.6607C15.4221 11.6607 15.3506 11.6856 15.2946 11.7354C15.2386 11.7851 15.2106 11.8536 15.2106 11.9406V14.1052ZM17.767 15.0942C17.9039 15.0942 18.0469 15.0506 18.1962 14.9636C18.3455 14.8765 18.4886 14.7583 18.6254 14.609V15.0382H19.3718V11.0636H18.6254V14.0865C18.5508 14.1612 18.473 14.2296 18.3922 14.2918C18.3113 14.354 18.2398 14.3851 18.1776 14.3851C18.1154 14.3851 18.0687 14.3633 18.0376 14.3198C18.0065 14.2763 17.991 14.2047 17.991 14.1052V11.0636H17.2446V14.3851C17.2446 14.6215 17.2881 14.7987 17.3752 14.9169C17.4623 15.0351 17.5929 15.0942 17.767 15.0942ZM17.2259 19.386C17.1761 19.386 17.1202 19.3984 17.058 19.4233L16.9087 19.5539V22.017C16.9709 22.0917 17.0331 22.1414 17.0953 22.1663C17.1575 22.1912 17.2135 22.2036 17.2632 22.2036C17.3627 22.2036 17.4312 22.1757 17.4685 22.1197C17.5058 22.0637 17.5245 21.9735 17.5245 21.8491V19.7965C17.5245 19.6597 17.4996 19.557 17.4498 19.4886C17.4001 19.4202 17.3254 19.386 17.2259 19.386ZM19.9689 19.4046C19.857 19.4046 19.773 19.4389 19.717 19.5073C19.661 19.5757 19.633 19.697 19.633 19.8711V20.263H20.3048V19.8711C20.3048 19.697 20.2768 19.5757 20.2208 19.5073C20.1649 19.4389 20.0809 19.4046 19.9689 19.4046ZM22.0962 20.1697C22.0962 20.9161 22.0651 21.6749 22.0029 22.4462C21.9904 22.9438 21.8163 23.3543 21.4804 23.6778C21.1445 24.0012 20.7278 24.1692 20.2302 24.1816C18.8369 24.2438 17.4063 24.2749 15.9384 24.2749C14.4704 24.2749 13.0336 24.2438 11.6279 24.1816C11.1179 24.1692 10.6949 24.0012 10.359 23.6778C10.0231 23.3543 9.84898 22.9438 9.83654 22.4462C9.78678 21.6749 9.7619 20.9099 9.7619 20.151C9.7619 19.3922 9.78678 18.6334 9.83654 17.8745C9.84898 17.3894 10.0231 16.982 10.359 16.6523C10.6949 16.3226 11.1179 16.1516 11.6279 16.1391C12.959 16.0894 14.3149 16.0645 15.6958 16.0645H16.1436C17.5245 16.0645 18.8866 16.0894 20.2302 16.1391C20.7278 16.1516 21.1445 16.3226 21.4804 16.6523C21.8163 16.982 21.9904 17.3894 22.0029 17.8745C22.0651 18.6334 22.0962 19.3984 22.0962 20.1697ZM12.4303 18.1731H13.3073V17.3894H10.7136V18.1731H11.5906V22.7821H12.4303V18.1731ZM15.4159 18.8075H14.6695V21.8304C14.6197 21.9051 14.5482 21.9735 14.4549 22.0357C14.3616 22.0979 14.2901 22.129 14.2403 22.129C14.1657 22.129 14.1128 22.1072 14.0817 22.0637C14.0506 22.0202 14.035 21.9486 14.035 21.8491V18.8075H13.2886V22.129C13.3011 22.3654 13.3508 22.5426 13.4379 22.6608C13.525 22.779 13.6463 22.8381 13.8018 22.8381C13.9573 22.8381 14.1066 22.7945 14.2496 22.7075C14.3927 22.6204 14.5326 22.5022 14.6695 22.3529V22.7821H15.4159V18.8075ZM18.3082 19.7592C18.3082 19.4233 18.246 19.1714 18.1216 19.0035C17.9972 18.8355 17.8168 18.7515 17.5804 18.7515C17.456 18.7515 17.341 18.7858 17.2352 18.8542C17.1295 18.9226 17.0206 19.0128 16.9087 19.1247V17.3894H16.1623V22.7821H16.9087V22.4835C17.0206 22.5955 17.1295 22.6826 17.2352 22.7448C17.341 22.807 17.4685 22.8381 17.6178 22.8381C17.8417 22.8381 18.0127 22.7634 18.1309 22.6142C18.2491 22.4649 18.3082 22.2472 18.3082 21.9611V19.7592ZM21.0699 19.8711C21.0699 19.4855 20.9766 19.1963 20.79 19.0035C20.6034 18.8106 20.3421 18.7111 20.0062 18.7049C19.6704 18.6987 19.3967 18.8075 19.1852 19.0314C18.9737 19.2554 18.868 19.5353 18.868 19.8711V21.6625C18.868 22.0357 18.9644 22.3343 19.1572 22.5582C19.35 22.7821 19.6144 22.8941 19.9503 22.8941C20.3235 22.8941 20.6034 22.7914 20.79 22.5862C20.9766 22.3809 21.0699 22.073 21.0699 21.6625V21.3639H20.3048V21.6438C20.3048 21.8678 20.2799 22.017 20.2302 22.0917C20.1804 22.1663 20.0933 22.2005 19.9689 22.1943C19.8445 22.1881 19.7606 22.1477 19.717 22.073C19.6735 21.9984 19.6455 21.8553 19.633 21.6438V20.8788H21.0699V19.8711Z" fill="#F8F8F8"/>
</g>
<defs>
<clipPath id="clip0_871_9701">
<rect width="12.45" height="18.66" fill="white" transform="matrix(1 0 0 -1 9.76001 26.29)"/>
</clipPath>
</defs>
</svg>
