<svg width="35" height="35" viewBox="0 0 35 35" fill="none" xmlns="http://www.w3.org/2000/svg">
  <g clip-path="url(#clip0_9843_1162)">
    <path d="M17.5032 4.19999C21.0253 4.19999 24.4031 5.59913 26.8936 8.08961C29.3841 10.5801 30.7832 13.9579 30.7832 17.48C30.7832 21.0021 29.3841 24.3799 26.8936 26.8704C24.4031 29.3609 21.0253 30.76 17.5032 30.76C15.4711 30.7652 13.4653 30.2997 11.6432 29.4C10.9446 29.0653 10.1777 28.8976 9.4032 28.91C8.16166 28.963 6.93641 29.2128 5.7732 29.65C6.4932 27.56 6.9032 25.71 6.0032 24C4.86729 21.9845 4.27763 19.7072 4.29265 17.3936C4.30766 15.0801 4.92681 12.8107 6.08878 10.8101C7.25075 8.80944 8.91522 7.14711 10.9173 5.9877C12.9194 4.82829 15.1897 4.21204 17.5032 4.19999ZM17.5032 0.679992C13.0476 0.679992 8.77441 2.44999 5.6238 5.6006C2.47319 8.75121 0.703197 13.0244 0.703197 17.48C0.694614 20.3874 1.44981 23.2461 2.8932 25.77C3.6032 27 0.153197 33 1.1532 34C1.28827 34.1198 1.44733 34.2094 1.61977 34.2628C1.7922 34.3163 1.97406 34.3324 2.1532 34.31C4.0332 34.31 7.6132 32.42 9.4532 32.42C9.68682 32.4108 9.91944 32.4553 10.1332 32.55C12.405 33.6693 14.9005 34.2605 17.433 34.2794C19.9655 34.2983 22.4695 33.7444 24.7577 32.6591C27.046 31.5738 29.0592 29.9852 30.6469 28.0121C32.2347 26.039 33.3557 23.7325 33.9264 21.265C34.497 18.7976 34.5023 16.233 33.942 13.7632C33.3818 11.2934 32.2703 8.98221 30.6909 7.00249C29.1114 5.02278 27.1048 3.42578 24.8211 2.33092C22.5374 1.23606 20.0358 0.671683 17.5032 0.679992Z" fill="green"/>
    <path d="M9.47899 16.63H9.34899C9.20888 16.6209 9.07227 16.5823 8.94804 16.5169C8.82382 16.4515 8.71476 16.3606 8.62798 16.2502C8.54119 16.1399 8.47862 16.0125 8.44433 15.8763C8.41005 15.7402 8.40482 15.5983 8.42899 15.46C8.65563 13.6813 9.43318 12.0182 10.6526 10.7037C11.8721 9.3892 13.4723 8.48925 15.229 8.13C15.5073 8.08354 15.7927 8.14889 16.0231 8.31183C16.2534 8.47477 16.4101 8.7221 16.459 9C16.4834 9.13665 16.4804 9.27678 16.4503 9.41228C16.4202 9.54778 16.3635 9.67597 16.2835 9.78942C16.2035 9.90288 16.1019 9.99935 15.9844 10.0733C15.8669 10.1472 15.7359 10.197 15.599 10.22C11.199 11.01 10.599 15.54 10.529 15.73C10.4907 15.9809 10.3636 16.2097 10.171 16.3748C9.97829 16.54 9.73276 16.6305 9.47899 16.63Z" fill="green"/>
    <path d="M26.0794 16.55C25.8314 16.5381 25.5954 16.4395 25.4126 16.2713C25.2299 16.1032 25.112 15.8762 25.0794 15.63C24.4994 11.18 20.0094 10.33 19.8194 10.29C19.5625 10.2218 19.3405 10.0596 19.1975 9.83542C19.0546 9.61126 19.0011 9.34156 19.0476 9.0798C19.0942 8.81805 19.2374 8.58335 19.4489 8.42224C19.6604 8.26113 19.9247 8.18538 20.1894 8.21C21.9555 8.52061 23.58 9.3761 24.8354 10.6565C26.0907 11.937 26.9139 13.5782 27.1894 15.35C27.2235 15.6295 27.146 15.9112 26.9738 16.1339C26.8016 16.3567 26.5485 16.5026 26.2694 16.54L26.0794 16.55Z" fill="green"/>
    <path d="M19.3826 27C19.1042 27.0172 18.8302 26.9231 18.6211 26.7384C18.412 26.5537 18.2849 26.2935 18.2676 26.015C18.2504 25.7365 18.3445 25.4626 18.5292 25.2535C18.7139 25.0444 18.9742 24.9172 19.2526 24.9C23.7326 24.32 24.5726 19.69 24.5826 19.65C24.6316 19.3741 24.7868 19.1285 25.0149 18.9658C25.243 18.8031 25.5259 18.7364 25.8026 18.78C25.9395 18.803 26.0705 18.8528 26.188 18.9267C26.3055 19.0006 26.4072 19.0971 26.4872 19.2106C26.5671 19.324 26.6238 19.4522 26.654 19.5877C26.6841 19.7232 26.687 19.8633 26.6626 20C26.3577 21.7685 25.504 23.3962 24.2226 24.6525C22.9411 25.9089 21.2968 26.7301 19.5226 27H19.3826Z" fill="green"/>
    <path d="M15.4231 26.6H15.2431C13.4746 26.2951 11.8469 25.4414 10.5905 24.1599C9.33418 22.8785 8.51292 21.2342 8.24306 19.46C8.20726 19.1828 8.28302 18.9028 8.45368 18.6815C8.62434 18.4602 8.87591 18.3158 9.15306 18.28C9.43021 18.2442 9.71024 18.3199 9.93153 18.4906C10.1528 18.6613 10.2973 18.9128 10.3331 19.19C10.9231 23.67 15.5431 24.51 15.5931 24.52C15.8496 24.5702 16.0785 24.7134 16.2359 24.9221C16.3932 25.1308 16.4679 25.3903 16.4456 25.6508C16.4233 25.9112 16.3055 26.1542 16.1149 26.3331C15.9243 26.512 15.6744 26.6142 15.4131 26.62L15.4231 26.6Z" fill="green"/>
  </g>
  <defs>
    <clipPath id="clip0_9843_1162">
      <rect width="35" height="35" fill="white"/>
    </clipPath>
  </defs>
</svg>
